G04 #@! TF.GenerationSoftware,KiCad,Pcbnew,6.0.10-86aedd382b~118~ubuntu22.04.1*
G04 #@! TF.CreationDate,2023-01-30T15:30:24-08:00*
G04 #@! TF.ProjectId,led-panel-single,6c65642d-7061-46e6-956c-2d73696e676c,rev?*
G04 #@! TF.SameCoordinates,Original*
G04 #@! TF.FileFunction,Soldermask,Top*
G04 #@! TF.FilePolarity,Negative*
%FSLAX46Y46*%
G04 Gerber Fmt 4.6, Leading zero omitted, Abs format (unit mm)*
G04 Created by KiCad (PCBNEW 6.0.10-86aedd382b~118~ubuntu22.04.1) date 2023-01-30 15:30:24*
%MOMM*%
%LPD*%
G01*
G04 APERTURE LIST*
G04 Aperture macros list*
%AMRoundRect*
0 Rectangle with rounded corners*
0 $1 Rounding radius*
0 $2 $3 $4 $5 $6 $7 $8 $9 X,Y pos of 4 corners*
0 Add a 4 corners polygon primitive as box body*
4,1,4,$2,$3,$4,$5,$6,$7,$8,$9,$2,$3,0*
0 Add four circle primitives for the rounded corners*
1,1,$1+$1,$2,$3*
1,1,$1+$1,$4,$5*
1,1,$1+$1,$6,$7*
1,1,$1+$1,$8,$9*
0 Add four rect primitives between the rounded corners*
20,1,$1+$1,$2,$3,$4,$5,0*
20,1,$1+$1,$4,$5,$6,$7,0*
20,1,$1+$1,$6,$7,$8,$9,0*
20,1,$1+$1,$8,$9,$2,$3,0*%
G04 Aperture macros list end*
%ADD10RoundRect,0.250000X-0.548008X-0.088388X-0.088388X-0.548008X0.548008X0.088388X0.088388X0.548008X0*%
%ADD11RoundRect,0.243750X0.243750X0.456250X-0.243750X0.456250X-0.243750X-0.456250X0.243750X-0.456250X0*%
%ADD12RoundRect,0.250000X0.325000X0.450000X-0.325000X0.450000X-0.325000X-0.450000X0.325000X-0.450000X0*%
%ADD13R,3.600000X1.800000*%
%ADD14O,3.600000X1.800000*%
%ADD15RoundRect,0.200000X0.775000X0.200000X-0.775000X0.200000X-0.775000X-0.200000X0.775000X-0.200000X0*%
%ADD16RoundRect,0.243750X-0.456250X0.243750X-0.456250X-0.243750X0.456250X-0.243750X0.456250X0.243750X0*%
%ADD17RoundRect,0.200000X0.825000X0.200000X-0.825000X0.200000X-0.825000X-0.200000X0.825000X-0.200000X0*%
%ADD18RoundRect,0.243750X0.456250X-0.243750X0.456250X0.243750X-0.456250X0.243750X-0.456250X-0.243750X0*%
%ADD19RoundRect,0.200000X-0.825000X-0.200000X0.825000X-0.200000X0.825000X0.200000X-0.825000X0.200000X0*%
%ADD20RoundRect,0.243750X-0.243750X-0.456250X0.243750X-0.456250X0.243750X0.456250X-0.243750X0.456250X0*%
%ADD21O,2.540000X1.700000*%
%ADD22R,1.200000X0.510000*%
G04 APERTURE END LIST*
D10*
G04 #@! TO.C,D1*
X134403216Y-85127216D03*
X135852784Y-86576784D03*
G04 #@! TD*
D11*
G04 #@! TO.C,R3*
X128191500Y-81534000D03*
X126316500Y-81534000D03*
G04 #@! TD*
D12*
G04 #@! TO.C,R5*
X102625000Y-86110000D03*
X100575000Y-86110000D03*
G04 #@! TD*
G04 #@! TO.C,R7*
X100575000Y-91190000D03*
X102625000Y-91190000D03*
G04 #@! TD*
D13*
G04 #@! TO.C,J5*
X90540000Y-91110000D03*
D14*
X94880000Y-91110000D03*
X90540000Y-93650000D03*
X94880000Y-93650000D03*
X90540000Y-96190000D03*
X94880000Y-96190000D03*
X90540000Y-98730000D03*
X94880000Y-98730000D03*
X90540000Y-101270000D03*
X94880000Y-101270000D03*
X90540000Y-103810000D03*
X94880000Y-103810000D03*
X90540000Y-106350000D03*
X94880000Y-106350000D03*
X90540000Y-108890000D03*
X94880000Y-108890000D03*
G04 #@! TD*
D15*
G04 #@! TO.C,U4*
X114235000Y-120650000D03*
X114235000Y-119380000D03*
X114235000Y-118110000D03*
X114235000Y-116840000D03*
X114235000Y-115570000D03*
X114235000Y-114300000D03*
X114235000Y-113030000D03*
X109285000Y-113030000D03*
X109285000Y-114300000D03*
X109285000Y-115570000D03*
X109285000Y-116840000D03*
X109285000Y-118110000D03*
X109285000Y-119380000D03*
X109285000Y-120650000D03*
G04 #@! TD*
D12*
G04 #@! TO.C,R10*
X100575000Y-98810000D03*
X102625000Y-98810000D03*
G04 #@! TD*
G04 #@! TO.C,R17*
X100575000Y-116590000D03*
X102625000Y-116590000D03*
G04 #@! TD*
D11*
G04 #@! TO.C,C5*
X121587500Y-82515000D03*
X119712500Y-82515000D03*
G04 #@! TD*
D12*
G04 #@! TO.C,R11*
X100575000Y-101350000D03*
X102625000Y-101350000D03*
G04 #@! TD*
D16*
G04 #@! TO.C,C7*
X106680000Y-117807500D03*
X106680000Y-119682500D03*
G04 #@! TD*
D17*
G04 #@! TO.C,U1*
X130380000Y-106985000D03*
X130380000Y-105715000D03*
X130380000Y-104445000D03*
X130380000Y-103175000D03*
X130380000Y-101905000D03*
X130380000Y-100635000D03*
X130380000Y-99365000D03*
X130380000Y-98095000D03*
X130380000Y-96825000D03*
X130380000Y-95555000D03*
X130380000Y-94285000D03*
X130380000Y-93015000D03*
X121080000Y-93015000D03*
X121080000Y-94285000D03*
X121080000Y-95555000D03*
X121080000Y-96825000D03*
X121080000Y-98095000D03*
X121080000Y-99365000D03*
X121080000Y-100635000D03*
X121080000Y-101905000D03*
X121080000Y-103175000D03*
X121080000Y-104445000D03*
X121080000Y-105715000D03*
X121080000Y-106985000D03*
G04 #@! TD*
D12*
G04 #@! TO.C,R16*
X100575000Y-114050000D03*
X102625000Y-114050000D03*
G04 #@! TD*
D18*
G04 #@! TO.C,R1*
X133350000Y-115237500D03*
X133350000Y-113362500D03*
G04 #@! TD*
D12*
G04 #@! TO.C,R9*
X100575000Y-96270000D03*
X102625000Y-96270000D03*
G04 #@! TD*
G04 #@! TO.C,R6*
X100575000Y-88650000D03*
X102625000Y-88650000D03*
G04 #@! TD*
D19*
G04 #@! TO.C,U3*
X107110000Y-80645000D03*
X107110000Y-81915000D03*
X107110000Y-83185000D03*
X107110000Y-84455000D03*
X107110000Y-85725000D03*
X107110000Y-86995000D03*
X107110000Y-88265000D03*
X107110000Y-89535000D03*
X107110000Y-90805000D03*
X107110000Y-92075000D03*
X116410000Y-92075000D03*
X116410000Y-90805000D03*
X116410000Y-89535000D03*
X116410000Y-88265000D03*
X116410000Y-86995000D03*
X116410000Y-85725000D03*
X116410000Y-84455000D03*
X116410000Y-83185000D03*
X116410000Y-81915000D03*
X116410000Y-80645000D03*
G04 #@! TD*
D20*
G04 #@! TO.C,C6*
X119712500Y-80010000D03*
X121587500Y-80010000D03*
G04 #@! TD*
G04 #@! TO.C,C4*
X120982500Y-110490000D03*
X122857500Y-110490000D03*
G04 #@! TD*
D11*
G04 #@! TO.C,R4*
X100662500Y-83570000D03*
X102537500Y-83570000D03*
G04 #@! TD*
D12*
G04 #@! TO.C,R14*
X100575000Y-108970000D03*
X102625000Y-108970000D03*
G04 #@! TD*
D20*
G04 #@! TO.C,C1*
X134952500Y-88900000D03*
X136827500Y-88900000D03*
G04 #@! TD*
D18*
G04 #@! TO.C,C3*
X130210000Y-111427500D03*
X130210000Y-109552500D03*
G04 #@! TD*
D12*
G04 #@! TO.C,R15*
X100575000Y-111510000D03*
X102625000Y-111510000D03*
G04 #@! TD*
D11*
G04 #@! TO.C,C2*
X129207500Y-88900000D03*
X127332500Y-88900000D03*
G04 #@! TD*
D12*
G04 #@! TO.C,R12*
X100575000Y-103890000D03*
X102625000Y-103890000D03*
G04 #@! TD*
D21*
G04 #@! TO.C,J2*
X137560000Y-106350000D03*
X134220000Y-106350000D03*
X137560000Y-103810000D03*
X134220000Y-103810000D03*
X137560000Y-101270000D03*
X134220000Y-101270000D03*
X137560000Y-98730000D03*
X134220000Y-98730000D03*
X137560000Y-96190000D03*
X134220000Y-96190000D03*
X137560000Y-93650000D03*
X134220000Y-93650000D03*
G04 #@! TD*
D22*
G04 #@! TO.C,U2*
X123140000Y-87310000D03*
X123140000Y-86360000D03*
X123140000Y-85410000D03*
X120820000Y-85410000D03*
X120820000Y-86360000D03*
X120820000Y-87310000D03*
G04 #@! TD*
D16*
G04 #@! TO.C,R2*
X123825000Y-113362500D03*
X123825000Y-115237500D03*
G04 #@! TD*
D12*
G04 #@! TO.C,R13*
X100575000Y-106430000D03*
X102625000Y-106430000D03*
G04 #@! TD*
G04 #@! TO.C,R8*
X100575000Y-93730000D03*
X102625000Y-93730000D03*
G04 #@! TD*
M02*
