G04 #@! TF.GenerationSoftware,KiCad,Pcbnew,6.0.10-86aedd382b~118~ubuntu22.04.1*
G04 #@! TF.CreationDate,2023-01-30T15:30:24-08:00*
G04 #@! TF.ProjectId,led-panel-single,6c65642d-7061-46e6-956c-2d73696e676c,rev?*
G04 #@! TF.SameCoordinates,Original*
G04 #@! TF.FileFunction,Legend,Bot*
G04 #@! TF.FilePolarity,Positive*
%FSLAX46Y46*%
G04 Gerber Fmt 4.6, Leading zero omitted, Abs format (unit mm)*
G04 Created by KiCad (PCBNEW 6.0.10-86aedd382b~118~ubuntu22.04.1) date 2023-01-30 15:30:24*
%MOMM*%
%LPD*%
G01*
G04 APERTURE LIST*
%ADD10C,0.300000*%
%ADD11C,0.250000*%
%ADD12C,0.120000*%
G04 APERTURE END LIST*
D10*
G04 #@! TO.C,G\u002A\u002A\u002A*
X99238000Y-98657428D02*
X99165428Y-98512285D01*
X99165428Y-98294571D01*
X99238000Y-98076857D01*
X99383142Y-97931714D01*
X99528285Y-97859142D01*
X99818571Y-97786571D01*
X100036285Y-97786571D01*
X100326571Y-97859142D01*
X100471714Y-97931714D01*
X100616857Y-98076857D01*
X100689428Y-98294571D01*
X100689428Y-98439714D01*
X100616857Y-98657428D01*
X100544285Y-98730000D01*
X100036285Y-98730000D01*
X100036285Y-98439714D01*
X99165428Y-99600857D02*
X99528285Y-99600857D01*
X99383142Y-99238000D02*
X99528285Y-99600857D01*
X99383142Y-99963714D01*
X99818571Y-99383142D02*
X99528285Y-99600857D01*
X99818571Y-99818571D01*
X99165428Y-100762000D02*
X99528285Y-100762000D01*
X99383142Y-100399142D02*
X99528285Y-100762000D01*
X99383142Y-101124857D01*
X99818571Y-100544285D02*
X99528285Y-100762000D01*
X99818571Y-100979714D01*
X99165428Y-101923142D02*
X99528285Y-101923142D01*
X99383142Y-101560285D02*
X99528285Y-101923142D01*
X99383142Y-102286000D01*
X99818571Y-101705428D02*
X99528285Y-101923142D01*
X99818571Y-102140857D01*
D11*
G04 #@! TO.C,J3*
X133125000Y-86303571D02*
X133125000Y-87375000D01*
X133196428Y-87589285D01*
X133339285Y-87732142D01*
X133553571Y-87803571D01*
X133696428Y-87803571D01*
X132553571Y-86303571D02*
X131625000Y-86303571D01*
X132125000Y-86875000D01*
X131910714Y-86875000D01*
X131767857Y-86946428D01*
X131696428Y-87017857D01*
X131625000Y-87160714D01*
X131625000Y-87517857D01*
X131696428Y-87660714D01*
X131767857Y-87732142D01*
X131910714Y-87803571D01*
X132339285Y-87803571D01*
X132482142Y-87732142D01*
X132553571Y-87660714D01*
G04 #@! TO.C,J4*
X119383571Y-86585000D02*
X120455000Y-86585000D01*
X120669285Y-86513571D01*
X120812142Y-86370714D01*
X120883571Y-86156428D01*
X120883571Y-86013571D01*
X119883571Y-87942142D02*
X120883571Y-87942142D01*
X119312142Y-87585000D02*
X120383571Y-87227857D01*
X120383571Y-88156428D01*
G04 #@! TO.C,G\u002A\u002A\u002A*
G36*
X122107407Y-78419721D02*
G01*
X122239686Y-78442406D01*
X124541427Y-78913228D01*
X126698972Y-79503328D01*
X128712002Y-80212442D01*
X130580195Y-81040307D01*
X131846013Y-81735540D01*
X132303231Y-81986661D01*
X133880791Y-83051240D01*
X135312552Y-84233781D01*
X136598197Y-85534020D01*
X137737402Y-86951696D01*
X138085148Y-87489495D01*
X138729850Y-88486544D01*
X139510332Y-90011522D01*
X139575218Y-90138302D01*
X140273188Y-91906706D01*
X140823437Y-93791494D01*
X140866196Y-93970814D01*
X141014378Y-94677813D01*
X141154782Y-95492917D01*
X141291702Y-96442785D01*
X141429430Y-97554074D01*
X141430214Y-97560936D01*
X141451954Y-97890697D01*
X141463430Y-98373581D01*
X141465549Y-98975859D01*
X141459220Y-99663807D01*
X141445351Y-100403697D01*
X141424850Y-101161805D01*
X141398625Y-101904404D01*
X141367584Y-102597767D01*
X141332636Y-103208169D01*
X141294688Y-103701884D01*
X141254649Y-104045185D01*
X141027709Y-105306256D01*
X140602183Y-107084028D01*
X140069290Y-108732462D01*
X139421262Y-110271627D01*
X138650329Y-111721593D01*
X137748724Y-113102431D01*
X137711603Y-113153711D01*
X137299944Y-113677889D01*
X136786664Y-114271715D01*
X136212682Y-114892139D01*
X135618922Y-115496112D01*
X135046304Y-116040583D01*
X134535750Y-116482502D01*
X134170286Y-116770590D01*
X132656220Y-117828066D01*
X131012575Y-118769771D01*
X129236333Y-119596617D01*
X127324474Y-120309517D01*
X125273980Y-120909382D01*
X123081830Y-121397124D01*
X120745007Y-121773657D01*
X118260490Y-122039893D01*
X115625261Y-122196743D01*
X115079945Y-122214908D01*
X112307255Y-122228116D01*
X109651655Y-122105011D01*
X107115046Y-121846089D01*
X104699331Y-121451843D01*
X102406414Y-120922769D01*
X100238195Y-120259362D01*
X99969899Y-120154593D01*
X109580667Y-120154593D01*
X109640610Y-120170645D01*
X109867924Y-120195577D01*
X110237925Y-120221521D01*
X110723907Y-120246942D01*
X111299167Y-120270303D01*
X111937000Y-120290069D01*
X114218174Y-120350386D01*
X115102386Y-119469851D01*
X115181671Y-119391306D01*
X115502408Y-119082367D01*
X115769347Y-118838994D01*
X115956560Y-118684159D01*
X116038118Y-118640834D01*
X116050273Y-118659374D01*
X116121594Y-118815892D01*
X116231664Y-119089583D01*
X116362204Y-119435621D01*
X116634770Y-120178889D01*
X117654237Y-120148710D01*
X117763070Y-120145267D01*
X118216278Y-120122763D01*
X118523141Y-120087930D01*
X118718548Y-120035174D01*
X118837387Y-119958895D01*
X118863555Y-119929237D01*
X118883991Y-119874103D01*
X118867290Y-119797569D01*
X118801389Y-119685756D01*
X118713358Y-119574323D01*
X122092437Y-119574323D01*
X122104230Y-119613821D01*
X122159688Y-119622228D01*
X122248519Y-119611251D01*
X122470703Y-119572695D01*
X123233368Y-119418009D01*
X124096187Y-119216041D01*
X125002306Y-118981293D01*
X125894873Y-118728265D01*
X126717037Y-118471461D01*
X127008980Y-118372752D01*
X127624354Y-118152757D01*
X128231153Y-117922011D01*
X128772295Y-117702550D01*
X129190701Y-117516415D01*
X130112143Y-117074445D01*
X128696326Y-115664024D01*
X127280509Y-114253604D01*
X124576366Y-116963329D01*
X124097050Y-117443843D01*
X123515005Y-118028793D01*
X123048671Y-118500698D01*
X122687756Y-118871267D01*
X122421967Y-119152206D01*
X122241013Y-119355223D01*
X122134600Y-119492026D01*
X122092437Y-119574323D01*
X118713358Y-119574323D01*
X118674223Y-119524785D01*
X118473729Y-119300777D01*
X118187842Y-118999855D01*
X117804497Y-118608138D01*
X117311632Y-118111750D01*
X116697181Y-117496811D01*
X114393292Y-115194362D01*
X111949400Y-117636898D01*
X111925567Y-117660724D01*
X111373834Y-118216413D01*
X110870606Y-118730865D01*
X110430130Y-119188938D01*
X110066651Y-119575490D01*
X109794417Y-119875378D01*
X109627673Y-120073460D01*
X109580667Y-120154593D01*
X99969899Y-120154593D01*
X98196579Y-119462116D01*
X96283468Y-118531528D01*
X94500764Y-117468091D01*
X94464348Y-117441706D01*
X98464484Y-117441706D01*
X98494815Y-117500254D01*
X98616189Y-117569762D01*
X98973214Y-117735881D01*
X99465769Y-117934937D01*
X100063399Y-118156494D01*
X100735654Y-118390117D01*
X101452080Y-118625371D01*
X102182225Y-118851821D01*
X102895636Y-119059031D01*
X103561861Y-119236568D01*
X103878723Y-119313728D01*
X104238679Y-119394114D01*
X104499902Y-119443697D01*
X104620782Y-119453937D01*
X104613673Y-119432096D01*
X104505847Y-119298133D01*
X104287342Y-119056444D01*
X103973331Y-118723035D01*
X103578988Y-118313915D01*
X103119484Y-117845090D01*
X102609992Y-117332568D01*
X100515104Y-115239232D01*
X99434404Y-116324127D01*
X99217609Y-116542909D01*
X98869640Y-116902999D01*
X98637636Y-117160929D01*
X98507338Y-117334547D01*
X98464484Y-117441706D01*
X94464348Y-117441706D01*
X92850370Y-116272300D01*
X92803053Y-116234260D01*
X92358164Y-115852710D01*
X91842343Y-115376693D01*
X91291313Y-114842252D01*
X90740799Y-114285430D01*
X90226524Y-113742271D01*
X89784211Y-113248817D01*
X89449585Y-112841111D01*
X89274707Y-112607365D01*
X88396369Y-111296321D01*
X88355975Y-111224303D01*
X90686667Y-111224303D01*
X90689895Y-111242873D01*
X90776642Y-111401375D01*
X90965441Y-111664173D01*
X91234513Y-112004407D01*
X91562083Y-112395218D01*
X91926373Y-112809745D01*
X92305607Y-113221129D01*
X93070524Y-114029211D01*
X94171678Y-112930926D01*
X95272832Y-111832640D01*
X95426659Y-112242802D01*
X95528000Y-112522041D01*
X95665010Y-112913583D01*
X95800215Y-113311482D01*
X96019942Y-113970000D01*
X95404688Y-115798898D01*
X95935512Y-116130931D01*
X96205605Y-116295626D01*
X96417629Y-116416712D01*
X96517576Y-116462963D01*
X96520244Y-116462133D01*
X96612895Y-116384971D01*
X96814390Y-116196679D01*
X97103613Y-115917608D01*
X97459444Y-115568110D01*
X97860766Y-115168537D01*
X99103566Y-113923353D01*
X101835230Y-113923353D01*
X104633341Y-116721464D01*
X107431451Y-119519575D01*
X110206837Y-116745385D01*
X110502532Y-116449277D01*
X111077182Y-115870589D01*
X111601481Y-115338354D01*
X112061558Y-114866914D01*
X112443542Y-114470609D01*
X112733561Y-114163782D01*
X112917745Y-113960774D01*
X112981217Y-113877249D01*
X115804445Y-113877249D01*
X115841198Y-113930905D01*
X115995929Y-114106475D01*
X116257374Y-114386324D01*
X116610134Y-114754419D01*
X117038807Y-115194727D01*
X117527993Y-115691214D01*
X118062291Y-116227846D01*
X120320137Y-118484223D01*
X123095254Y-115710302D01*
X123394628Y-115410775D01*
X123968461Y-114835004D01*
X124491963Y-114307580D01*
X124951302Y-113842569D01*
X125332645Y-113454041D01*
X125622159Y-113156062D01*
X125806012Y-112962701D01*
X125870370Y-112888026D01*
X125869782Y-112887307D01*
X128646792Y-112887307D01*
X130242034Y-114484623D01*
X131837277Y-116081939D01*
X132075861Y-115931587D01*
X132260665Y-115805720D01*
X132576208Y-115574969D01*
X132953782Y-115288607D01*
X133348296Y-114981374D01*
X133714658Y-114688006D01*
X134007778Y-114443242D01*
X134384074Y-114117726D01*
X133796608Y-113524426D01*
X133209142Y-112931125D01*
X134277008Y-111866288D01*
X135344875Y-110801451D01*
X135609831Y-111562577D01*
X135660343Y-111704863D01*
X135780611Y-112020714D01*
X135875899Y-112239366D01*
X135929060Y-112320134D01*
X135981050Y-112280560D01*
X136125292Y-112102458D01*
X136336101Y-111803257D01*
X136596559Y-111407285D01*
X136889743Y-110938870D01*
X136918326Y-110892100D01*
X137088180Y-110610916D01*
X137207980Y-110407042D01*
X137253333Y-110321870D01*
X137235672Y-110300726D01*
X137110075Y-110169074D01*
X136879692Y-109933675D01*
X136563309Y-109613578D01*
X136179714Y-109227829D01*
X135747695Y-108795474D01*
X134242057Y-107292042D01*
X128646792Y-112887307D01*
X125869782Y-112887307D01*
X125829377Y-112837938D01*
X125669935Y-112667955D01*
X125404518Y-112393273D01*
X125048392Y-112029470D01*
X124616823Y-111592129D01*
X124125077Y-111096828D01*
X123588422Y-110559149D01*
X121306474Y-108278626D01*
X118555459Y-111030827D01*
X118279717Y-111307162D01*
X117706552Y-111884719D01*
X117183366Y-112416152D01*
X116724083Y-112887055D01*
X116342626Y-113283023D01*
X116052919Y-113589649D01*
X115868884Y-113792526D01*
X115804445Y-113877249D01*
X112981217Y-113877249D01*
X112982222Y-113875926D01*
X112968405Y-113852567D01*
X112847345Y-113711710D01*
X112613020Y-113459367D01*
X112279360Y-113109945D01*
X111860294Y-112677849D01*
X111369754Y-112177487D01*
X110821668Y-111623265D01*
X110229968Y-111029587D01*
X107477713Y-108278519D01*
X104656472Y-111100936D01*
X101835230Y-113923353D01*
X99103566Y-113923353D01*
X99152714Y-113874111D01*
X96400769Y-111123352D01*
X96124506Y-110847671D01*
X95547078Y-110274552D01*
X95015846Y-109751408D01*
X94545205Y-109292161D01*
X94149552Y-108910733D01*
X93843283Y-108621048D01*
X93640792Y-108437027D01*
X93556477Y-108372593D01*
X93555756Y-108372627D01*
X93461276Y-108439051D01*
X93260904Y-108616204D01*
X92978847Y-108880031D01*
X92639313Y-109206476D01*
X92266510Y-109571486D01*
X91884646Y-109951004D01*
X91517927Y-110320976D01*
X91190562Y-110657347D01*
X90926759Y-110936062D01*
X90750724Y-111133065D01*
X90686667Y-111224303D01*
X88355975Y-111224303D01*
X87600998Y-109878279D01*
X86910622Y-108399564D01*
X86347268Y-106906503D01*
X85932966Y-105445422D01*
X85766375Y-104728992D01*
X85239669Y-104865330D01*
X85184579Y-104879941D01*
X84383547Y-105160138D01*
X83505474Y-105580119D01*
X82574653Y-106123492D01*
X81615378Y-106773871D01*
X80651940Y-107514865D01*
X79708634Y-108330087D01*
X78809753Y-109203147D01*
X78778179Y-109235861D01*
X77916903Y-110228465D01*
X77090469Y-111379869D01*
X76296953Y-112694092D01*
X75534432Y-114175151D01*
X74800981Y-115827067D01*
X74094676Y-117653857D01*
X73413594Y-119659540D01*
X72755811Y-121848134D01*
X72702949Y-122032900D01*
X72573833Y-122469545D01*
X72463814Y-122821328D01*
X72383181Y-123056071D01*
X72342222Y-123141599D01*
X72334194Y-123131477D01*
X72287978Y-122988835D01*
X72213280Y-122700230D01*
X72116358Y-122294530D01*
X72003470Y-121800599D01*
X71880875Y-121247304D01*
X71754832Y-120663512D01*
X71631599Y-120078089D01*
X71517435Y-119519901D01*
X71418598Y-119017813D01*
X71341347Y-118600694D01*
X71291940Y-118297407D01*
X71245618Y-117837465D01*
X71212327Y-117230405D01*
X71192695Y-116526939D01*
X71186671Y-115772977D01*
X71194205Y-115014430D01*
X71215246Y-114297206D01*
X71249742Y-113667216D01*
X71297642Y-113170370D01*
X71305887Y-113108742D01*
X71421507Y-112374622D01*
X71572548Y-111587101D01*
X71745743Y-110806358D01*
X71927825Y-110092574D01*
X72105525Y-109505927D01*
X72333182Y-108836589D01*
X72078998Y-109018617D01*
X71940666Y-109128778D01*
X71640171Y-109402390D01*
X71262674Y-109772908D01*
X70835179Y-110211523D01*
X70384687Y-110689428D01*
X69938203Y-111177814D01*
X69522730Y-111647873D01*
X69165271Y-112070797D01*
X68892828Y-112417778D01*
X68636437Y-112769774D01*
X68286589Y-113272985D01*
X67977092Y-113756142D01*
X67685772Y-114258143D01*
X67390457Y-114817887D01*
X67068975Y-115474270D01*
X66699153Y-116266191D01*
X66655099Y-116361767D01*
X66416897Y-116871387D01*
X66205250Y-117312589D01*
X66032901Y-117659619D01*
X65912593Y-117886724D01*
X65857068Y-117968148D01*
X65844370Y-117946069D01*
X65810761Y-117776515D01*
X65769009Y-117465738D01*
X65721877Y-117044929D01*
X65672129Y-116545276D01*
X65622528Y-115997970D01*
X65575838Y-115434200D01*
X65534822Y-114885156D01*
X65502242Y-114382027D01*
X65480864Y-113956003D01*
X65473449Y-113638273D01*
X65548613Y-112338596D01*
X65766958Y-110953749D01*
X66117219Y-109550199D01*
X66588153Y-108172869D01*
X67168516Y-106866677D01*
X67251674Y-106697513D01*
X67387739Y-106398542D01*
X67466447Y-106191934D01*
X67472774Y-106114815D01*
X67459621Y-106116867D01*
X67308109Y-106180842D01*
X67035100Y-106320828D01*
X66672905Y-106518374D01*
X66253834Y-106755031D01*
X65810198Y-107012349D01*
X65374309Y-107271878D01*
X64978477Y-107515169D01*
X64655013Y-107723772D01*
X64024462Y-108161890D01*
X62700718Y-109204358D01*
X61485961Y-110347954D01*
X60351318Y-111621240D01*
X59267914Y-113052778D01*
X59211760Y-113132609D01*
X58884513Y-113592053D01*
X58594339Y-113989969D01*
X58358721Y-114303049D01*
X58195146Y-114507989D01*
X58121095Y-114581482D01*
X58082162Y-114508970D01*
X58090189Y-114322778D01*
X58106450Y-114198135D01*
X58139060Y-113899877D01*
X58181571Y-113479375D01*
X58230312Y-112973164D01*
X58281612Y-112417778D01*
X58379461Y-111490003D01*
X58547212Y-110373017D01*
X58768257Y-109359704D01*
X59055180Y-108403166D01*
X59280181Y-107820226D01*
X61327108Y-107820226D01*
X62295591Y-107072973D01*
X62665529Y-106794029D01*
X63992072Y-105884262D01*
X65402062Y-105042887D01*
X66838183Y-104302452D01*
X68243121Y-103695504D01*
X68352301Y-103655383D01*
X68687660Y-103544228D01*
X69125315Y-103409923D01*
X69636983Y-103260079D01*
X70194380Y-103102307D01*
X70769223Y-102944217D01*
X71333227Y-102793422D01*
X71858108Y-102657532D01*
X72315585Y-102544158D01*
X72677371Y-102460911D01*
X72915184Y-102415402D01*
X73000741Y-102415242D01*
X73000458Y-102418551D01*
X72984420Y-102451614D01*
X72934218Y-102518856D01*
X72836600Y-102635235D01*
X72678314Y-102815707D01*
X72446108Y-103075231D01*
X72126728Y-103428765D01*
X71706924Y-103891266D01*
X71173442Y-104477693D01*
X71164300Y-104487744D01*
X70419390Y-105365905D01*
X69742836Y-106278615D01*
X69165292Y-107181534D01*
X68717413Y-108030319D01*
X68702204Y-108063463D01*
X68537906Y-108445100D01*
X68365492Y-108880948D01*
X68198188Y-109332947D01*
X68049224Y-109763042D01*
X67931826Y-110133173D01*
X67859224Y-110405285D01*
X67844644Y-110541319D01*
X67853320Y-110547636D01*
X67948599Y-110484702D01*
X68122064Y-110310838D01*
X68344074Y-110054911D01*
X68366532Y-110027714D01*
X68988045Y-109332507D01*
X69735197Y-108586591D01*
X70568423Y-107824779D01*
X71448158Y-107081883D01*
X72334835Y-106392715D01*
X73188889Y-105792089D01*
X73208695Y-105779076D01*
X73496239Y-105599217D01*
X73887230Y-105366252D01*
X74357436Y-105093539D01*
X74882628Y-104794434D01*
X75438573Y-104482292D01*
X76001043Y-104170470D01*
X76545805Y-103872325D01*
X77048629Y-103601211D01*
X77485285Y-103370487D01*
X77831542Y-103193507D01*
X78063169Y-103083628D01*
X78155935Y-103054206D01*
X78113683Y-103131054D01*
X77973950Y-103340066D01*
X77750610Y-103660958D01*
X77457811Y-104073622D01*
X77109707Y-104557952D01*
X76720447Y-105093841D01*
X76121351Y-105930411D01*
X75574738Y-106737491D01*
X75121842Y-107466602D01*
X74745277Y-108149444D01*
X74427658Y-108817717D01*
X74151602Y-109503121D01*
X73899724Y-110237357D01*
X73698219Y-110937718D01*
X73459640Y-111976804D01*
X73270080Y-113061521D01*
X73145268Y-114111111D01*
X73084059Y-114816667D01*
X73825499Y-113311482D01*
X73941997Y-113076495D01*
X74579993Y-111850079D01*
X75200864Y-110771610D01*
X75826707Y-109811196D01*
X76479616Y-108938943D01*
X77181688Y-108124958D01*
X77955018Y-107339349D01*
X78821702Y-106552222D01*
X79497094Y-105984539D01*
X80762242Y-105021248D01*
X81975702Y-104232852D01*
X83135312Y-103620696D01*
X84238908Y-103186124D01*
X85225170Y-102869259D01*
X85225170Y-102022593D01*
X87283367Y-102022593D01*
X87344372Y-102445926D01*
X87515728Y-103533212D01*
X87744457Y-104704342D01*
X88009496Y-105766614D01*
X88323179Y-106763052D01*
X88697837Y-107736680D01*
X89145804Y-108730521D01*
X89574389Y-109623493D01*
X90883120Y-108317266D01*
X90941832Y-108258618D01*
X91337885Y-107860305D01*
X91681146Y-107510541D01*
X91951383Y-107230279D01*
X92128363Y-107040469D01*
X92191852Y-106962063D01*
X92191816Y-106961882D01*
X94873759Y-106961882D01*
X100470374Y-112558497D01*
X106067389Y-106961482D01*
X108796321Y-106961482D01*
X111594627Y-109759787D01*
X114392933Y-112558093D01*
X114393292Y-112557734D01*
X117168318Y-109783904D01*
X117467934Y-109484136D01*
X118041778Y-108908359D01*
X118565288Y-108380936D01*
X119024632Y-107915936D01*
X119405978Y-107527423D01*
X119695493Y-107229466D01*
X119879346Y-107036130D01*
X119943704Y-106961482D01*
X119927523Y-106940101D01*
X119904959Y-106915753D01*
X122671720Y-106915753D01*
X124976662Y-109219254D01*
X127280509Y-111521662D01*
X127281604Y-111522756D01*
X130056728Y-108748828D01*
X130356107Y-108449296D01*
X130929940Y-107873524D01*
X131453443Y-107346097D01*
X131912783Y-106881085D01*
X132294126Y-106492554D01*
X132583641Y-106194572D01*
X132767494Y-106001208D01*
X132790769Y-105974201D01*
X135654074Y-105974201D01*
X135710176Y-106059065D01*
X135880542Y-106256022D01*
X136144271Y-106540510D01*
X136480196Y-106889727D01*
X136867148Y-107280873D01*
X136933124Y-107346819D01*
X137362555Y-107778593D01*
X137678927Y-108084383D01*
X137906304Y-108263657D01*
X138068753Y-108315885D01*
X138190338Y-108240535D01*
X138295125Y-108037076D01*
X138407179Y-107704976D01*
X138550567Y-107243704D01*
X138691524Y-106777927D01*
X139078882Y-105186834D01*
X139366065Y-103448688D01*
X139419936Y-103026309D01*
X139467265Y-102631343D01*
X139499319Y-102335830D01*
X139511111Y-102183265D01*
X139510332Y-102179146D01*
X139433548Y-102213473D01*
X139240777Y-102368870D01*
X138945658Y-102632834D01*
X138561828Y-102992864D01*
X138102927Y-103436457D01*
X137582593Y-103951111D01*
X137462383Y-104071400D01*
X136979384Y-104558634D01*
X136546778Y-105001172D01*
X136181254Y-105381506D01*
X135899503Y-105682127D01*
X135718213Y-105885528D01*
X135654074Y-105974201D01*
X132790769Y-105974201D01*
X132831852Y-105926530D01*
X132831325Y-105924278D01*
X132755875Y-105831597D01*
X132565950Y-105628450D01*
X132280534Y-105333621D01*
X131918612Y-104965891D01*
X131499166Y-104544041D01*
X131041180Y-104086856D01*
X130563639Y-103613116D01*
X130085527Y-103141603D01*
X129625826Y-102691101D01*
X129203522Y-102280390D01*
X128837597Y-101928254D01*
X128547036Y-101653474D01*
X128350823Y-101474832D01*
X128267941Y-101411111D01*
X128244692Y-101424945D01*
X128104082Y-101546033D01*
X127851972Y-101780378D01*
X127502760Y-102114049D01*
X127070844Y-102533119D01*
X126570622Y-103023659D01*
X126016493Y-103571739D01*
X125422855Y-104163432D01*
X122671720Y-106915753D01*
X119904959Y-106915753D01*
X119802053Y-106804712D01*
X119563961Y-106557625D01*
X119227082Y-106212908D01*
X118805245Y-105784626D01*
X118312285Y-105286846D01*
X117762032Y-104733635D01*
X117168318Y-104139059D01*
X114392933Y-101364870D01*
X108796321Y-106961482D01*
X106067389Y-106961482D01*
X106115219Y-106913652D01*
X103362762Y-104162382D01*
X103086196Y-103886408D01*
X102508633Y-103313232D01*
X101977204Y-102790039D01*
X101506313Y-102330752D01*
X101110364Y-101949293D01*
X100803763Y-101659585D01*
X100600914Y-101475550D01*
X100516221Y-101411111D01*
X100490433Y-101426879D01*
X100346137Y-101551750D01*
X100090692Y-101789524D01*
X99738433Y-102126332D01*
X99303695Y-102548303D01*
X98800812Y-103041568D01*
X98244118Y-103592256D01*
X97647948Y-104186497D01*
X94873759Y-106961882D01*
X92191816Y-106961882D01*
X92191728Y-106961445D01*
X92121960Y-106880837D01*
X91934000Y-106683369D01*
X91642599Y-106384033D01*
X91262508Y-105997821D01*
X90808479Y-105539723D01*
X90295262Y-105024733D01*
X89737609Y-104467840D01*
X87283367Y-102022593D01*
X85225170Y-102022593D01*
X85225170Y-100000000D01*
X87912677Y-100000000D01*
X90686667Y-102775185D01*
X90982603Y-103070708D01*
X91561279Y-103645348D01*
X92093506Y-104169639D01*
X92564941Y-104629711D01*
X92961243Y-105011692D01*
X93268069Y-105301710D01*
X93471077Y-105485893D01*
X93555926Y-105550370D01*
X93556477Y-105550044D01*
X93579285Y-105536553D01*
X93720142Y-105415493D01*
X93972485Y-105181168D01*
X94321907Y-104847508D01*
X94754003Y-104428442D01*
X95254365Y-103937902D01*
X95808587Y-103389816D01*
X96402265Y-102798116D01*
X96682009Y-102518008D01*
X97254366Y-101943324D01*
X97776758Y-101416695D01*
X98235303Y-100952248D01*
X98616116Y-100564109D01*
X98905314Y-100266406D01*
X99089015Y-100073265D01*
X99152308Y-100000000D01*
X101834840Y-100000000D01*
X104633146Y-102798306D01*
X107431451Y-105596612D01*
X107477713Y-105550370D01*
X110206837Y-102822422D01*
X110506452Y-102522655D01*
X111080297Y-101946877D01*
X111603807Y-101419455D01*
X112063151Y-100954454D01*
X112444497Y-100565942D01*
X112734012Y-100267985D01*
X112917864Y-100074648D01*
X112982222Y-100000000D01*
X115757803Y-100000000D01*
X118556109Y-102798306D01*
X121306474Y-105548672D01*
X121354414Y-105596612D01*
X124129800Y-102822422D01*
X124429415Y-102522655D01*
X125003260Y-101946877D01*
X125526770Y-101419455D01*
X125986114Y-100954454D01*
X126367459Y-100565942D01*
X126656975Y-100267985D01*
X126840827Y-100074648D01*
X126905185Y-100000000D01*
X129587736Y-100000000D01*
X134194500Y-104609644D01*
X134242057Y-104562117D01*
X136476509Y-102329061D01*
X136906961Y-101898007D01*
X137409105Y-101392789D01*
X137854184Y-100942350D01*
X138226931Y-100562271D01*
X138512080Y-100268132D01*
X138694365Y-100075514D01*
X138758519Y-100000000D01*
X138717518Y-99949881D01*
X138558067Y-99779862D01*
X138292641Y-99505147D01*
X137936505Y-99141316D01*
X137504928Y-98703950D01*
X137013174Y-98208631D01*
X136476509Y-97670940D01*
X134194500Y-95390356D01*
X129587736Y-100000000D01*
X126905185Y-100000000D01*
X126889005Y-99978619D01*
X126763534Y-99843230D01*
X126525443Y-99596144D01*
X126188563Y-99251426D01*
X125766727Y-98823144D01*
X125273766Y-98325365D01*
X124723513Y-97772154D01*
X124129800Y-97177578D01*
X121354414Y-94403388D01*
X118556109Y-97201694D01*
X115757803Y-100000000D01*
X112982222Y-100000000D01*
X112966042Y-99978619D01*
X112840571Y-99843230D01*
X112602480Y-99596144D01*
X112265600Y-99251426D01*
X111843764Y-98823144D01*
X111350803Y-98325365D01*
X110800550Y-97772154D01*
X110206837Y-97177578D01*
X107431451Y-94403388D01*
X104633146Y-97201694D01*
X101834840Y-100000000D01*
X99152308Y-100000000D01*
X99153333Y-99998814D01*
X99124975Y-99959627D01*
X98981094Y-99802038D01*
X98730763Y-99541184D01*
X98391047Y-99193979D01*
X97979014Y-98777340D01*
X97511729Y-98308183D01*
X97006261Y-97803424D01*
X96479675Y-97279979D01*
X95949037Y-96754763D01*
X95431415Y-96244693D01*
X94943875Y-95766685D01*
X94503484Y-95337654D01*
X94127309Y-94974517D01*
X93832415Y-94694190D01*
X93635870Y-94513589D01*
X93554740Y-94449630D01*
X93528974Y-94465381D01*
X93384709Y-94590218D01*
X93129293Y-94827963D01*
X92777061Y-95164744D01*
X92342347Y-95586690D01*
X91839487Y-96079931D01*
X91282815Y-96630596D01*
X90686667Y-97224815D01*
X87912677Y-100000000D01*
X85225170Y-100000000D01*
X85225170Y-97703605D01*
X87332374Y-97703605D01*
X87344758Y-97754512D01*
X87392627Y-97757300D01*
X87488109Y-97701286D01*
X87643331Y-97575789D01*
X87870419Y-97370125D01*
X88181501Y-97073613D01*
X88588703Y-96675569D01*
X89104153Y-96165313D01*
X89739977Y-95532160D01*
X89763772Y-95508428D01*
X90319469Y-94952842D01*
X90830136Y-94439803D01*
X91281026Y-93984312D01*
X91657391Y-93601372D01*
X91944482Y-93305987D01*
X92127551Y-93113158D01*
X92191657Y-93038118D01*
X94873759Y-93038118D01*
X97647948Y-95813504D01*
X97944057Y-96109199D01*
X98522745Y-96683849D01*
X99054980Y-97208147D01*
X99526420Y-97668225D01*
X99922724Y-98050208D01*
X100229551Y-98340228D01*
X100432559Y-98524412D01*
X100516221Y-98587988D01*
X100517407Y-98588889D01*
X100540767Y-98575071D01*
X100681624Y-98454012D01*
X100933967Y-98219687D01*
X101283389Y-97886026D01*
X101715484Y-97466961D01*
X102215846Y-96976420D01*
X102770069Y-96428335D01*
X103363746Y-95836634D01*
X106114815Y-93084380D01*
X106068935Y-93038519D01*
X108796321Y-93038519D01*
X111594627Y-95836824D01*
X114392933Y-98635130D01*
X117168318Y-95860941D01*
X117467934Y-95561173D01*
X118041778Y-94985396D01*
X118565288Y-94457973D01*
X119024632Y-93992973D01*
X119405978Y-93604461D01*
X119695493Y-93306503D01*
X119879346Y-93113167D01*
X119904279Y-93084247D01*
X122671720Y-93084247D01*
X125422855Y-95836568D01*
X125699083Y-96112437D01*
X126276471Y-96685875D01*
X126807803Y-97209310D01*
X127278674Y-97668811D01*
X127674675Y-98050450D01*
X127981400Y-98340296D01*
X128184443Y-98524419D01*
X128267941Y-98587785D01*
X128269396Y-98588889D01*
X128319319Y-98555397D01*
X128491305Y-98404685D01*
X128767940Y-98146849D01*
X129133092Y-97797372D01*
X129570629Y-97371735D01*
X130064419Y-96885421D01*
X130598328Y-96353909D01*
X130987269Y-95963997D01*
X131486660Y-95461106D01*
X131929820Y-95012240D01*
X132301335Y-94633148D01*
X132585790Y-94339580D01*
X132767767Y-94147286D01*
X132831852Y-94072015D01*
X132815682Y-94050789D01*
X132792477Y-94025800D01*
X135654074Y-94025800D01*
X135657807Y-94035531D01*
X135751261Y-94153018D01*
X135957906Y-94381079D01*
X136261051Y-94702204D01*
X136644006Y-95098886D01*
X137090084Y-95553617D01*
X137582593Y-96048889D01*
X137802040Y-96267969D01*
X138314760Y-96777434D01*
X138714198Y-97168811D01*
X139013999Y-97453832D01*
X139227810Y-97644234D01*
X139369274Y-97751750D01*
X139452040Y-97788114D01*
X139489752Y-97765061D01*
X139496056Y-97694325D01*
X139461259Y-97251648D01*
X139366884Y-96496728D01*
X139229917Y-95663346D01*
X139059917Y-94795842D01*
X138866441Y-93938553D01*
X138659048Y-93135817D01*
X138447297Y-92431973D01*
X138240745Y-91871360D01*
X138085148Y-91503830D01*
X136869611Y-92716669D01*
X136503447Y-93086511D01*
X136163565Y-93439178D01*
X135894612Y-93728464D01*
X135717733Y-93931596D01*
X135654074Y-94025800D01*
X132792477Y-94025800D01*
X132690237Y-93915698D01*
X132452175Y-93668889D01*
X132115329Y-93324423D01*
X131693529Y-92896358D01*
X131200608Y-92398756D01*
X130650397Y-91845674D01*
X130056728Y-91251172D01*
X127281604Y-88477244D01*
X124976662Y-90780746D01*
X122671720Y-93084247D01*
X119904279Y-93084247D01*
X119943704Y-93038519D01*
X119927523Y-93017138D01*
X119802053Y-92881749D01*
X119563961Y-92634662D01*
X119227082Y-92289945D01*
X118805245Y-91861663D01*
X118312285Y-91363883D01*
X117762032Y-90810672D01*
X117168318Y-90216096D01*
X114392933Y-87441907D01*
X108796321Y-93038519D01*
X106068935Y-93038519D01*
X103292397Y-90263138D01*
X100469980Y-87441897D01*
X94873759Y-93038118D01*
X92191657Y-93038118D01*
X92191852Y-93037890D01*
X92176824Y-93012488D01*
X92057128Y-92875415D01*
X91839101Y-92645662D01*
X91548292Y-92348456D01*
X91210245Y-92009025D01*
X90850505Y-91652599D01*
X90494620Y-91304406D01*
X90168133Y-90989672D01*
X89896592Y-90733628D01*
X89705541Y-90561501D01*
X89620527Y-90498519D01*
X89564398Y-90553957D01*
X89444016Y-90754646D01*
X89280738Y-91071190D01*
X89089506Y-91471262D01*
X88885264Y-91922536D01*
X88682955Y-92392684D01*
X88497521Y-92849379D01*
X88343906Y-93260294D01*
X88096766Y-94024005D01*
X87848256Y-94921540D01*
X87640274Y-95811667D01*
X87493377Y-96613333D01*
X87491690Y-96624588D01*
X87432124Y-97021550D01*
X87376929Y-97388796D01*
X87337854Y-97648148D01*
X87332374Y-97703605D01*
X85225170Y-97703605D01*
X85225170Y-97130741D01*
X84238908Y-96813876D01*
X83674004Y-96610874D01*
X82541104Y-96084087D01*
X81353311Y-95380412D01*
X80112790Y-94501194D01*
X78821702Y-93447778D01*
X78660360Y-93306881D01*
X77811827Y-92522202D01*
X77052733Y-91733744D01*
X76360982Y-90911615D01*
X75714479Y-90025920D01*
X75091128Y-89046768D01*
X74468834Y-87944265D01*
X73825499Y-86688519D01*
X73084059Y-85183333D01*
X73145268Y-85888889D01*
X73232122Y-86669108D01*
X73406939Y-87752607D01*
X73634716Y-88810704D01*
X73899724Y-89762643D01*
X74130243Y-90438856D01*
X74403659Y-91127075D01*
X74717209Y-91795560D01*
X75088278Y-92476011D01*
X75534251Y-93200127D01*
X76072513Y-93999610D01*
X76720447Y-94906159D01*
X77099423Y-95427819D01*
X77448857Y-95913846D01*
X77743376Y-96328764D01*
X77968829Y-96652466D01*
X78111066Y-96864845D01*
X78155935Y-96945794D01*
X78153928Y-96946783D01*
X78047790Y-96909641D01*
X77804953Y-96793234D01*
X77449647Y-96610917D01*
X77006104Y-96376047D01*
X76498554Y-96101980D01*
X75951228Y-95802072D01*
X75388356Y-95489679D01*
X74834170Y-95178157D01*
X74312899Y-94880864D01*
X73848775Y-94611154D01*
X73466028Y-94382384D01*
X73188889Y-94207911D01*
X73154667Y-94185237D01*
X72298475Y-93580251D01*
X71411300Y-92888166D01*
X70532707Y-92143795D01*
X69702261Y-91381950D01*
X68959528Y-90637444D01*
X68344074Y-89945089D01*
X68278039Y-89866010D01*
X68066761Y-89630379D01*
X67912416Y-89484980D01*
X67844644Y-89458681D01*
X67843135Y-89464952D01*
X67864003Y-89616045D01*
X67941593Y-89899475D01*
X68062679Y-90277186D01*
X68214032Y-90711119D01*
X68382424Y-91163218D01*
X68554627Y-91595424D01*
X68717413Y-91969681D01*
X68721856Y-91979279D01*
X69171457Y-92828968D01*
X69750357Y-93732264D01*
X70427904Y-94644824D01*
X71173442Y-95522307D01*
X71273068Y-95631765D01*
X71786219Y-96195991D01*
X72187954Y-96638844D01*
X72491523Y-96975282D01*
X72710181Y-97220261D01*
X72857180Y-97388741D01*
X72945771Y-97495678D01*
X72989207Y-97556031D01*
X73000741Y-97584758D01*
X72983191Y-97590777D01*
X72826210Y-97569444D01*
X72529592Y-97506158D01*
X72121619Y-97408529D01*
X71630575Y-97284169D01*
X71084744Y-97140689D01*
X70512410Y-96985699D01*
X69941857Y-96826810D01*
X69401367Y-96671635D01*
X68919226Y-96527783D01*
X68523715Y-96402867D01*
X68243121Y-96304496D01*
X67413267Y-95962587D01*
X65727304Y-95139456D01*
X64059684Y-94155679D01*
X62440717Y-93028370D01*
X61335138Y-92195719D01*
X61656829Y-92834512D01*
X61932725Y-93345451D01*
X62551376Y-94319980D01*
X63261196Y-95261032D01*
X64009974Y-96096236D01*
X64249387Y-96334292D01*
X64928418Y-96962747D01*
X65604622Y-97508651D01*
X66315387Y-97996259D01*
X67098105Y-98449823D01*
X67990165Y-98893596D01*
X69028956Y-99351832D01*
X69372047Y-99497681D01*
X69803446Y-99685526D01*
X70147143Y-99840553D01*
X70374420Y-99949724D01*
X70456561Y-100000000D01*
X70414615Y-100028967D01*
X70226664Y-100122323D01*
X69913925Y-100265334D01*
X69505116Y-100444962D01*
X69028956Y-100648168D01*
X68291881Y-100968879D01*
X67406493Y-101392673D01*
X66632499Y-101817421D01*
X65927890Y-102266646D01*
X65250659Y-102763871D01*
X65017802Y-102951148D01*
X64041411Y-103856528D01*
X63130191Y-104892588D01*
X62321530Y-106013507D01*
X61652814Y-107173461D01*
X61327108Y-107820226D01*
X59280181Y-107820226D01*
X59420568Y-107456505D01*
X59877006Y-106472822D01*
X60039400Y-106156029D01*
X60831130Y-104824825D01*
X61753310Y-103571377D01*
X62782573Y-102422366D01*
X63895555Y-101404472D01*
X65068891Y-100544374D01*
X65277218Y-100408057D01*
X65566454Y-100211791D01*
X65765082Y-100067711D01*
X65838893Y-100000000D01*
X65810079Y-99968663D01*
X65655367Y-99851068D01*
X65396902Y-99671995D01*
X65068891Y-99455626D01*
X64792805Y-99271733D01*
X63631377Y-98372688D01*
X62535718Y-97322030D01*
X61529193Y-96146439D01*
X60635167Y-94872595D01*
X59877006Y-93527178D01*
X59527699Y-92788704D01*
X59140311Y-91837063D01*
X58834595Y-90887493D01*
X58597963Y-89893094D01*
X58417830Y-88806970D01*
X58281612Y-87582222D01*
X58241297Y-87143833D01*
X58191693Y-86623912D01*
X58147526Y-86181813D01*
X58112467Y-85854072D01*
X58090189Y-85677222D01*
X58081322Y-85498062D01*
X58121095Y-85418519D01*
X58126386Y-85420594D01*
X58216360Y-85517302D01*
X58392983Y-85741626D01*
X58638773Y-86070258D01*
X58936244Y-86479892D01*
X59267914Y-86947222D01*
X59744715Y-87604515D01*
X60847317Y-88962227D01*
X62013985Y-90174375D01*
X63273592Y-91269521D01*
X64655013Y-92276228D01*
X64714057Y-92315401D01*
X65055046Y-92532647D01*
X65461758Y-92780785D01*
X65901880Y-93041367D01*
X66343103Y-93295942D01*
X66753114Y-93526061D01*
X67099604Y-93713275D01*
X67350261Y-93839133D01*
X67472774Y-93885185D01*
X67479660Y-93865868D01*
X67435948Y-93720587D01*
X67327225Y-93464031D01*
X67168516Y-93133323D01*
X66597082Y-91849918D01*
X66124206Y-90473417D01*
X65771812Y-89069937D01*
X65551145Y-87684401D01*
X65473449Y-86361727D01*
X65475176Y-86220989D01*
X65489803Y-85846112D01*
X65517034Y-85378277D01*
X65554107Y-84848673D01*
X65598259Y-84288491D01*
X65646725Y-83728919D01*
X65696744Y-83201147D01*
X65745551Y-82736365D01*
X65790383Y-82365762D01*
X65828476Y-82120528D01*
X65857068Y-82031852D01*
X65861625Y-82034524D01*
X65929569Y-82143665D01*
X66060037Y-82393918D01*
X66240285Y-82759529D01*
X66457571Y-83214744D01*
X66699153Y-83733809D01*
X66943482Y-84260237D01*
X67279698Y-84960603D01*
X67581820Y-85550424D01*
X67872022Y-86068599D01*
X68172475Y-86554025D01*
X68505353Y-87045600D01*
X68892828Y-87582222D01*
X69054241Y-87791843D01*
X69383710Y-88190308D01*
X69781078Y-88646454D01*
X70219343Y-89131474D01*
X70671500Y-89616558D01*
X71110548Y-90072900D01*
X71509482Y-90471690D01*
X71841300Y-90784120D01*
X72078998Y-90981383D01*
X72333182Y-91163411D01*
X72105525Y-90494073D01*
X72089998Y-90447871D01*
X71911356Y-89847265D01*
X71729533Y-89124958D01*
X71557794Y-88341130D01*
X71409408Y-87555961D01*
X71297642Y-86829630D01*
X71250264Y-86340000D01*
X71215598Y-85711409D01*
X71194387Y-84995002D01*
X71186682Y-84236691D01*
X71192534Y-83482385D01*
X71211993Y-82777993D01*
X71245112Y-82169426D01*
X71291940Y-81702593D01*
X71305014Y-81615383D01*
X71364453Y-81270717D01*
X71449639Y-80821895D01*
X71554311Y-80297783D01*
X71672213Y-79727247D01*
X71797086Y-79139154D01*
X71922671Y-78562370D01*
X72042708Y-78025761D01*
X72150941Y-77558193D01*
X72241110Y-77188533D01*
X72306957Y-76945647D01*
X72342222Y-76858401D01*
X72352702Y-76871732D01*
X72410225Y-77018785D01*
X72503444Y-77302610D01*
X72622068Y-77691029D01*
X72755811Y-78151866D01*
X73002345Y-79003546D01*
X73084059Y-79264988D01*
X73640047Y-81043856D01*
X74295097Y-82906660D01*
X74971006Y-84599301D01*
X75671284Y-86129122D01*
X76399441Y-87503466D01*
X77158989Y-88729678D01*
X77953437Y-89815100D01*
X78786296Y-90767077D01*
X78862892Y-90846322D01*
X79763721Y-91718125D01*
X80708695Y-92531079D01*
X81673411Y-93268673D01*
X82633466Y-93914393D01*
X83564456Y-94451726D01*
X84441980Y-94864161D01*
X85241634Y-95135184D01*
X85770304Y-95272035D01*
X85886999Y-94743240D01*
X85923385Y-94584755D01*
X86189232Y-93635603D01*
X86548548Y-92601280D01*
X86979563Y-91532957D01*
X87283367Y-90868966D01*
X87460508Y-90481809D01*
X87969614Y-89499010D01*
X88376568Y-88817505D01*
X90654281Y-88817505D01*
X92056890Y-90222456D01*
X92193853Y-90359193D01*
X92604382Y-90763418D01*
X92966726Y-91111976D01*
X93259956Y-91385244D01*
X93463140Y-91563596D01*
X93554740Y-91626986D01*
X93555348Y-91627407D01*
X93578795Y-91613567D01*
X93719818Y-91492460D01*
X93972316Y-91258089D01*
X94321878Y-90924384D01*
X94754096Y-90505274D01*
X95254562Y-90014690D01*
X95808867Y-89466561D01*
X96402601Y-88874816D01*
X99154006Y-86122225D01*
X99108341Y-86076647D01*
X101835230Y-86076647D01*
X104656472Y-88899064D01*
X107431451Y-91675200D01*
X107477713Y-91721481D01*
X110229968Y-88970413D01*
X110505791Y-88694230D01*
X111079223Y-88116855D01*
X111602653Y-87585539D01*
X112062151Y-87114689D01*
X112443787Y-86718711D01*
X112733631Y-86412012D01*
X112917753Y-86208998D01*
X112982222Y-86124074D01*
X112982139Y-86123937D01*
X115804445Y-86123937D01*
X115818266Y-86147316D01*
X115939335Y-86288210D01*
X116173669Y-86540588D01*
X116507338Y-86890041D01*
X116926412Y-87322164D01*
X117416961Y-87822549D01*
X117965056Y-88376790D01*
X118556765Y-88970479D01*
X121309086Y-91721613D01*
X121354414Y-91676257D01*
X123589728Y-89439545D01*
X124020079Y-89008082D01*
X124521884Y-88502683D01*
X124966660Y-88052171D01*
X125339151Y-87672123D01*
X125624103Y-87378118D01*
X125806261Y-87185734D01*
X125869136Y-87111995D01*
X128646094Y-87111995D01*
X134242799Y-92708700D01*
X135749578Y-91201921D01*
X137256357Y-89695141D01*
X136850466Y-89036806D01*
X136770604Y-88908071D01*
X136466920Y-88435272D01*
X136218783Y-88076969D01*
X136038186Y-87849792D01*
X135937122Y-87770370D01*
X135934229Y-87771045D01*
X135875060Y-87866945D01*
X135781434Y-88093498D01*
X135672263Y-88405370D01*
X135614475Y-88584239D01*
X135509055Y-88895033D01*
X135413240Y-89090977D01*
X135302603Y-89169713D01*
X135152718Y-89128880D01*
X134939159Y-88966117D01*
X134637499Y-88679064D01*
X134223312Y-88265362D01*
X133164361Y-87208131D01*
X133769873Y-86597189D01*
X134375384Y-85986247D01*
X134097507Y-85692710D01*
X134090788Y-85685693D01*
X133901060Y-85510740D01*
X133601646Y-85259005D01*
X133232312Y-84963097D01*
X132832821Y-84655625D01*
X131846013Y-83912077D01*
X130246053Y-85512036D01*
X128646094Y-87111995D01*
X125869136Y-87111995D01*
X125870370Y-87110548D01*
X125854202Y-87089322D01*
X125728758Y-86954228D01*
X125490697Y-86707418D01*
X125153852Y-86362951D01*
X124732053Y-85934885D01*
X124239133Y-85437281D01*
X123688922Y-84884199D01*
X123095254Y-84289698D01*
X120320137Y-81515778D01*
X118062291Y-83772154D01*
X117656764Y-84178969D01*
X117154952Y-84686992D01*
X116709841Y-85142860D01*
X116336833Y-85530532D01*
X116051330Y-85833964D01*
X115868733Y-86037113D01*
X115804445Y-86123937D01*
X112982139Y-86123937D01*
X112966465Y-86098173D01*
X112841610Y-85953646D01*
X112603844Y-85697985D01*
X112267038Y-85345531D01*
X111845063Y-84910626D01*
X111351790Y-84407610D01*
X110801091Y-83850826D01*
X110206837Y-83254615D01*
X107431451Y-80480425D01*
X104633341Y-83278536D01*
X101835230Y-86076647D01*
X99108341Y-86076647D01*
X97858269Y-84828967D01*
X96562531Y-83535710D01*
X96023488Y-83872884D01*
X96023040Y-83873164D01*
X95751728Y-84052368D01*
X95558243Y-84198244D01*
X95484445Y-84279233D01*
X95490724Y-84312579D01*
X95542680Y-84494176D01*
X95635813Y-84789002D01*
X95756344Y-85152796D01*
X96028244Y-85957182D01*
X95707229Y-86887295D01*
X95609422Y-87170404D01*
X95483060Y-87535269D01*
X95387227Y-87810903D01*
X95337308Y-87952980D01*
X95332109Y-87962032D01*
X95237827Y-87943594D01*
X95033870Y-87793297D01*
X94715884Y-87507557D01*
X94279517Y-87082794D01*
X94098612Y-86904122D01*
X93757921Y-86577151D01*
X93471626Y-86314812D01*
X93265488Y-86140356D01*
X93165267Y-86077037D01*
X93074100Y-86130721D01*
X92878627Y-86301621D01*
X92609521Y-86563229D01*
X92292805Y-86888231D01*
X91954501Y-87249315D01*
X91620632Y-87619166D01*
X91317221Y-87970473D01*
X91070289Y-88275920D01*
X90654281Y-88817505D01*
X88376568Y-88817505D01*
X88485112Y-88635732D01*
X89441655Y-87286617D01*
X89620527Y-87076288D01*
X90708343Y-85797165D01*
X92115955Y-84428822D01*
X93661492Y-83183207D01*
X94548228Y-82591546D01*
X98507226Y-82591546D01*
X98521581Y-82677042D01*
X98608030Y-82810017D01*
X98782439Y-83011221D01*
X99060669Y-83301406D01*
X99458586Y-83701323D01*
X100469980Y-84709775D01*
X100519662Y-84759313D01*
X102634417Y-82642990D01*
X102929045Y-82347396D01*
X103414841Y-81856493D01*
X103842746Y-81419631D01*
X104197633Y-81052514D01*
X104464377Y-80770846D01*
X104627852Y-80590329D01*
X104672931Y-80526667D01*
X104625187Y-80532626D01*
X104412121Y-80577581D01*
X104075299Y-80658285D01*
X103653196Y-80764776D01*
X103184287Y-80887095D01*
X102707049Y-81015278D01*
X102259955Y-81139364D01*
X101881482Y-81249393D01*
X101872030Y-81252242D01*
X101463605Y-81383290D01*
X100981713Y-81549937D01*
X100462278Y-81738388D01*
X99941223Y-81934851D01*
X99454472Y-82125532D01*
X99037950Y-82296639D01*
X98727581Y-82434378D01*
X98559289Y-82524956D01*
X98549101Y-82532776D01*
X98507226Y-82591546D01*
X94548228Y-82591546D01*
X95341957Y-82061942D01*
X96562531Y-81391651D01*
X97154352Y-81066647D01*
X99095680Y-80198942D01*
X100075515Y-79848913D01*
X109577396Y-79848913D01*
X109630326Y-79934657D01*
X109802348Y-80136764D01*
X110079197Y-80440108D01*
X110446613Y-80829563D01*
X110890334Y-81290005D01*
X111396097Y-81806307D01*
X111949641Y-82363344D01*
X114392933Y-84805280D01*
X114393774Y-84806121D01*
X116702936Y-82496959D01*
X116854715Y-82345259D01*
X117483945Y-81716461D01*
X117988010Y-81206822D01*
X118371722Y-80803265D01*
X118639890Y-80492711D01*
X118728138Y-80363435D01*
X121957059Y-80363435D01*
X121963574Y-80374973D01*
X122067059Y-80491374D01*
X122284924Y-80720988D01*
X122603288Y-81049618D01*
X123008269Y-81463070D01*
X123485985Y-81947147D01*
X124022556Y-82487653D01*
X124604098Y-83070393D01*
X127281604Y-85746662D01*
X127281715Y-85746773D01*
X130118989Y-82909499D01*
X129147087Y-82476347D01*
X127980017Y-81983417D01*
X126837831Y-81562992D01*
X125635386Y-81185244D01*
X125579419Y-81169110D01*
X125180952Y-81060871D01*
X124705913Y-80940429D01*
X124186687Y-80815019D01*
X123655662Y-80691877D01*
X123145223Y-80578238D01*
X122687757Y-80481339D01*
X122315650Y-80408415D01*
X122061288Y-80366702D01*
X121957059Y-80363435D01*
X118728138Y-80363435D01*
X118797324Y-80262082D01*
X118848834Y-80098298D01*
X118799231Y-79988281D01*
X118653324Y-79918953D01*
X118415924Y-79877236D01*
X118091840Y-79850049D01*
X117685883Y-79824315D01*
X116698063Y-79759169D01*
X116381289Y-80660325D01*
X116284428Y-80927980D01*
X116156969Y-81254892D01*
X116057999Y-81478576D01*
X116003270Y-81561482D01*
X115986380Y-81552762D01*
X115860385Y-81446281D01*
X115637645Y-81237733D01*
X115343440Y-80951152D01*
X115003050Y-80610573D01*
X114064074Y-79659664D01*
X111857274Y-79717632D01*
X111470482Y-79728879D01*
X110878641Y-79750586D01*
X110366325Y-79774914D01*
X109960679Y-79800309D01*
X109688852Y-79825216D01*
X109577991Y-79848083D01*
X109577396Y-79848913D01*
X100075515Y-79848913D01*
X101162943Y-79460448D01*
X103353144Y-78852786D01*
X104672931Y-78581299D01*
X105663286Y-78377577D01*
X107431451Y-78129054D01*
X108090370Y-78036440D01*
X108455426Y-77998101D01*
X110329003Y-77853091D01*
X112306188Y-77778628D01*
X114064074Y-77774138D01*
X114340158Y-77773433D01*
X116384089Y-77836225D01*
X118391157Y-77965724D01*
X120314538Y-78160649D01*
X120320137Y-78161458D01*
X121957059Y-78397996D01*
X122107407Y-78419721D01*
G37*
G36*
X135541779Y-98884757D02*
G01*
X135546352Y-98897467D01*
X135694417Y-99309234D01*
X135816253Y-99648548D01*
X135899355Y-99880553D01*
X135931220Y-99970393D01*
X135931175Y-99971577D01*
X135898862Y-100074585D01*
X135816109Y-100317521D01*
X135694783Y-100665973D01*
X135546746Y-101085528D01*
X135157196Y-102183232D01*
X132973964Y-100000000D01*
X135157413Y-97816551D01*
X135541779Y-98884757D01*
G37*
G36*
X129115644Y-91766467D02*
G01*
X129205270Y-91955770D01*
X129328507Y-92258891D01*
X129469602Y-92638704D01*
X129561367Y-92904561D01*
X129684224Y-93292654D01*
X129769813Y-93604871D01*
X129803611Y-93791111D01*
X129788070Y-93913275D01*
X129718030Y-94196039D01*
X129604194Y-94570692D01*
X129460311Y-94989248D01*
X129110249Y-95952199D01*
X126955361Y-93791181D01*
X127987002Y-92756331D01*
X128193193Y-92550738D01*
X128528387Y-92222226D01*
X128804105Y-91959274D01*
X128996194Y-91784739D01*
X129080499Y-91721482D01*
X129115644Y-91766467D01*
G37*
G36*
X129460311Y-105010752D02*
G01*
X129572973Y-105328681D01*
X129697022Y-105701291D01*
X129782659Y-105986448D01*
X129815927Y-106139845D01*
X129815950Y-106140627D01*
X129789177Y-106294789D01*
X129714487Y-106566214D01*
X129606511Y-106912425D01*
X129479879Y-107290943D01*
X129349219Y-107659290D01*
X129229161Y-107974987D01*
X129134335Y-108195556D01*
X129079370Y-108278519D01*
X129046694Y-108257848D01*
X128898969Y-108129000D01*
X128657029Y-107901784D01*
X128344999Y-107599056D01*
X127987002Y-107243669D01*
X126955361Y-106208819D01*
X129110249Y-104047801D01*
X129460311Y-105010752D01*
G37*
G36*
X121871707Y-97975830D02*
G01*
X121962695Y-98165322D01*
X122088185Y-98468236D01*
X122232207Y-98847593D01*
X122328116Y-99118221D01*
X122452532Y-99497582D01*
X122538831Y-99797337D01*
X122572440Y-99969431D01*
X122551810Y-100104294D01*
X122481351Y-100368874D01*
X122375270Y-100710192D01*
X122248578Y-101085440D01*
X122116287Y-101451814D01*
X121993408Y-101766508D01*
X121894953Y-101986715D01*
X121835932Y-102069630D01*
X121803215Y-102048969D01*
X121655418Y-101920133D01*
X121413417Y-101692925D01*
X121101345Y-101390200D01*
X120743333Y-101034815D01*
X119711727Y-100000000D01*
X120743333Y-98965185D01*
X120949531Y-98759572D01*
X121284621Y-98431081D01*
X121560174Y-98168146D01*
X121752055Y-97993624D01*
X121836125Y-97930370D01*
X121871707Y-97975830D01*
G37*
G36*
X122606549Y-84980103D02*
G01*
X122695957Y-85197663D01*
X122820801Y-85523146D01*
X122965931Y-85917909D01*
X123079593Y-86236503D01*
X123201882Y-86588593D01*
X123286939Y-86844881D01*
X123321047Y-86964925D01*
X123300628Y-87066729D01*
X123229442Y-87308219D01*
X123122089Y-87641208D01*
X122994003Y-88020860D01*
X122860615Y-88402336D01*
X122737359Y-88740800D01*
X122639666Y-88991413D01*
X122582969Y-89109339D01*
X122539689Y-89095643D01*
X122381366Y-88975780D01*
X122131034Y-88755761D01*
X121811934Y-88456284D01*
X121447307Y-88098043D01*
X120370106Y-87017778D01*
X121445741Y-85939083D01*
X121695682Y-85691114D01*
X122030790Y-85367926D01*
X122303746Y-85115875D01*
X122491440Y-84956107D01*
X122570758Y-84909770D01*
X122606549Y-84980103D01*
G37*
G36*
X122628112Y-111148283D02*
G01*
X122720128Y-111367543D01*
X122845342Y-111694396D01*
X122987887Y-112088519D01*
X123093257Y-112390296D01*
X123211353Y-112735992D01*
X123292981Y-112984239D01*
X123324791Y-113095148D01*
X123302908Y-113187508D01*
X123218535Y-113450028D01*
X123074124Y-113869755D01*
X122873159Y-114436590D01*
X122619124Y-115140437D01*
X122607916Y-115153803D01*
X122499556Y-115116853D01*
X122280169Y-114948045D01*
X121945659Y-114643965D01*
X121491929Y-114201199D01*
X120414012Y-113126340D01*
X121469259Y-112068090D01*
X121701597Y-111838369D01*
X122037327Y-111518992D01*
X122313189Y-111272003D01*
X122505489Y-111118308D01*
X122590535Y-111078809D01*
X122628112Y-111148283D01*
G37*
G36*
X115860793Y-91224915D02*
G01*
X115942666Y-91435310D01*
X116061453Y-91754840D01*
X116202576Y-92144815D01*
X116308851Y-92445399D01*
X116430078Y-92798166D01*
X116514692Y-93056672D01*
X116548875Y-93179630D01*
X116530006Y-93276884D01*
X116459988Y-93515872D01*
X116353102Y-93847393D01*
X116224895Y-94226455D01*
X116090917Y-94608064D01*
X115966716Y-94947225D01*
X115867840Y-95198944D01*
X115809839Y-95318228D01*
X115771278Y-95307566D01*
X115617893Y-95193358D01*
X115371866Y-94978266D01*
X115056707Y-94683168D01*
X114695926Y-94328947D01*
X113640678Y-93270697D01*
X114719404Y-92195031D01*
X114970246Y-91946981D01*
X115304083Y-91624026D01*
X115574235Y-91371364D01*
X115757870Y-91210194D01*
X115832157Y-91161720D01*
X115860793Y-91224915D01*
G37*
G36*
X115860793Y-104771582D02*
G01*
X115942666Y-104981976D01*
X116061453Y-105301506D01*
X116202576Y-105691482D01*
X116309070Y-105992525D01*
X116429990Y-106343738D01*
X116514220Y-106600049D01*
X116548003Y-106720480D01*
X116527507Y-106822280D01*
X116456231Y-107063812D01*
X116348792Y-107396848D01*
X116220632Y-107776542D01*
X116087194Y-108158042D01*
X115963920Y-108496500D01*
X115866253Y-108747067D01*
X115809635Y-108864895D01*
X115771114Y-108854231D01*
X115617791Y-108740020D01*
X115371815Y-108524927D01*
X115056691Y-108229832D01*
X114695926Y-107875614D01*
X113640678Y-106817364D01*
X114719404Y-105741698D01*
X114970246Y-105493648D01*
X115304083Y-105170693D01*
X115574235Y-104918030D01*
X115757870Y-104756861D01*
X115832157Y-104708386D01*
X115860793Y-104771582D01*
G37*
G36*
X109901606Y-84965715D02*
G01*
X110011807Y-85288014D01*
X110132182Y-85662270D01*
X110215398Y-85948411D01*
X110247931Y-86102067D01*
X110247960Y-86102957D01*
X110221366Y-86257016D01*
X110146843Y-86528383D01*
X110039011Y-86874571D01*
X109912492Y-87253091D01*
X109781906Y-87621456D01*
X109661875Y-87937178D01*
X109567020Y-88157769D01*
X109511962Y-88240741D01*
X109479183Y-88219987D01*
X109331337Y-88091010D01*
X109089293Y-87863683D01*
X108777167Y-87560854D01*
X108419079Y-87205373D01*
X107386921Y-86170005D01*
X108474172Y-85082755D01*
X109561423Y-83995504D01*
X109901606Y-84965715D01*
G37*
G36*
X108596280Y-97987950D02*
G01*
X108685732Y-98190560D01*
X108810009Y-98504858D01*
X108954313Y-98894734D01*
X109068978Y-99217893D01*
X109190705Y-99571930D01*
X109274988Y-99830492D01*
X109308244Y-99952963D01*
X109308110Y-99962337D01*
X109273974Y-100109823D01*
X109192825Y-100375266D01*
X109079674Y-100716248D01*
X108949531Y-101090352D01*
X108817405Y-101455160D01*
X108698307Y-101768253D01*
X108607247Y-101987216D01*
X108559235Y-102069630D01*
X108528720Y-102048779D01*
X108384659Y-101919774D01*
X108145791Y-101692571D01*
X107835930Y-101389981D01*
X107478889Y-101034815D01*
X106447283Y-100000000D01*
X107478889Y-98965185D01*
X107685802Y-98758614D01*
X108018989Y-98430486D01*
X108291482Y-98167882D01*
X108479468Y-97993609D01*
X108559136Y-97930475D01*
X108596280Y-97987950D01*
G37*
G36*
X109901606Y-112811641D02*
G01*
X110011118Y-113132733D01*
X110131826Y-113511270D01*
X110215295Y-113803498D01*
X110247931Y-113964184D01*
X110223579Y-114111296D01*
X110150360Y-114379711D01*
X110042923Y-114723738D01*
X109916071Y-115100765D01*
X109784607Y-115468181D01*
X109663334Y-115783377D01*
X109567054Y-116003743D01*
X109510571Y-116086667D01*
X109478041Y-116065891D01*
X109330620Y-115936895D01*
X109088931Y-115709568D01*
X108777057Y-115406755D01*
X108419079Y-115051299D01*
X107386921Y-114015931D01*
X108474172Y-112928681D01*
X109561423Y-111841430D01*
X109901606Y-112811641D01*
G37*
G36*
X102891425Y-92113315D02*
G01*
X103034580Y-92533832D01*
X103147214Y-92905332D01*
X103215713Y-93180994D01*
X103228874Y-93320741D01*
X103196153Y-93419766D01*
X103110562Y-93671832D01*
X102989584Y-94024566D01*
X102848005Y-94434722D01*
X102511185Y-95407591D01*
X101420722Y-94317129D01*
X100330260Y-93226667D01*
X102509926Y-91047001D01*
X102891425Y-92113315D01*
G37*
G36*
X102891425Y-105659982D02*
G01*
X103034580Y-106080499D01*
X103147214Y-106451999D01*
X103215713Y-106727660D01*
X103228874Y-106867407D01*
X103196153Y-106966433D01*
X103110562Y-107218499D01*
X102989584Y-107571233D01*
X102848005Y-107981388D01*
X102511185Y-108954258D01*
X101420722Y-107863796D01*
X100330260Y-106773333D01*
X101420093Y-105683501D01*
X102509926Y-104593668D01*
X102891425Y-105659982D01*
G37*
G36*
X95651866Y-98886571D02*
G01*
X95652249Y-98887632D01*
X95799739Y-99308772D01*
X95916613Y-99667725D01*
X95991096Y-99926483D01*
X96011409Y-100047037D01*
X95977806Y-100149630D01*
X95892806Y-100397218D01*
X95770869Y-100747229D01*
X95625666Y-101160211D01*
X95265868Y-102179312D01*
X93086556Y-100000000D01*
X94176467Y-98910090D01*
X95266377Y-97820179D01*
X95651866Y-98886571D01*
G37*
D12*
G04 #@! TO.C,J3*
X136100000Y-87900000D02*
X130600000Y-87900000D01*
X130600000Y-87900000D02*
X130600000Y-89850000D01*
X130600000Y-89850000D02*
X136100000Y-89850000D01*
X136100000Y-89850000D02*
X136100000Y-87900000D01*
X134750000Y-90100000D02*
X135050000Y-90400000D01*
X135050000Y-90400000D02*
X134450000Y-90400000D01*
X134450000Y-90400000D02*
X134750000Y-90100000D01*
G04 #@! TO.C,J4*
X120980000Y-83610000D02*
X120980000Y-89110000D01*
X120980000Y-89110000D02*
X122930000Y-89110000D01*
X122930000Y-89110000D02*
X122930000Y-83610000D01*
X122930000Y-83610000D02*
X120980000Y-83610000D01*
X123180000Y-84960000D02*
X123480000Y-84660000D01*
X123480000Y-84660000D02*
X123480000Y-85260000D01*
X123480000Y-85260000D02*
X123180000Y-84960000D01*
G04 #@! TD*
M02*
