M48
; DRILL file {KiCad 6.0.10-86aedd382b~118~ubuntu22.04.1} date Mon 30 Jan 2023 03:30:28 PM
; FORMAT={-:-/ absolute / metric / decimal}
; #@! TF.CreationDate,2023-01-30T15:30:28-08:00
; #@! TF.GenerationSoftware,Kicad,Pcbnew,6.0.10-86aedd382b~118~ubuntu22.04.1
; #@! TF.FileFunction,MixedPlating,1,2
FMAT,2
METRIC
; #@! TA.AperFunction,Plated,PTH,ViaDrill
T1C0.400
; #@! TA.AperFunction,Plated,PTH,ComponentDrill
T2C1.000
%
G90
G05
T1
X67.31Y-100.0
X90.17Y-88.9
X90.805Y-111.125
X92.71Y-88.9
X95.25Y-88.9
X96.52Y-111.125
X97.155Y-89.535
X99.06Y-89.535
X99.06Y-106.68
X99.06Y-111.125
X103.505Y-81.28
X103.543Y-90.131
X104.775Y-81.28
X104.775Y-87.63
X104.775Y-118.745
X104.775Y-120.015
X106.022Y-116.228
X106.045Y-93.345
X107.315Y-116.84
X107.315Y-120.904
X108.585Y-81.915
X108.585Y-83.185
X108.734Y-85.725
X109.22Y-86.995
X109.855Y-81.28
X109.855Y-109.22
X114.3Y-111.76
X115.57Y-109.22
X116.205Y-117.475
X119.638Y-85.594
X122.555Y-111.76
X122.555Y-114.3
X123.19Y-80.01
X123.19Y-82.55
X123.19Y-92.71
X123.825Y-116.84
X124.37Y-85.725
X124.46Y-83.82
X124.46Y-87.63
X126.365Y-82.804
X126.365Y-87.63
X126.365Y-119.38
X128.27Y-118.11
X128.905Y-116.84
X129.54Y-114.3
X130.175Y-113.03
X131.445Y-92.075
X132.08Y-109.855
X133.35Y-87.63
X133.35Y-90.17
X134.62Y-109.855
X137.16Y-90.805
T2
X91.44Y-91.11
X91.44Y-93.65
X91.44Y-96.19
X91.44Y-98.73
X91.44Y-101.27
X91.44Y-103.81
X91.44Y-106.35
X91.44Y-108.89
X93.98Y-91.11
X93.98Y-93.65
X93.98Y-96.19
X93.98Y-98.73
X93.98Y-101.27
X93.98Y-103.81
X93.98Y-106.35
X93.98Y-108.89
X134.62Y-93.65
X134.62Y-96.19
X134.62Y-98.73
X134.62Y-101.27
X134.62Y-103.81
X134.62Y-106.35
X137.16Y-93.65
X137.16Y-96.19
X137.16Y-98.73
X137.16Y-101.27
X137.16Y-103.81
X137.16Y-106.35
T0
M30
