G04 #@! TF.GenerationSoftware,KiCad,Pcbnew,6.0.10-86aedd382b~118~ubuntu22.04.1*
G04 #@! TF.CreationDate,2023-01-30T15:30:24-08:00*
G04 #@! TF.ProjectId,led-panel-single,6c65642d-7061-46e6-956c-2d73696e676c,rev?*
G04 #@! TF.SameCoordinates,Original*
G04 #@! TF.FileFunction,Legend,Top*
G04 #@! TF.FilePolarity,Positive*
%FSLAX46Y46*%
G04 Gerber Fmt 4.6, Leading zero omitted, Abs format (unit mm)*
G04 Created by KiCad (PCBNEW 6.0.10-86aedd382b~118~ubuntu22.04.1) date 2023-01-30 15:30:24*
%MOMM*%
%LPD*%
G01*
G04 APERTURE LIST*
%ADD10C,0.250000*%
%ADD11C,0.300000*%
%ADD12C,0.120000*%
%ADD13C,1.000000*%
G04 APERTURE END LIST*
D10*
X122102571Y-87701380D02*
X122007333Y-87653761D01*
X121959714Y-87606142D01*
X121912095Y-87510904D01*
X121912095Y-87225190D01*
X121959714Y-87129952D01*
X122007333Y-87082333D01*
X122102571Y-87034714D01*
X122245428Y-87034714D01*
X122340666Y-87082333D01*
X122388285Y-87129952D01*
X122435904Y-87225190D01*
X122435904Y-87510904D01*
X122388285Y-87606142D01*
X122340666Y-87653761D01*
X122245428Y-87701380D01*
X122102571Y-87701380D01*
X128706571Y-107386380D02*
X128611333Y-107338761D01*
X128563714Y-107291142D01*
X128516095Y-107195904D01*
X128516095Y-106910190D01*
X128563714Y-106814952D01*
X128611333Y-106767333D01*
X128706571Y-106719714D01*
X128849428Y-106719714D01*
X128944666Y-106767333D01*
X128992285Y-106814952D01*
X129039904Y-106910190D01*
X129039904Y-107195904D01*
X128992285Y-107291142D01*
X128944666Y-107338761D01*
X128849428Y-107386380D01*
X128706571Y-107386380D01*
X112704571Y-121102380D02*
X112609333Y-121054761D01*
X112561714Y-121007142D01*
X112514095Y-120911904D01*
X112514095Y-120626190D01*
X112561714Y-120530952D01*
X112609333Y-120483333D01*
X112704571Y-120435714D01*
X112847428Y-120435714D01*
X112942666Y-120483333D01*
X112990285Y-120530952D01*
X113037904Y-120626190D01*
X113037904Y-120911904D01*
X112990285Y-121007142D01*
X112942666Y-121054761D01*
X112847428Y-121102380D01*
X112704571Y-121102380D01*
X108640571Y-80970380D02*
X108545333Y-80922761D01*
X108497714Y-80875142D01*
X108450095Y-80779904D01*
X108450095Y-80494190D01*
X108497714Y-80398952D01*
X108545333Y-80351333D01*
X108640571Y-80303714D01*
X108783428Y-80303714D01*
X108878666Y-80351333D01*
X108926285Y-80398952D01*
X108973904Y-80494190D01*
X108973904Y-80779904D01*
X108926285Y-80875142D01*
X108878666Y-80922761D01*
X108783428Y-80970380D01*
X108640571Y-80970380D01*
X64628571Y-98263571D02*
X64628571Y-96763571D01*
X64628571Y-97477857D02*
X65485714Y-97477857D01*
X65485714Y-98263571D02*
X65485714Y-96763571D01*
X66199999Y-96763571D02*
X66199999Y-97977857D01*
X66271428Y-98120714D01*
X66342857Y-98192142D01*
X66485714Y-98263571D01*
X66771428Y-98263571D01*
X66914285Y-98192142D01*
X66985714Y-98120714D01*
X67057142Y-97977857D01*
X67057142Y-96763571D01*
X68271428Y-97477857D02*
X68485714Y-97549285D01*
X68557142Y-97620714D01*
X68628571Y-97763571D01*
X68628571Y-97977857D01*
X68557142Y-98120714D01*
X68485714Y-98192142D01*
X68342857Y-98263571D01*
X67771428Y-98263571D01*
X67771428Y-96763571D01*
X68271428Y-96763571D01*
X68414285Y-96835000D01*
X68485714Y-96906428D01*
X68557142Y-97049285D01*
X68557142Y-97192142D01*
X68485714Y-97335000D01*
X68414285Y-97406428D01*
X68271428Y-97477857D01*
X67771428Y-97477857D01*
X69128571Y-96763571D02*
X70128571Y-96763571D01*
X69485714Y-98263571D01*
X71414285Y-96763571D02*
X70700000Y-96763571D01*
X70628571Y-97477857D01*
X70700000Y-97406428D01*
X70842857Y-97335000D01*
X71200000Y-97335000D01*
X71342857Y-97406428D01*
X71414285Y-97477857D01*
X71485714Y-97620714D01*
X71485714Y-97977857D01*
X71414285Y-98120714D01*
X71342857Y-98192142D01*
X71200000Y-98263571D01*
X70842857Y-98263571D01*
X70700000Y-98192142D01*
X70628571Y-98120714D01*
X73271428Y-98263571D02*
X73271428Y-96763571D01*
X73842857Y-96763571D01*
X73985714Y-96835000D01*
X74057142Y-96906428D01*
X74128571Y-97049285D01*
X74128571Y-97263571D01*
X74057142Y-97406428D01*
X73985714Y-97477857D01*
X73842857Y-97549285D01*
X73271428Y-97549285D01*
X74771428Y-98263571D02*
X74771428Y-96763571D01*
X75271428Y-97835000D01*
X75771428Y-96763571D01*
X75771428Y-98263571D01*
X76771428Y-96763571D02*
X77057142Y-96763571D01*
X77200000Y-96835000D01*
X77342857Y-96977857D01*
X77414285Y-97263571D01*
X77414285Y-97763571D01*
X77342857Y-98049285D01*
X77200000Y-98192142D01*
X77057142Y-98263571D01*
X76771428Y-98263571D01*
X76628571Y-98192142D01*
X76485714Y-98049285D01*
X76414285Y-97763571D01*
X76414285Y-97263571D01*
X76485714Y-96977857D01*
X76628571Y-96835000D01*
X76771428Y-96763571D01*
X78057142Y-98263571D02*
X78057142Y-96763571D01*
X78414285Y-96763571D01*
X78628571Y-96835000D01*
X78771428Y-96977857D01*
X78842857Y-97120714D01*
X78914285Y-97406428D01*
X78914285Y-97620714D01*
X78842857Y-97906428D01*
X78771428Y-98049285D01*
X78628571Y-98192142D01*
X78414285Y-98263571D01*
X78057142Y-98263571D01*
X80628571Y-98192142D02*
X80842857Y-98263571D01*
X81200000Y-98263571D01*
X81342857Y-98192142D01*
X81414285Y-98120714D01*
X81485714Y-97977857D01*
X81485714Y-97835000D01*
X81414285Y-97692142D01*
X81342857Y-97620714D01*
X81200000Y-97549285D01*
X80914285Y-97477857D01*
X80771428Y-97406428D01*
X80700000Y-97335000D01*
X80628571Y-97192142D01*
X80628571Y-97049285D01*
X80700000Y-96906428D01*
X80771428Y-96835000D01*
X80914285Y-96763571D01*
X81271428Y-96763571D01*
X81485714Y-96835000D01*
X82128571Y-98263571D02*
X82128571Y-96763571D01*
X82842857Y-98263571D02*
X82842857Y-96763571D01*
X83700000Y-98263571D01*
X83700000Y-96763571D01*
X85200000Y-96835000D02*
X85057142Y-96763571D01*
X84842857Y-96763571D01*
X84628571Y-96835000D01*
X84485714Y-96977857D01*
X84414285Y-97120714D01*
X84342857Y-97406428D01*
X84342857Y-97620714D01*
X84414285Y-97906428D01*
X84485714Y-98049285D01*
X84628571Y-98192142D01*
X84842857Y-98263571D01*
X84985714Y-98263571D01*
X85200000Y-98192142D01*
X85271428Y-98120714D01*
X85271428Y-97620714D01*
X84985714Y-97620714D01*
X86628571Y-98263571D02*
X85914285Y-98263571D01*
X85914285Y-96763571D01*
X87128571Y-97477857D02*
X87628571Y-97477857D01*
X87842857Y-98263571D02*
X87128571Y-98263571D01*
X87128571Y-96763571D01*
X87842857Y-96763571D01*
X70521428Y-99964285D02*
X70450000Y-99892857D01*
X70307142Y-99821428D01*
X70164285Y-99821428D01*
X70021428Y-99892857D01*
X69950000Y-99964285D01*
X69878571Y-100107142D01*
X69878571Y-100250000D01*
X69950000Y-100392857D01*
X70021428Y-100464285D01*
X70164285Y-100535714D01*
X70307142Y-100535714D01*
X70450000Y-100464285D01*
X70521428Y-100392857D01*
X70521428Y-99821428D02*
X70521428Y-100392857D01*
X70592857Y-100464285D01*
X70664285Y-100464285D01*
X70807142Y-100392857D01*
X70878571Y-100250000D01*
X70878571Y-99892857D01*
X70735714Y-99678571D01*
X70521428Y-99535714D01*
X70235714Y-99464285D01*
X69950000Y-99535714D01*
X69735714Y-99678571D01*
X69592857Y-99892857D01*
X69521428Y-100178571D01*
X69592857Y-100464285D01*
X69735714Y-100678571D01*
X69950000Y-100821428D01*
X70235714Y-100892857D01*
X70521428Y-100821428D01*
X70735714Y-100678571D01*
X71307142Y-99178571D02*
X72164285Y-99178571D01*
X71735714Y-100678571D02*
X71735714Y-99178571D01*
X72878571Y-100678571D02*
X72735714Y-100607142D01*
X72664285Y-100535714D01*
X72592857Y-100392857D01*
X72592857Y-99964285D01*
X72664285Y-99821428D01*
X72735714Y-99750000D01*
X72878571Y-99678571D01*
X73092857Y-99678571D01*
X73235714Y-99750000D01*
X73307142Y-99821428D01*
X73378571Y-99964285D01*
X73378571Y-100392857D01*
X73307142Y-100535714D01*
X73235714Y-100607142D01*
X73092857Y-100678571D01*
X72878571Y-100678571D01*
X74021428Y-100678571D02*
X74021428Y-99678571D01*
X74021428Y-99821428D02*
X74092857Y-99750000D01*
X74235714Y-99678571D01*
X74450000Y-99678571D01*
X74592857Y-99750000D01*
X74664285Y-99892857D01*
X74664285Y-100678571D01*
X74664285Y-99892857D02*
X74735714Y-99750000D01*
X74878571Y-99678571D01*
X75092857Y-99678571D01*
X75235714Y-99750000D01*
X75307142Y-99892857D01*
X75307142Y-100678571D01*
X76021428Y-100678571D02*
X76021428Y-99178571D01*
X76878571Y-100678571D02*
X76235714Y-99821428D01*
X76878571Y-99178571D02*
X76021428Y-100035714D01*
X78092857Y-100607142D02*
X77950000Y-100678571D01*
X77664285Y-100678571D01*
X77521428Y-100607142D01*
X77450000Y-100464285D01*
X77450000Y-99892857D01*
X77521428Y-99750000D01*
X77664285Y-99678571D01*
X77950000Y-99678571D01*
X78092857Y-99750000D01*
X78164285Y-99892857D01*
X78164285Y-100035714D01*
X77450000Y-100178571D01*
X79450000Y-100678571D02*
X79450000Y-99178571D01*
X79450000Y-100607142D02*
X79307142Y-100678571D01*
X79021428Y-100678571D01*
X78878571Y-100607142D01*
X78807142Y-100535714D01*
X78735714Y-100392857D01*
X78735714Y-99964285D01*
X78807142Y-99821428D01*
X78878571Y-99750000D01*
X79021428Y-99678571D01*
X79307142Y-99678571D01*
X79450000Y-99750000D01*
X80807142Y-100678571D02*
X80807142Y-99178571D01*
X80807142Y-100607142D02*
X80664285Y-100678571D01*
X80378571Y-100678571D01*
X80235714Y-100607142D01*
X80164285Y-100535714D01*
X80092857Y-100392857D01*
X80092857Y-99964285D01*
X80164285Y-99821428D01*
X80235714Y-99750000D01*
X80378571Y-99678571D01*
X80664285Y-99678571D01*
X80807142Y-99750000D01*
X81521428Y-100678571D02*
X81521428Y-99678571D01*
X81521428Y-99178571D02*
X81450000Y-99250000D01*
X81521428Y-99321428D01*
X81592857Y-99250000D01*
X81521428Y-99178571D01*
X81521428Y-99321428D01*
X82807142Y-100607142D02*
X82664285Y-100678571D01*
X82378571Y-100678571D01*
X82235714Y-100607142D01*
X82164285Y-100464285D01*
X82164285Y-99892857D01*
X82235714Y-99750000D01*
X82378571Y-99678571D01*
X82664285Y-99678571D01*
X82807142Y-99750000D01*
X82878571Y-99892857D01*
X82878571Y-100035714D01*
X82164285Y-100178571D01*
X71628571Y-101593571D02*
X71628571Y-102665000D01*
X71557142Y-102879285D01*
X71414285Y-103022142D01*
X71200000Y-103093571D01*
X71057142Y-103093571D01*
X72985714Y-103093571D02*
X72985714Y-102307857D01*
X72914285Y-102165000D01*
X72771428Y-102093571D01*
X72485714Y-102093571D01*
X72342857Y-102165000D01*
X72985714Y-103022142D02*
X72842857Y-103093571D01*
X72485714Y-103093571D01*
X72342857Y-103022142D01*
X72271428Y-102879285D01*
X72271428Y-102736428D01*
X72342857Y-102593571D01*
X72485714Y-102522142D01*
X72842857Y-102522142D01*
X72985714Y-102450714D01*
X73700000Y-102093571D02*
X73700000Y-103093571D01*
X73700000Y-102236428D02*
X73771428Y-102165000D01*
X73914285Y-102093571D01*
X74128571Y-102093571D01*
X74271428Y-102165000D01*
X74342857Y-102307857D01*
X74342857Y-103093571D01*
X76128571Y-101736428D02*
X76200000Y-101665000D01*
X76342857Y-101593571D01*
X76700000Y-101593571D01*
X76842857Y-101665000D01*
X76914285Y-101736428D01*
X76985714Y-101879285D01*
X76985714Y-102022142D01*
X76914285Y-102236428D01*
X76057142Y-103093571D01*
X76985714Y-103093571D01*
X77914285Y-101593571D02*
X78057142Y-101593571D01*
X78200000Y-101665000D01*
X78271428Y-101736428D01*
X78342857Y-101879285D01*
X78414285Y-102165000D01*
X78414285Y-102522142D01*
X78342857Y-102807857D01*
X78271428Y-102950714D01*
X78200000Y-103022142D01*
X78057142Y-103093571D01*
X77914285Y-103093571D01*
X77771428Y-103022142D01*
X77700000Y-102950714D01*
X77628571Y-102807857D01*
X77557142Y-102522142D01*
X77557142Y-102165000D01*
X77628571Y-101879285D01*
X77700000Y-101736428D01*
X77771428Y-101665000D01*
X77914285Y-101593571D01*
X78985714Y-101736428D02*
X79057142Y-101665000D01*
X79200000Y-101593571D01*
X79557142Y-101593571D01*
X79700000Y-101665000D01*
X79771428Y-101736428D01*
X79842857Y-101879285D01*
X79842857Y-102022142D01*
X79771428Y-102236428D01*
X78914285Y-103093571D01*
X79842857Y-103093571D01*
X80342857Y-101593571D02*
X81271428Y-101593571D01*
X80771428Y-102165000D01*
X80985714Y-102165000D01*
X81128571Y-102236428D01*
X81200000Y-102307857D01*
X81271428Y-102450714D01*
X81271428Y-102807857D01*
X81200000Y-102950714D01*
X81128571Y-103022142D01*
X80985714Y-103093571D01*
X80557142Y-103093571D01*
X80414285Y-103022142D01*
X80342857Y-102950714D01*
D11*
X132603809Y-95012000D02*
X132413333Y-94916761D01*
X132127619Y-94916761D01*
X131841904Y-95012000D01*
X131651428Y-95202476D01*
X131556190Y-95392952D01*
X131460952Y-95773904D01*
X131460952Y-96059619D01*
X131556190Y-96440571D01*
X131651428Y-96631047D01*
X131841904Y-96821523D01*
X132127619Y-96916761D01*
X132318095Y-96916761D01*
X132603809Y-96821523D01*
X132699047Y-96726285D01*
X132699047Y-96059619D01*
X132318095Y-96059619D01*
X131318095Y-93614857D02*
X132841904Y-93614857D01*
X132080000Y-94376761D02*
X132080000Y-92852952D01*
X130048095Y-82692857D02*
X131571904Y-82692857D01*
X130810000Y-83454761D02*
X130810000Y-81930952D01*
D10*
G04 #@! TO.C,R3*
X123956000Y-80942571D02*
X123456000Y-80228285D01*
X123098857Y-80942571D02*
X123098857Y-79442571D01*
X123670285Y-79442571D01*
X123813142Y-79514000D01*
X123884571Y-79585428D01*
X123956000Y-79728285D01*
X123956000Y-79942571D01*
X123884571Y-80085428D01*
X123813142Y-80156857D01*
X123670285Y-80228285D01*
X123098857Y-80228285D01*
X124456000Y-79442571D02*
X125384571Y-79442571D01*
X124884571Y-80014000D01*
X125098857Y-80014000D01*
X125241714Y-80085428D01*
X125313142Y-80156857D01*
X125384571Y-80299714D01*
X125384571Y-80656857D01*
X125313142Y-80799714D01*
X125241714Y-80871142D01*
X125098857Y-80942571D01*
X124670285Y-80942571D01*
X124527428Y-80871142D01*
X124456000Y-80799714D01*
G04 #@! TO.C,R5*
X98048000Y-86784571D02*
X97548000Y-86070285D01*
X97190857Y-86784571D02*
X97190857Y-85284571D01*
X97762285Y-85284571D01*
X97905142Y-85356000D01*
X97976571Y-85427428D01*
X98048000Y-85570285D01*
X98048000Y-85784571D01*
X97976571Y-85927428D01*
X97905142Y-85998857D01*
X97762285Y-86070285D01*
X97190857Y-86070285D01*
X99405142Y-85284571D02*
X98690857Y-85284571D01*
X98619428Y-85998857D01*
X98690857Y-85927428D01*
X98833714Y-85856000D01*
X99190857Y-85856000D01*
X99333714Y-85927428D01*
X99405142Y-85998857D01*
X99476571Y-86141714D01*
X99476571Y-86498857D01*
X99405142Y-86641714D01*
X99333714Y-86713142D01*
X99190857Y-86784571D01*
X98833714Y-86784571D01*
X98690857Y-86713142D01*
X98619428Y-86641714D01*
G04 #@! TO.C,R7*
X104500785Y-91868571D02*
X104000785Y-91154285D01*
X103643642Y-91868571D02*
X103643642Y-90368571D01*
X104215071Y-90368571D01*
X104357928Y-90440000D01*
X104429357Y-90511428D01*
X104500785Y-90654285D01*
X104500785Y-90868571D01*
X104429357Y-91011428D01*
X104357928Y-91082857D01*
X104215071Y-91154285D01*
X103643642Y-91154285D01*
X105000785Y-90368571D02*
X106000785Y-90368571D01*
X105357928Y-91868571D01*
G04 #@! TO.C,J5*
X91956000Y-86554571D02*
X91956000Y-87626000D01*
X91884571Y-87840285D01*
X91741714Y-87983142D01*
X91527428Y-88054571D01*
X91384571Y-88054571D01*
X93384571Y-86554571D02*
X92670285Y-86554571D01*
X92598857Y-87268857D01*
X92670285Y-87197428D01*
X92813142Y-87126000D01*
X93170285Y-87126000D01*
X93313142Y-87197428D01*
X93384571Y-87268857D01*
X93456000Y-87411714D01*
X93456000Y-87768857D01*
X93384571Y-87911714D01*
X93313142Y-87983142D01*
X93170285Y-88054571D01*
X92813142Y-88054571D01*
X92670285Y-87983142D01*
X92598857Y-87911714D01*
G04 #@! TO.C,U4*
X110617142Y-110430571D02*
X110617142Y-111644857D01*
X110688571Y-111787714D01*
X110760000Y-111859142D01*
X110902857Y-111930571D01*
X111188571Y-111930571D01*
X111331428Y-111859142D01*
X111402857Y-111787714D01*
X111474285Y-111644857D01*
X111474285Y-110430571D01*
X112831428Y-110930571D02*
X112831428Y-111930571D01*
X112474285Y-110359142D02*
X112117142Y-111430571D01*
X113045714Y-111430571D01*
G04 #@! TO.C,R10*
X104500785Y-99488571D02*
X104000785Y-98774285D01*
X103643642Y-99488571D02*
X103643642Y-97988571D01*
X104215071Y-97988571D01*
X104357928Y-98060000D01*
X104429357Y-98131428D01*
X104500785Y-98274285D01*
X104500785Y-98488571D01*
X104429357Y-98631428D01*
X104357928Y-98702857D01*
X104215071Y-98774285D01*
X103643642Y-98774285D01*
X105929357Y-99488571D02*
X105072214Y-99488571D01*
X105500785Y-99488571D02*
X105500785Y-97988571D01*
X105357928Y-98202857D01*
X105215071Y-98345714D01*
X105072214Y-98417142D01*
X106857928Y-97988571D02*
X107000785Y-97988571D01*
X107143642Y-98060000D01*
X107215071Y-98131428D01*
X107286500Y-98274285D01*
X107357928Y-98560000D01*
X107357928Y-98917142D01*
X107286500Y-99202857D01*
X107215071Y-99345714D01*
X107143642Y-99417142D01*
X107000785Y-99488571D01*
X106857928Y-99488571D01*
X106715071Y-99417142D01*
X106643642Y-99345714D01*
X106572214Y-99202857D01*
X106500785Y-98917142D01*
X106500785Y-98560000D01*
X106572214Y-98274285D01*
X106643642Y-98131428D01*
X106715071Y-98060000D01*
X106857928Y-97988571D01*
G04 #@! TO.C,R17*
X96571714Y-117268571D02*
X96071714Y-116554285D01*
X95714571Y-117268571D02*
X95714571Y-115768571D01*
X96286000Y-115768571D01*
X96428857Y-115840000D01*
X96500285Y-115911428D01*
X96571714Y-116054285D01*
X96571714Y-116268571D01*
X96500285Y-116411428D01*
X96428857Y-116482857D01*
X96286000Y-116554285D01*
X95714571Y-116554285D01*
X98000285Y-117268571D02*
X97143142Y-117268571D01*
X97571714Y-117268571D02*
X97571714Y-115768571D01*
X97428857Y-115982857D01*
X97286000Y-116125714D01*
X97143142Y-116197142D01*
X98500285Y-115768571D02*
X99500285Y-115768571D01*
X98857428Y-117268571D01*
G04 #@! TO.C,C5*
X123725714Y-82800000D02*
X123797142Y-82871428D01*
X123868571Y-83085714D01*
X123868571Y-83228571D01*
X123797142Y-83442857D01*
X123654285Y-83585714D01*
X123511428Y-83657142D01*
X123225714Y-83728571D01*
X123011428Y-83728571D01*
X122725714Y-83657142D01*
X122582857Y-83585714D01*
X122440000Y-83442857D01*
X122368571Y-83228571D01*
X122368571Y-83085714D01*
X122440000Y-82871428D01*
X122511428Y-82800000D01*
X122368571Y-81442857D02*
X122368571Y-82157142D01*
X123082857Y-82228571D01*
X123011428Y-82157142D01*
X122940000Y-82014285D01*
X122940000Y-81657142D01*
X123011428Y-81514285D01*
X123082857Y-81442857D01*
X123225714Y-81371428D01*
X123582857Y-81371428D01*
X123725714Y-81442857D01*
X123797142Y-81514285D01*
X123868571Y-81657142D01*
X123868571Y-82014285D01*
X123797142Y-82157142D01*
X123725714Y-82228571D01*
G04 #@! TO.C,R11*
X104500785Y-102024571D02*
X104000785Y-101310285D01*
X103643642Y-102024571D02*
X103643642Y-100524571D01*
X104215071Y-100524571D01*
X104357928Y-100596000D01*
X104429357Y-100667428D01*
X104500785Y-100810285D01*
X104500785Y-101024571D01*
X104429357Y-101167428D01*
X104357928Y-101238857D01*
X104215071Y-101310285D01*
X103643642Y-101310285D01*
X105929357Y-102024571D02*
X105072214Y-102024571D01*
X105500785Y-102024571D02*
X105500785Y-100524571D01*
X105357928Y-100738857D01*
X105215071Y-100881714D01*
X105072214Y-100953142D01*
X107357928Y-102024571D02*
X106500785Y-102024571D01*
X106929357Y-102024571D02*
X106929357Y-100524571D01*
X106786500Y-100738857D01*
X106643642Y-100881714D01*
X106500785Y-100953142D01*
G04 #@! TO.C,C7*
X107215714Y-115566000D02*
X107287142Y-115637428D01*
X107358571Y-115851714D01*
X107358571Y-115994571D01*
X107287142Y-116208857D01*
X107144285Y-116351714D01*
X107001428Y-116423142D01*
X106715714Y-116494571D01*
X106501428Y-116494571D01*
X106215714Y-116423142D01*
X106072857Y-116351714D01*
X105930000Y-116208857D01*
X105858571Y-115994571D01*
X105858571Y-115851714D01*
X105930000Y-115637428D01*
X106001428Y-115566000D01*
X105858571Y-115066000D02*
X105858571Y-114066000D01*
X107358571Y-114708857D01*
G04 #@! TO.C,U1*
X124333142Y-108144571D02*
X124333142Y-109358857D01*
X124404571Y-109501714D01*
X124476000Y-109573142D01*
X124618857Y-109644571D01*
X124904571Y-109644571D01*
X125047428Y-109573142D01*
X125118857Y-109501714D01*
X125190285Y-109358857D01*
X125190285Y-108144571D01*
X126690285Y-109644571D02*
X125833142Y-109644571D01*
X126261714Y-109644571D02*
X126261714Y-108144571D01*
X126118857Y-108358857D01*
X125976000Y-108501714D01*
X125833142Y-108573142D01*
G04 #@! TO.C,R16*
X96571714Y-114728571D02*
X96071714Y-114014285D01*
X95714571Y-114728571D02*
X95714571Y-113228571D01*
X96286000Y-113228571D01*
X96428857Y-113300000D01*
X96500285Y-113371428D01*
X96571714Y-113514285D01*
X96571714Y-113728571D01*
X96500285Y-113871428D01*
X96428857Y-113942857D01*
X96286000Y-114014285D01*
X95714571Y-114014285D01*
X98000285Y-114728571D02*
X97143142Y-114728571D01*
X97571714Y-114728571D02*
X97571714Y-113228571D01*
X97428857Y-113442857D01*
X97286000Y-113585714D01*
X97143142Y-113657142D01*
X99286000Y-113228571D02*
X99000285Y-113228571D01*
X98857428Y-113300000D01*
X98786000Y-113371428D01*
X98643142Y-113585714D01*
X98571714Y-113871428D01*
X98571714Y-114442857D01*
X98643142Y-114585714D01*
X98714571Y-114657142D01*
X98857428Y-114728571D01*
X99143142Y-114728571D01*
X99286000Y-114657142D01*
X99357428Y-114585714D01*
X99428857Y-114442857D01*
X99428857Y-114085714D01*
X99357428Y-113942857D01*
X99286000Y-113871428D01*
X99143142Y-113800000D01*
X98857428Y-113800000D01*
X98714571Y-113871428D01*
X98643142Y-113942857D01*
X98571714Y-114085714D01*
G04 #@! TO.C,R1*
X131996571Y-114550000D02*
X131282285Y-115050000D01*
X131996571Y-115407142D02*
X130496571Y-115407142D01*
X130496571Y-114835714D01*
X130568000Y-114692857D01*
X130639428Y-114621428D01*
X130782285Y-114550000D01*
X130996571Y-114550000D01*
X131139428Y-114621428D01*
X131210857Y-114692857D01*
X131282285Y-114835714D01*
X131282285Y-115407142D01*
X131996571Y-113121428D02*
X131996571Y-113978571D01*
X131996571Y-113550000D02*
X130496571Y-113550000D01*
X130710857Y-113692857D01*
X130853714Y-113835714D01*
X130925142Y-113978571D01*
G04 #@! TO.C,R9*
X104500785Y-96948571D02*
X104000785Y-96234285D01*
X103643642Y-96948571D02*
X103643642Y-95448571D01*
X104215071Y-95448571D01*
X104357928Y-95520000D01*
X104429357Y-95591428D01*
X104500785Y-95734285D01*
X104500785Y-95948571D01*
X104429357Y-96091428D01*
X104357928Y-96162857D01*
X104215071Y-96234285D01*
X103643642Y-96234285D01*
X105215071Y-96948571D02*
X105500785Y-96948571D01*
X105643642Y-96877142D01*
X105715071Y-96805714D01*
X105857928Y-96591428D01*
X105929357Y-96305714D01*
X105929357Y-95734285D01*
X105857928Y-95591428D01*
X105786500Y-95520000D01*
X105643642Y-95448571D01*
X105357928Y-95448571D01*
X105215071Y-95520000D01*
X105143642Y-95591428D01*
X105072214Y-95734285D01*
X105072214Y-96091428D01*
X105143642Y-96234285D01*
X105215071Y-96305714D01*
X105357928Y-96377142D01*
X105643642Y-96377142D01*
X105786500Y-96305714D01*
X105857928Y-96234285D01*
X105929357Y-96091428D01*
G04 #@! TO.C,R6*
X98048000Y-89324571D02*
X97548000Y-88610285D01*
X97190857Y-89324571D02*
X97190857Y-87824571D01*
X97762285Y-87824571D01*
X97905142Y-87896000D01*
X97976571Y-87967428D01*
X98048000Y-88110285D01*
X98048000Y-88324571D01*
X97976571Y-88467428D01*
X97905142Y-88538857D01*
X97762285Y-88610285D01*
X97190857Y-88610285D01*
X99333714Y-87824571D02*
X99048000Y-87824571D01*
X98905142Y-87896000D01*
X98833714Y-87967428D01*
X98690857Y-88181714D01*
X98619428Y-88467428D01*
X98619428Y-89038857D01*
X98690857Y-89181714D01*
X98762285Y-89253142D01*
X98905142Y-89324571D01*
X99190857Y-89324571D01*
X99333714Y-89253142D01*
X99405142Y-89181714D01*
X99476571Y-89038857D01*
X99476571Y-88681714D01*
X99405142Y-88538857D01*
X99333714Y-88467428D01*
X99190857Y-88396000D01*
X98905142Y-88396000D01*
X98762285Y-88467428D01*
X98690857Y-88538857D01*
X98619428Y-88681714D01*
G04 #@! TO.C,U3*
X110617142Y-93412571D02*
X110617142Y-94626857D01*
X110688571Y-94769714D01*
X110760000Y-94841142D01*
X110902857Y-94912571D01*
X111188571Y-94912571D01*
X111331428Y-94841142D01*
X111402857Y-94769714D01*
X111474285Y-94626857D01*
X111474285Y-93412571D01*
X112045714Y-93412571D02*
X112974285Y-93412571D01*
X112474285Y-93984000D01*
X112688571Y-93984000D01*
X112831428Y-94055428D01*
X112902857Y-94126857D01*
X112974285Y-94269714D01*
X112974285Y-94626857D01*
X112902857Y-94769714D01*
X112831428Y-94841142D01*
X112688571Y-94912571D01*
X112260000Y-94912571D01*
X112117142Y-94841142D01*
X112045714Y-94769714D01*
G04 #@! TO.C,C6*
X118899714Y-80260000D02*
X118971142Y-80331428D01*
X119042571Y-80545714D01*
X119042571Y-80688571D01*
X118971142Y-80902857D01*
X118828285Y-81045714D01*
X118685428Y-81117142D01*
X118399714Y-81188571D01*
X118185428Y-81188571D01*
X117899714Y-81117142D01*
X117756857Y-81045714D01*
X117614000Y-80902857D01*
X117542571Y-80688571D01*
X117542571Y-80545714D01*
X117614000Y-80331428D01*
X117685428Y-80260000D01*
X117542571Y-78974285D02*
X117542571Y-79260000D01*
X117614000Y-79402857D01*
X117685428Y-79474285D01*
X117899714Y-79617142D01*
X118185428Y-79688571D01*
X118756857Y-79688571D01*
X118899714Y-79617142D01*
X118971142Y-79545714D01*
X119042571Y-79402857D01*
X119042571Y-79117142D01*
X118971142Y-78974285D01*
X118899714Y-78902857D01*
X118756857Y-78831428D01*
X118399714Y-78831428D01*
X118256857Y-78902857D01*
X118185428Y-78974285D01*
X118114000Y-79117142D01*
X118114000Y-79402857D01*
X118185428Y-79545714D01*
X118256857Y-79617142D01*
X118399714Y-79688571D01*
G04 #@! TO.C,C4*
X118622000Y-111025714D02*
X118550571Y-111097142D01*
X118336285Y-111168571D01*
X118193428Y-111168571D01*
X117979142Y-111097142D01*
X117836285Y-110954285D01*
X117764857Y-110811428D01*
X117693428Y-110525714D01*
X117693428Y-110311428D01*
X117764857Y-110025714D01*
X117836285Y-109882857D01*
X117979142Y-109740000D01*
X118193428Y-109668571D01*
X118336285Y-109668571D01*
X118550571Y-109740000D01*
X118622000Y-109811428D01*
X119907714Y-110168571D02*
X119907714Y-111168571D01*
X119550571Y-109597142D02*
X119193428Y-110668571D01*
X120122000Y-110668571D01*
G04 #@! TO.C,R4*
X98048000Y-84244571D02*
X97548000Y-83530285D01*
X97190857Y-84244571D02*
X97190857Y-82744571D01*
X97762285Y-82744571D01*
X97905142Y-82816000D01*
X97976571Y-82887428D01*
X98048000Y-83030285D01*
X98048000Y-83244571D01*
X97976571Y-83387428D01*
X97905142Y-83458857D01*
X97762285Y-83530285D01*
X97190857Y-83530285D01*
X99333714Y-83244571D02*
X99333714Y-84244571D01*
X98976571Y-82673142D02*
X98619428Y-83744571D01*
X99548000Y-83744571D01*
G04 #@! TO.C,R14*
X104500785Y-109644571D02*
X104000785Y-108930285D01*
X103643642Y-109644571D02*
X103643642Y-108144571D01*
X104215071Y-108144571D01*
X104357928Y-108216000D01*
X104429357Y-108287428D01*
X104500785Y-108430285D01*
X104500785Y-108644571D01*
X104429357Y-108787428D01*
X104357928Y-108858857D01*
X104215071Y-108930285D01*
X103643642Y-108930285D01*
X105929357Y-109644571D02*
X105072214Y-109644571D01*
X105500785Y-109644571D02*
X105500785Y-108144571D01*
X105357928Y-108358857D01*
X105215071Y-108501714D01*
X105072214Y-108573142D01*
X107215071Y-108644571D02*
X107215071Y-109644571D01*
X106857928Y-108073142D02*
X106500785Y-109144571D01*
X107429357Y-109144571D01*
G04 #@! TO.C,C1*
X135640000Y-91467714D02*
X135568571Y-91539142D01*
X135354285Y-91610571D01*
X135211428Y-91610571D01*
X134997142Y-91539142D01*
X134854285Y-91396285D01*
X134782857Y-91253428D01*
X134711428Y-90967714D01*
X134711428Y-90753428D01*
X134782857Y-90467714D01*
X134854285Y-90324857D01*
X134997142Y-90182000D01*
X135211428Y-90110571D01*
X135354285Y-90110571D01*
X135568571Y-90182000D01*
X135640000Y-90253428D01*
X137068571Y-91610571D02*
X136211428Y-91610571D01*
X136640000Y-91610571D02*
X136640000Y-90110571D01*
X136497142Y-90324857D01*
X136354285Y-90467714D01*
X136211428Y-90539142D01*
G04 #@! TO.C,C3*
X128805714Y-110740000D02*
X128877142Y-110811428D01*
X128948571Y-111025714D01*
X128948571Y-111168571D01*
X128877142Y-111382857D01*
X128734285Y-111525714D01*
X128591428Y-111597142D01*
X128305714Y-111668571D01*
X128091428Y-111668571D01*
X127805714Y-111597142D01*
X127662857Y-111525714D01*
X127520000Y-111382857D01*
X127448571Y-111168571D01*
X127448571Y-111025714D01*
X127520000Y-110811428D01*
X127591428Y-110740000D01*
X127448571Y-110240000D02*
X127448571Y-109311428D01*
X128020000Y-109811428D01*
X128020000Y-109597142D01*
X128091428Y-109454285D01*
X128162857Y-109382857D01*
X128305714Y-109311428D01*
X128662857Y-109311428D01*
X128805714Y-109382857D01*
X128877142Y-109454285D01*
X128948571Y-109597142D01*
X128948571Y-110025714D01*
X128877142Y-110168571D01*
X128805714Y-110240000D01*
G04 #@! TO.C,R15*
X96571714Y-112188571D02*
X96071714Y-111474285D01*
X95714571Y-112188571D02*
X95714571Y-110688571D01*
X96286000Y-110688571D01*
X96428857Y-110760000D01*
X96500285Y-110831428D01*
X96571714Y-110974285D01*
X96571714Y-111188571D01*
X96500285Y-111331428D01*
X96428857Y-111402857D01*
X96286000Y-111474285D01*
X95714571Y-111474285D01*
X98000285Y-112188571D02*
X97143142Y-112188571D01*
X97571714Y-112188571D02*
X97571714Y-110688571D01*
X97428857Y-110902857D01*
X97286000Y-111045714D01*
X97143142Y-111117142D01*
X99357428Y-110688571D02*
X98643142Y-110688571D01*
X98571714Y-111402857D01*
X98643142Y-111331428D01*
X98786000Y-111260000D01*
X99143142Y-111260000D01*
X99286000Y-111331428D01*
X99357428Y-111402857D01*
X99428857Y-111545714D01*
X99428857Y-111902857D01*
X99357428Y-112045714D01*
X99286000Y-112117142D01*
X99143142Y-112188571D01*
X98786000Y-112188571D01*
X98643142Y-112117142D01*
X98571714Y-112045714D01*
G04 #@! TO.C,C2*
X128020000Y-91467714D02*
X127948571Y-91539142D01*
X127734285Y-91610571D01*
X127591428Y-91610571D01*
X127377142Y-91539142D01*
X127234285Y-91396285D01*
X127162857Y-91253428D01*
X127091428Y-90967714D01*
X127091428Y-90753428D01*
X127162857Y-90467714D01*
X127234285Y-90324857D01*
X127377142Y-90182000D01*
X127591428Y-90110571D01*
X127734285Y-90110571D01*
X127948571Y-90182000D01*
X128020000Y-90253428D01*
X128591428Y-90253428D02*
X128662857Y-90182000D01*
X128805714Y-90110571D01*
X129162857Y-90110571D01*
X129305714Y-90182000D01*
X129377142Y-90253428D01*
X129448571Y-90396285D01*
X129448571Y-90539142D01*
X129377142Y-90753428D01*
X128520000Y-91610571D01*
X129448571Y-91610571D01*
G04 #@! TO.C,R12*
X104500785Y-104564571D02*
X104000785Y-103850285D01*
X103643642Y-104564571D02*
X103643642Y-103064571D01*
X104215071Y-103064571D01*
X104357928Y-103136000D01*
X104429357Y-103207428D01*
X104500785Y-103350285D01*
X104500785Y-103564571D01*
X104429357Y-103707428D01*
X104357928Y-103778857D01*
X104215071Y-103850285D01*
X103643642Y-103850285D01*
X105929357Y-104564571D02*
X105072214Y-104564571D01*
X105500785Y-104564571D02*
X105500785Y-103064571D01*
X105357928Y-103278857D01*
X105215071Y-103421714D01*
X105072214Y-103493142D01*
X106500785Y-103207428D02*
X106572214Y-103136000D01*
X106715071Y-103064571D01*
X107072214Y-103064571D01*
X107215071Y-103136000D01*
X107286500Y-103207428D01*
X107357928Y-103350285D01*
X107357928Y-103493142D01*
X107286500Y-103707428D01*
X106429357Y-104564571D01*
X107357928Y-104564571D01*
G04 #@! TO.C,J2*
X136338571Y-110228000D02*
X137410000Y-110228000D01*
X137624285Y-110299428D01*
X137767142Y-110442285D01*
X137838571Y-110656571D01*
X137838571Y-110799428D01*
X136481428Y-109585142D02*
X136410000Y-109513714D01*
X136338571Y-109370857D01*
X136338571Y-109013714D01*
X136410000Y-108870857D01*
X136481428Y-108799428D01*
X136624285Y-108728000D01*
X136767142Y-108728000D01*
X136981428Y-108799428D01*
X137838571Y-109656571D01*
X137838571Y-108728000D01*
G04 #@! TO.C,U2*
X120837142Y-88586571D02*
X120837142Y-89800857D01*
X120908571Y-89943714D01*
X120980000Y-90015142D01*
X121122857Y-90086571D01*
X121408571Y-90086571D01*
X121551428Y-90015142D01*
X121622857Y-89943714D01*
X121694285Y-89800857D01*
X121694285Y-88586571D01*
X122337142Y-88729428D02*
X122408571Y-88658000D01*
X122551428Y-88586571D01*
X122908571Y-88586571D01*
X123051428Y-88658000D01*
X123122857Y-88729428D01*
X123194285Y-88872285D01*
X123194285Y-89015142D01*
X123122857Y-89229428D01*
X122265714Y-90086571D01*
X123194285Y-90086571D01*
G04 #@! TO.C,R2*
X126662571Y-114550000D02*
X125948285Y-115050000D01*
X126662571Y-115407142D02*
X125162571Y-115407142D01*
X125162571Y-114835714D01*
X125234000Y-114692857D01*
X125305428Y-114621428D01*
X125448285Y-114550000D01*
X125662571Y-114550000D01*
X125805428Y-114621428D01*
X125876857Y-114692857D01*
X125948285Y-114835714D01*
X125948285Y-115407142D01*
X125305428Y-113978571D02*
X125234000Y-113907142D01*
X125162571Y-113764285D01*
X125162571Y-113407142D01*
X125234000Y-113264285D01*
X125305428Y-113192857D01*
X125448285Y-113121428D01*
X125591142Y-113121428D01*
X125805428Y-113192857D01*
X126662571Y-114050000D01*
X126662571Y-113121428D01*
G04 #@! TO.C,R13*
X104500785Y-107104571D02*
X104000785Y-106390285D01*
X103643642Y-107104571D02*
X103643642Y-105604571D01*
X104215071Y-105604571D01*
X104357928Y-105676000D01*
X104429357Y-105747428D01*
X104500785Y-105890285D01*
X104500785Y-106104571D01*
X104429357Y-106247428D01*
X104357928Y-106318857D01*
X104215071Y-106390285D01*
X103643642Y-106390285D01*
X105929357Y-107104571D02*
X105072214Y-107104571D01*
X105500785Y-107104571D02*
X105500785Y-105604571D01*
X105357928Y-105818857D01*
X105215071Y-105961714D01*
X105072214Y-106033142D01*
X106429357Y-105604571D02*
X107357928Y-105604571D01*
X106857928Y-106176000D01*
X107072214Y-106176000D01*
X107215071Y-106247428D01*
X107286500Y-106318857D01*
X107357928Y-106461714D01*
X107357928Y-106818857D01*
X107286500Y-106961714D01*
X107215071Y-107033142D01*
X107072214Y-107104571D01*
X106643642Y-107104571D01*
X106500785Y-107033142D01*
X106429357Y-106961714D01*
G04 #@! TO.C,R8*
X104500785Y-94404571D02*
X104000785Y-93690285D01*
X103643642Y-94404571D02*
X103643642Y-92904571D01*
X104215071Y-92904571D01*
X104357928Y-92976000D01*
X104429357Y-93047428D01*
X104500785Y-93190285D01*
X104500785Y-93404571D01*
X104429357Y-93547428D01*
X104357928Y-93618857D01*
X104215071Y-93690285D01*
X103643642Y-93690285D01*
X105357928Y-93547428D02*
X105215071Y-93476000D01*
X105143642Y-93404571D01*
X105072214Y-93261714D01*
X105072214Y-93190285D01*
X105143642Y-93047428D01*
X105215071Y-92976000D01*
X105357928Y-92904571D01*
X105643642Y-92904571D01*
X105786500Y-92976000D01*
X105857928Y-93047428D01*
X105929357Y-93190285D01*
X105929357Y-93261714D01*
X105857928Y-93404571D01*
X105786500Y-93476000D01*
X105643642Y-93547428D01*
X105357928Y-93547428D01*
X105215071Y-93618857D01*
X105143642Y-93690285D01*
X105072214Y-93833142D01*
X105072214Y-94118857D01*
X105143642Y-94261714D01*
X105215071Y-94333142D01*
X105357928Y-94404571D01*
X105643642Y-94404571D01*
X105786500Y-94333142D01*
X105857928Y-94261714D01*
X105929357Y-94118857D01*
X105929357Y-93833142D01*
X105857928Y-93690285D01*
X105786500Y-93618857D01*
X105643642Y-93547428D01*
D12*
G04 #@! TO.C,D1*
X133133959Y-85215604D02*
X135156284Y-87237929D01*
X134491604Y-83857959D02*
X133133959Y-85215604D01*
X136513929Y-85880284D02*
X134491604Y-83857959D01*
G04 #@! TO.C,R3*
X127512578Y-82244000D02*
X126995422Y-82244000D01*
X127512578Y-80824000D02*
X126995422Y-80824000D01*
G04 #@! TO.C,R5*
X101861252Y-86820000D02*
X101338748Y-86820000D01*
X101861252Y-85400000D02*
X101338748Y-85400000D01*
G04 #@! TO.C,R7*
X101861252Y-90480000D02*
X101338748Y-90480000D01*
X101861252Y-91900000D02*
X101338748Y-91900000D01*
G04 #@! TO.C,J5*
X92710000Y-92380000D02*
X92710000Y-89780000D01*
X90110000Y-92380000D02*
X90110000Y-110220000D01*
X95310000Y-89780000D02*
X95310000Y-110220000D01*
X90110000Y-92380000D02*
X92710000Y-92380000D01*
X90110000Y-110220000D02*
X95310000Y-110220000D01*
X92710000Y-89780000D02*
X95310000Y-89780000D01*
X90110000Y-91110000D02*
X90110000Y-89780000D01*
X90110000Y-89780000D02*
X91440000Y-89780000D01*
G04 #@! TO.C,U4*
X111760000Y-121275000D02*
X109810000Y-121275000D01*
X111760000Y-112405000D02*
X109810000Y-112405000D01*
X111760000Y-121275000D02*
X115210000Y-121275000D01*
X111760000Y-112405000D02*
X113710000Y-112405000D01*
G04 #@! TO.C,R10*
X101861252Y-98100000D02*
X101338748Y-98100000D01*
X101861252Y-99520000D02*
X101338748Y-99520000D01*
G04 #@! TO.C,R17*
X101861252Y-115880000D02*
X101338748Y-115880000D01*
X101861252Y-117300000D02*
X101338748Y-117300000D01*
G04 #@! TO.C,C5*
X120908578Y-83225000D02*
X120391422Y-83225000D01*
X120908578Y-81805000D02*
X120391422Y-81805000D01*
G04 #@! TO.C,R11*
X101861252Y-100640000D02*
X101338748Y-100640000D01*
X101861252Y-102060000D02*
X101338748Y-102060000D01*
G04 #@! TO.C,C7*
X107390000Y-118486422D02*
X107390000Y-119003578D01*
X105970000Y-118486422D02*
X105970000Y-119003578D01*
G04 #@! TO.C,U1*
X121870000Y-92190000D02*
X121870000Y-92455000D01*
X129590000Y-107810000D02*
X129590000Y-107545000D01*
X125730000Y-92190000D02*
X129590000Y-92190000D01*
X129590000Y-107545000D02*
X131405000Y-107545000D01*
X121870000Y-107810000D02*
X121870000Y-107545000D01*
X125730000Y-92190000D02*
X121870000Y-92190000D01*
X125730000Y-107810000D02*
X121870000Y-107810000D01*
X129590000Y-92190000D02*
X129590000Y-92455000D01*
X125730000Y-107810000D02*
X129590000Y-107810000D01*
G04 #@! TO.C,R16*
X101861252Y-113340000D02*
X101338748Y-113340000D01*
X101861252Y-114760000D02*
X101338748Y-114760000D01*
G04 #@! TO.C,R1*
X132640000Y-114558578D02*
X132640000Y-114041422D01*
X134060000Y-114558578D02*
X134060000Y-114041422D01*
G04 #@! TO.C,R9*
X101861252Y-95560000D02*
X101338748Y-95560000D01*
X101861252Y-96980000D02*
X101338748Y-96980000D01*
G04 #@! TO.C,R6*
X101861252Y-87940000D02*
X101338748Y-87940000D01*
X101861252Y-89360000D02*
X101338748Y-89360000D01*
G04 #@! TO.C,U3*
X111760000Y-79850000D02*
X107900000Y-79850000D01*
X111760000Y-92870000D02*
X107900000Y-92870000D01*
X111760000Y-92870000D02*
X115620000Y-92870000D01*
X107900000Y-92870000D02*
X107900000Y-92635000D01*
X107900000Y-80085000D02*
X106085000Y-80085000D01*
X107900000Y-79850000D02*
X107900000Y-80085000D01*
X115620000Y-92870000D02*
X115620000Y-92635000D01*
X115620000Y-79850000D02*
X115620000Y-80085000D01*
X111760000Y-79850000D02*
X115620000Y-79850000D01*
G04 #@! TO.C,C6*
X120391422Y-79300000D02*
X120908578Y-79300000D01*
X120391422Y-80720000D02*
X120908578Y-80720000D01*
G04 #@! TO.C,C4*
X121661422Y-109780000D02*
X122178578Y-109780000D01*
X121661422Y-111200000D02*
X122178578Y-111200000D01*
G04 #@! TO.C,R4*
X101858578Y-82860000D02*
X101341422Y-82860000D01*
X101858578Y-84280000D02*
X101341422Y-84280000D01*
G04 #@! TO.C,R14*
X101861252Y-108260000D02*
X101338748Y-108260000D01*
X101861252Y-109680000D02*
X101338748Y-109680000D01*
G04 #@! TO.C,C1*
X135631422Y-88190000D02*
X136148578Y-88190000D01*
X135631422Y-89610000D02*
X136148578Y-89610000D01*
G04 #@! TO.C,C3*
X129500000Y-110748578D02*
X129500000Y-110231422D01*
X130920000Y-110748578D02*
X130920000Y-110231422D01*
G04 #@! TO.C,R15*
X101861252Y-110800000D02*
X101338748Y-110800000D01*
X101861252Y-112220000D02*
X101338748Y-112220000D01*
G04 #@! TO.C,C2*
X128528578Y-89610000D02*
X128011422Y-89610000D01*
X128528578Y-88190000D02*
X128011422Y-88190000D01*
G04 #@! TO.C,R12*
X101861252Y-103180000D02*
X101338748Y-103180000D01*
X101861252Y-104600000D02*
X101338748Y-104600000D01*
D13*
G04 #@! TO.C,J2*
X134540000Y-107970000D02*
G75*
G03*
X134540000Y-107970000I-200000J0D01*
G01*
D12*
G04 #@! TO.C,U2*
X121180000Y-87960000D02*
X123480000Y-87960000D01*
X122780000Y-84760000D02*
X121180000Y-84760000D01*
G04 #@! TO.C,R2*
X124535000Y-114041422D02*
X124535000Y-114558578D01*
X123115000Y-114041422D02*
X123115000Y-114558578D01*
G04 #@! TO.C,R13*
X101861252Y-105720000D02*
X101338748Y-105720000D01*
X101861252Y-107140000D02*
X101338748Y-107140000D01*
G04 #@! TO.C,R8*
X101861252Y-93020000D02*
X101338748Y-93020000D01*
X101861252Y-94440000D02*
X101338748Y-94440000D01*
G04 #@! TD*
M02*
