G04 #@! TF.GenerationSoftware,KiCad,Pcbnew,6.0.10-86aedd382b~118~ubuntu22.04.1*
G04 #@! TF.CreationDate,2023-01-30T15:30:24-08:00*
G04 #@! TF.ProjectId,led-panel-single,6c65642d-7061-46e6-956c-2d73696e676c,rev?*
G04 #@! TF.SameCoordinates,Original*
G04 #@! TF.FileFunction,Profile,NP*
%FSLAX46Y46*%
G04 Gerber Fmt 4.6, Leading zero omitted, Abs format (unit mm)*
G04 Created by KiCad (PCBNEW 6.0.10-86aedd382b~118~ubuntu22.04.1) date 2023-01-30 15:30:24*
%MOMM*%
%LPD*%
G01*
G04 APERTURE LIST*
G04 #@! TA.AperFunction,Profile*
%ADD10C,0.100000*%
G04 #@! TD*
G04 APERTURE END LIST*
G04 #@! TO.C,G\u002A\u002A\u002A*
D10*
X72384140Y-76943939D02*
X72467866Y-77184798D01*
X72585745Y-77553917D01*
X72729410Y-78024856D01*
X72890494Y-78571178D01*
X72945839Y-78762778D01*
X73626108Y-80970454D01*
X74347066Y-82999346D01*
X75111025Y-84854864D01*
X75920297Y-86542415D01*
X76777195Y-88067409D01*
X77224685Y-88771328D01*
X77751332Y-89528732D01*
X78271543Y-90191246D01*
X78830420Y-90809698D01*
X79473066Y-91434916D01*
X80029441Y-91932139D01*
X81229926Y-92917386D01*
X82368658Y-93730578D01*
X83451216Y-94375348D01*
X84483179Y-94855328D01*
X84571852Y-94889835D01*
X85023716Y-95062309D01*
X85342886Y-95162321D01*
X85561915Y-95171422D01*
X85713358Y-95071165D01*
X85829769Y-94843104D01*
X85943702Y-94468792D01*
X86055640Y-94049024D01*
X86640426Y-92212694D01*
X87385577Y-90471278D01*
X88287238Y-88827869D01*
X89341552Y-87285562D01*
X90544662Y-85847448D01*
X91892712Y-84516623D01*
X93381847Y-83296180D01*
X95008209Y-82189212D01*
X96767942Y-81198814D01*
X98657190Y-80328079D01*
X100672097Y-79580101D01*
X102808806Y-78957974D01*
X105063461Y-78464790D01*
X105600259Y-78369591D01*
X107530932Y-78095612D01*
X109591460Y-77902965D01*
X111741925Y-77791882D01*
X113942408Y-77762598D01*
X116152992Y-77815346D01*
X118333759Y-77950359D01*
X120444790Y-78167871D01*
X121260741Y-78278028D01*
X123345821Y-78631674D01*
X125286771Y-79070511D01*
X127111086Y-79602630D01*
X128846263Y-80236125D01*
X130519798Y-80979088D01*
X130644285Y-81039788D01*
X132358222Y-81972667D01*
X133922341Y-83016690D01*
X135337969Y-84173724D01*
X136606433Y-85445635D01*
X137729063Y-86834292D01*
X138707184Y-88341562D01*
X139542126Y-89969312D01*
X140235216Y-91719410D01*
X140787781Y-93593724D01*
X141201150Y-95594120D01*
X141261728Y-95973296D01*
X141309033Y-96388141D01*
X141350678Y-96955895D01*
X141386044Y-97641386D01*
X141414508Y-98409440D01*
X141435452Y-99224887D01*
X141448255Y-100052554D01*
X141452297Y-100857268D01*
X141446956Y-101603858D01*
X141431614Y-102257151D01*
X141405650Y-102781976D01*
X141385836Y-103010370D01*
X141081166Y-105068721D01*
X140627038Y-107012917D01*
X140023866Y-108842550D01*
X139272065Y-110557211D01*
X138372049Y-112156490D01*
X137324232Y-113639979D01*
X136129030Y-115007268D01*
X134786855Y-116257950D01*
X133298124Y-117391613D01*
X131663249Y-118407851D01*
X129882647Y-119306253D01*
X127956729Y-120086410D01*
X125885913Y-120747914D01*
X123670610Y-121290356D01*
X122664807Y-121488532D01*
X121056318Y-121742971D01*
X119310138Y-121945999D01*
X117469970Y-122096176D01*
X115579515Y-122192060D01*
X113682473Y-122232209D01*
X111822547Y-122215183D01*
X110043437Y-122139539D01*
X108388844Y-122003838D01*
X108078674Y-121969591D01*
X105589769Y-121609144D01*
X103234372Y-121118912D01*
X101013092Y-120499151D01*
X98926538Y-119750116D01*
X96975320Y-118872060D01*
X95160046Y-117865240D01*
X93481325Y-116729909D01*
X91939766Y-115466324D01*
X91450040Y-115010466D01*
X90171070Y-113655808D01*
X89020534Y-112180005D01*
X88010181Y-110603374D01*
X87151758Y-108946236D01*
X86457014Y-107228908D01*
X85939655Y-105479815D01*
X85854863Y-105151854D01*
X85766681Y-104938104D01*
X85642620Y-104829786D01*
X85450192Y-104818120D01*
X85156910Y-104894326D01*
X84730285Y-105049623D01*
X84571852Y-105110165D01*
X83544078Y-105575801D01*
X82466201Y-106205908D01*
X81332642Y-107004117D01*
X80137821Y-107974061D01*
X80029441Y-108067861D01*
X79295706Y-108730841D01*
X78679136Y-109349419D01*
X78134628Y-109974423D01*
X77617081Y-110656681D01*
X77224685Y-111228672D01*
X76390452Y-112587806D01*
X75604551Y-114078693D01*
X74862150Y-115712637D01*
X74158417Y-117500944D01*
X73488523Y-119454915D01*
X72947080Y-121237222D01*
X72781743Y-121802508D01*
X72631114Y-122301116D01*
X72503575Y-122706616D01*
X72407508Y-122992576D01*
X72351296Y-123132564D01*
X72342934Y-123142222D01*
X72303962Y-123054767D01*
X72234768Y-122811705D01*
X72141697Y-122441987D01*
X72031095Y-121974567D01*
X71909307Y-121438397D01*
X71782677Y-120862429D01*
X71657552Y-120275617D01*
X71540276Y-119706914D01*
X71437195Y-119185270D01*
X71354655Y-118739640D01*
X71299000Y-118398976D01*
X71291449Y-118344444D01*
X71238417Y-117786750D01*
X71203949Y-117090081D01*
X71187567Y-116302253D01*
X71188790Y-115471081D01*
X71207140Y-114644381D01*
X71242136Y-113869968D01*
X71293299Y-113195658D01*
X71347580Y-112747037D01*
X71462830Y-112073110D01*
X71604866Y-111363893D01*
X71762310Y-110668084D01*
X71923783Y-110034377D01*
X72077908Y-109511469D01*
X72155970Y-109287288D01*
X72326066Y-108837910D01*
X71685724Y-109405616D01*
X70716292Y-110336171D01*
X69755897Y-111391924D01*
X68855131Y-112514571D01*
X68247083Y-113368416D01*
X67885809Y-113952803D01*
X67478035Y-114700338D01*
X67021275Y-115615897D01*
X66513041Y-116704354D01*
X66272794Y-117238580D01*
X66110897Y-117582565D01*
X65972396Y-117840717D01*
X65876278Y-117979517D01*
X65846497Y-117991172D01*
X65815429Y-117872729D01*
X65775491Y-117599014D01*
X65729496Y-117202538D01*
X65680256Y-116715815D01*
X65630582Y-116171357D01*
X65583288Y-115601677D01*
X65541186Y-115039287D01*
X65507087Y-114516700D01*
X65483805Y-114066427D01*
X65474152Y-113720983D01*
X65474044Y-113685310D01*
X65550605Y-112322545D01*
X65769453Y-110903686D01*
X66118377Y-109480009D01*
X66585162Y-108102792D01*
X67064090Y-107009806D01*
X67500098Y-106121993D01*
X66521432Y-106639972D01*
X65371952Y-107303554D01*
X64214179Y-108074725D01*
X63095968Y-108917371D01*
X62065172Y-109795375D01*
X61169645Y-110672623D01*
X61149438Y-110694196D01*
X60874346Y-111008502D01*
X60523970Y-111438894D01*
X60128989Y-111945987D01*
X59720085Y-112490396D01*
X59330398Y-113029259D01*
X58939677Y-113581809D01*
X58644366Y-113999262D01*
X58430796Y-114299823D01*
X58285298Y-114501697D01*
X58194204Y-114623091D01*
X58143847Y-114682210D01*
X58120556Y-114697258D01*
X58110665Y-114686443D01*
X58100504Y-114667969D01*
X58100270Y-114667716D01*
X58092601Y-114559799D01*
X58104563Y-114296573D01*
X58132952Y-113909488D01*
X58174561Y-113429992D01*
X58226186Y-112889533D01*
X58284621Y-112319561D01*
X58346661Y-111751523D01*
X58409101Y-111216870D01*
X58468735Y-110747048D01*
X58522358Y-110373508D01*
X58559585Y-110161162D01*
X58855323Y-109011786D01*
X59273284Y-107810182D01*
X59787243Y-106619721D01*
X60370973Y-105503773D01*
X60729111Y-104918799D01*
X61442475Y-103901606D01*
X62199606Y-102983320D01*
X63031797Y-102133269D01*
X63970345Y-101320780D01*
X65046545Y-100515180D01*
X65627710Y-100117593D01*
X65750969Y-100019809D01*
X65715495Y-99943907D01*
X65627710Y-99882407D01*
X64473439Y-99069097D01*
X63472005Y-98263781D01*
X62592113Y-97435788D01*
X61802468Y-96554443D01*
X61071775Y-95589076D01*
X60729111Y-95081201D01*
X60117065Y-94037041D01*
X59559665Y-92881820D01*
X59083138Y-91678907D01*
X58713710Y-90491675D01*
X58559585Y-89838837D01*
X58513280Y-89567678D01*
X58458336Y-89174458D01*
X58397959Y-88690626D01*
X58335354Y-88147631D01*
X58273727Y-87576921D01*
X58216283Y-87009945D01*
X58166227Y-86478153D01*
X58126764Y-86012991D01*
X58101100Y-85645910D01*
X58092440Y-85408358D01*
X58100270Y-85332284D01*
X58110544Y-85313835D01*
X58120334Y-85302759D01*
X58143309Y-85317263D01*
X58193138Y-85375551D01*
X58283489Y-85495830D01*
X58428030Y-85696305D01*
X58640429Y-85995181D01*
X58934356Y-86410664D01*
X59323478Y-86960959D01*
X59330398Y-86970741D01*
X59722756Y-87513225D01*
X60131669Y-88057517D01*
X60526456Y-88564234D01*
X60876438Y-88993990D01*
X61149438Y-89305804D01*
X62040976Y-90182571D01*
X63068978Y-91060996D01*
X64185590Y-91904963D01*
X65342957Y-92678357D01*
X66493227Y-93345064D01*
X66521432Y-93360028D01*
X67500098Y-93878007D01*
X67064090Y-92990194D01*
X66506958Y-91692521D01*
X66057332Y-90304919D01*
X65727428Y-88878666D01*
X65529459Y-87465039D01*
X65474044Y-86314690D01*
X65481710Y-85985338D01*
X65503372Y-85546911D01*
X65536218Y-85031923D01*
X65577434Y-84472886D01*
X65624210Y-83902312D01*
X65673732Y-83352714D01*
X65723189Y-82856604D01*
X65769768Y-82446495D01*
X65810656Y-82154900D01*
X65843042Y-82014331D01*
X65846497Y-82008828D01*
X65907269Y-82057946D01*
X66022057Y-82246954D01*
X66171872Y-82542330D01*
X66272794Y-82761420D01*
X66804432Y-83927394D01*
X67283505Y-84918327D01*
X67712498Y-85739096D01*
X68093899Y-86394573D01*
X68247083Y-86631584D01*
X69069596Y-87766124D01*
X69989818Y-88877655D01*
X70957157Y-89907871D01*
X71685724Y-90594383D01*
X72326066Y-91162090D01*
X72155970Y-90712712D01*
X72010816Y-90272160D01*
X71852009Y-89693828D01*
X71690927Y-89026413D01*
X71538949Y-88318609D01*
X71407451Y-87619113D01*
X71347580Y-87252963D01*
X71283388Y-86697780D01*
X71234966Y-86002888D01*
X71202793Y-85216100D01*
X71187349Y-84385233D01*
X71189114Y-83558102D01*
X71208567Y-82782522D01*
X71246187Y-82106310D01*
X71291449Y-81655555D01*
X71340773Y-81340130D01*
X71418290Y-80913770D01*
X71517656Y-80405428D01*
X71632524Y-79844057D01*
X71756550Y-79258609D01*
X71883389Y-78678036D01*
X72006695Y-78131293D01*
X72120122Y-77647331D01*
X72217326Y-77255102D01*
X72291962Y-76983560D01*
X72337683Y-76861657D01*
X72342934Y-76857778D01*
X72384140Y-76943939D01*
G04 #@! TD*
M02*
