G04 #@! TF.GenerationSoftware,KiCad,Pcbnew,6.0.10-86aedd382b~118~ubuntu22.04.1*
G04 #@! TF.CreationDate,2023-01-30T15:30:24-08:00*
G04 #@! TF.ProjectId,led-panel-single,6c65642d-7061-46e6-956c-2d73696e676c,rev?*
G04 #@! TF.SameCoordinates,Original*
G04 #@! TF.FileFunction,Copper,L2,Bot*
G04 #@! TF.FilePolarity,Positive*
%FSLAX46Y46*%
G04 Gerber Fmt 4.6, Leading zero omitted, Abs format (unit mm)*
G04 Created by KiCad (PCBNEW 6.0.10-86aedd382b~118~ubuntu22.04.1) date 2023-01-30 15:30:24*
%MOMM*%
%LPD*%
G01*
G04 APERTURE LIST*
G04 Aperture macros list*
%AMFreePoly0*
4,1,6,1.000000,0.000000,0.500000,-0.750000,-0.500000,-0.750000,-0.500000,0.750000,0.500000,0.750000,1.000000,0.000000,1.000000,0.000000,$1*%
%AMFreePoly1*
4,1,7,0.700000,0.000000,1.200000,-0.750000,-1.200000,-0.750000,-0.700000,0.000000,-1.200000,0.750000,1.200000,0.750000,0.700000,0.000000,0.700000,0.000000,$1*%
G04 Aperture macros list end*
G04 #@! TA.AperFunction,ComponentPad*
%ADD10R,3.600000X1.800000*%
G04 #@! TD*
G04 #@! TA.AperFunction,ComponentPad*
%ADD11O,3.600000X1.800000*%
G04 #@! TD*
G04 #@! TA.AperFunction,ComponentPad*
%ADD12O,2.540000X1.700000*%
G04 #@! TD*
G04 #@! TA.AperFunction,SMDPad,CuDef*
%ADD13FreePoly0,0.000000*%
G04 #@! TD*
G04 #@! TA.AperFunction,SMDPad,CuDef*
%ADD14FreePoly1,180.000000*%
G04 #@! TD*
G04 #@! TA.AperFunction,SMDPad,CuDef*
%ADD15FreePoly0,180.000000*%
G04 #@! TD*
G04 #@! TA.AperFunction,SMDPad,CuDef*
%ADD16FreePoly0,90.000000*%
G04 #@! TD*
G04 #@! TA.AperFunction,SMDPad,CuDef*
%ADD17FreePoly1,270.000000*%
G04 #@! TD*
G04 #@! TA.AperFunction,SMDPad,CuDef*
%ADD18FreePoly0,270.000000*%
G04 #@! TD*
G04 #@! TA.AperFunction,ViaPad*
%ADD19C,0.800000*%
G04 #@! TD*
G04 #@! TA.AperFunction,Conductor*
%ADD20C,0.250000*%
G04 #@! TD*
G04 #@! TA.AperFunction,Conductor*
%ADD21C,0.500000*%
G04 #@! TD*
G04 APERTURE END LIST*
D10*
G04 #@! TO.P,J5,1,Pin_1*
G04 #@! TO.N,/Rx*
X90540000Y-91110000D03*
D11*
G04 #@! TO.P,J5,2,Pin_2*
G04 #@! TO.N,/Gx*
X94880000Y-91110000D03*
G04 #@! TO.P,J5,3,Pin_3*
G04 #@! TO.N,/Bx*
X90540000Y-93650000D03*
G04 #@! TO.P,J5,4,Pin_4*
G04 #@! TO.N,GND*
X94880000Y-93650000D03*
G04 #@! TO.P,J5,5,Pin_5*
G04 #@! TO.N,/R1x*
X90540000Y-96190000D03*
G04 #@! TO.P,J5,6,Pin_6*
G04 #@! TO.N,/G1x*
X94880000Y-96190000D03*
G04 #@! TO.P,J5,7,Pin_7*
G04 #@! TO.N,/B1x*
X90540000Y-98730000D03*
G04 #@! TO.P,J5,8,Pin_8*
G04 #@! TO.N,/A4x*
X94880000Y-98730000D03*
G04 #@! TO.P,J5,9,Pin_9*
G04 #@! TO.N,/A0x*
X90540000Y-101270000D03*
G04 #@! TO.P,J5,10,Pin_10*
G04 #@! TO.N,/A1x*
X94880000Y-101270000D03*
G04 #@! TO.P,J5,11,Pin_11*
G04 #@! TO.N,/A2x*
X90540000Y-103810000D03*
G04 #@! TO.P,J5,12,Pin_12*
G04 #@! TO.N,/A3x*
X94880000Y-103810000D03*
G04 #@! TO.P,J5,13,Pin_13*
G04 #@! TO.N,/SCLKx*
X90540000Y-106350000D03*
G04 #@! TO.P,J5,14,Pin_14*
G04 #@! TO.N,/LATCHx*
X94880000Y-106350000D03*
G04 #@! TO.P,J5,15,Pin_15*
G04 #@! TO.N,/BLANKx*
X90540000Y-108890000D03*
G04 #@! TO.P,J5,16,Pin_16*
G04 #@! TO.N,GND*
X94880000Y-108890000D03*
G04 #@! TD*
D12*
G04 #@! TO.P,J2,7,Pin_7*
G04 #@! TO.N,/iG*
X137560000Y-106350000D03*
G04 #@! TO.P,J2,1,Pin_1*
G04 #@! TO.N,/iR*
X134220000Y-106350000D03*
G04 #@! TO.P,J2,8,Pin_8*
G04 #@! TO.N,/iARST*
X137560000Y-103810000D03*
G04 #@! TO.P,J2,2,Pin_2*
G04 #@! TO.N,/iB*
X134220000Y-103810000D03*
G04 #@! TO.P,J2,9,Pin_9*
G04 #@! TO.N,/iSCLK*
X137560000Y-101270000D03*
G04 #@! TO.P,J2,3,Pin_3*
G04 #@! TO.N,/iACLK*
X134220000Y-101270000D03*
G04 #@! TO.P,J2,10,Pin_10*
G04 #@! TO.N,/iLATCH*
X137560000Y-98730000D03*
G04 #@! TO.P,J2,4,Pin_4*
G04 #@! TO.N,/iBLANK*
X134220000Y-98730000D03*
G04 #@! TO.P,J2,11,Pin_11*
G04 #@! TO.N,GND*
X137560000Y-96190000D03*
G04 #@! TO.P,J2,5,Pin_5*
X134220000Y-96190000D03*
G04 #@! TO.P,J2,12,Pin_12*
G04 #@! TO.N,+3V3*
X137560000Y-93650000D03*
G04 #@! TO.P,J2,6,Pin_6*
X134220000Y-93650000D03*
G04 #@! TD*
D13*
G04 #@! TO.P,J3,3*
G04 #@! TO.N,+5V*
X131350000Y-88900000D03*
D14*
G04 #@! TO.P,J3,2*
G04 #@! TO.N,/VCCB*
X133350000Y-88900000D03*
D15*
G04 #@! TO.P,J3,1*
G04 #@! TO.N,+3V3*
X135350000Y-88900000D03*
G04 #@! TD*
D16*
G04 #@! TO.P,J4,3*
G04 #@! TO.N,/SCLKNN*
X121980000Y-88360000D03*
D17*
G04 #@! TO.P,J4,2*
G04 #@! TO.N,/SCLKi*
X121980000Y-86360000D03*
D18*
G04 #@! TO.P,J4,1*
G04 #@! TO.N,/SCLK*
X121980000Y-84360000D03*
G04 #@! TD*
D19*
G04 #@! TO.N,GND*
X126365000Y-82804000D03*
G04 #@! TO.N,/VCCB*
X107315000Y-116840000D03*
G04 #@! TO.N,GND*
X107315000Y-120904000D03*
G04 #@! TO.N,/VCCB*
X116205000Y-117475000D03*
X122555000Y-114300000D03*
X133350000Y-90170000D03*
X129540000Y-114300000D03*
X133350000Y-87630000D03*
G04 #@! TO.N,GND*
X67310000Y-100000000D03*
G04 #@! TO.N,+3V3*
X134620000Y-109855000D03*
X132080000Y-109855000D03*
G04 #@! TO.N,GND*
X137160000Y-90805000D03*
X123190000Y-92710000D03*
X124370500Y-85725000D03*
X109855000Y-81280000D03*
X106045000Y-93345000D03*
X131445000Y-92075000D03*
X114300000Y-111760000D03*
X123190000Y-82550000D03*
X123190000Y-80010000D03*
X126365000Y-87630000D03*
X130175000Y-113030000D03*
X123825000Y-116840000D03*
X122555000Y-111760000D03*
G04 #@! TO.N,/SCLKi*
X106021561Y-116228439D03*
X128905000Y-116840000D03*
X124460000Y-87630000D03*
G04 #@! TO.N,/LATCH*
X104775000Y-118745000D03*
X128270000Y-118110000D03*
G04 #@! TO.N,/BLANK*
X104775000Y-120015000D03*
X126365000Y-119380000D03*
G04 #@! TO.N,/B1x*
X99060000Y-89535000D03*
G04 #@! TO.N,/A2x*
X99060000Y-106680000D03*
X90805000Y-111125000D03*
G04 #@! TO.N,/R1x*
X97155000Y-89535000D03*
X90170000Y-88900000D03*
G04 #@! TO.N,/Bx*
X95250000Y-88900000D03*
X92710000Y-88900000D03*
G04 #@! TO.N,/SCLKx*
X96520000Y-111125000D03*
X99060000Y-111125000D03*
G04 #@! TO.N,/A3*
X109855000Y-109220000D03*
X115570000Y-109220000D03*
G04 #@! TO.N,/B1*
X104775000Y-81280000D03*
X104775000Y-87630000D03*
G04 #@! TO.N,/G1*
X103542626Y-90131357D03*
X103505000Y-81280000D03*
G04 #@! TO.N,/R*
X109220000Y-86995000D03*
X108585000Y-81915000D03*
G04 #@! TO.N,/G*
X108734500Y-85725000D03*
X108585000Y-83185000D03*
G04 #@! TO.N,/SCLKNN*
X119638299Y-85593701D03*
G04 #@! TO.N,/SCLK*
X124460000Y-83820000D03*
G04 #@! TD*
D20*
G04 #@! TO.N,/SCLKNN*
X119638299Y-86427919D02*
X119638299Y-85593701D01*
X121570380Y-88360000D02*
X119638299Y-86427919D01*
D21*
G04 #@! TO.N,/VCCB*
X116205000Y-117475000D02*
X107950000Y-117475000D01*
X107950000Y-117475000D02*
X107315000Y-116840000D01*
D20*
G04 #@! TO.N,/SCLKi*
X106021561Y-116228439D02*
X106021561Y-118086561D01*
X106021561Y-118086561D02*
X106680000Y-118745000D01*
X106680000Y-118745000D02*
X123825000Y-118745000D01*
X123825000Y-118745000D02*
X125730000Y-116840000D01*
X125730000Y-116840000D02*
X128905000Y-116840000D01*
D21*
G04 #@! TO.N,/VCCB*
X129540000Y-114300000D02*
X122555000Y-114300000D01*
X133350000Y-88900000D02*
X133350000Y-90170000D01*
X133350000Y-88900000D02*
X133350000Y-87630000D01*
G04 #@! TO.N,+3V3*
X134620000Y-109855000D02*
X132080000Y-109855000D01*
X135350000Y-88900000D02*
X135350000Y-91840000D01*
X135350000Y-91840000D02*
X137160000Y-93650000D01*
G04 #@! TO.N,+5V*
X130810000Y-85090000D02*
X130810000Y-88360000D01*
X130810000Y-88360000D02*
X131350000Y-88900000D01*
D20*
G04 #@! TO.N,/B1x*
X99060000Y-89535000D02*
X99060000Y-88265000D01*
X99060000Y-88265000D02*
X97155000Y-86360000D01*
X97155000Y-86360000D02*
X91440000Y-86360000D01*
X88900000Y-88900000D02*
X88900000Y-89535000D01*
X91440000Y-86360000D02*
X88900000Y-88900000D01*
X88900000Y-89535000D02*
X88265000Y-90170000D01*
X88265000Y-96547412D02*
X90447588Y-98730000D01*
X88265000Y-90170000D02*
X88265000Y-96547412D01*
G04 #@! TO.N,/SCLKi*
X121980000Y-86360000D02*
X123190000Y-86360000D01*
X123190000Y-86360000D02*
X124460000Y-87630000D01*
G04 #@! TO.N,/LATCH*
X128270000Y-118110000D02*
X126365000Y-118110000D01*
X126365000Y-118110000D02*
X125095000Y-119380000D01*
X125095000Y-119380000D02*
X105410000Y-119380000D01*
X105410000Y-119380000D02*
X104775000Y-118745000D01*
G04 #@! TO.N,/BLANK*
X126365000Y-119380000D02*
X125730000Y-120015000D01*
X125730000Y-120015000D02*
X104775000Y-120015000D01*
G04 #@! TO.N,/A2x*
X99060000Y-107342412D02*
X95277412Y-111125000D01*
X95277412Y-111125000D02*
X90805000Y-111125000D01*
X99060000Y-106680000D02*
X99060000Y-107342412D01*
G04 #@! TO.N,/R1x*
X97155000Y-88900000D02*
X95885000Y-87630000D01*
X91440000Y-87630000D02*
X90170000Y-88900000D01*
X91440000Y-87630000D02*
X95885000Y-87630000D01*
X97155000Y-89535000D02*
X97155000Y-88900000D01*
G04 #@! TO.N,/Bx*
X95250000Y-88900000D02*
X92710000Y-88900000D01*
G04 #@! TO.N,/SCLKx*
X99060000Y-111125000D02*
X96520000Y-111125000D01*
G04 #@! TO.N,/A3*
X115570000Y-109220000D02*
X109855000Y-109220000D01*
G04 #@! TO.N,/B1*
X104775000Y-81280000D02*
X104775000Y-87630000D01*
G04 #@! TO.N,/G1*
X103505000Y-81280000D02*
X103505000Y-90093731D01*
X103505000Y-90093731D02*
X103542626Y-90131357D01*
G04 #@! TO.N,/R*
X107315000Y-83185000D02*
X108585000Y-81915000D01*
X109220000Y-86995000D02*
X108585000Y-86995000D01*
X107315000Y-85725000D02*
X108585000Y-86995000D01*
X107315000Y-85725000D02*
X107315000Y-83185000D01*
G04 #@! TO.N,/G*
X108734500Y-85725000D02*
X108585000Y-85575500D01*
X108585000Y-85575500D02*
X108585000Y-83185000D01*
G04 #@! TO.N,/SCLK*
X124460000Y-83820000D02*
X122520000Y-83820000D01*
X122520000Y-83820000D02*
X121980000Y-84360000D01*
G04 #@! TD*
G04 #@! TA.AperFunction,Conductor*
G04 #@! TO.N,GND*
G36*
X113943403Y-78017195D02*
G01*
X115161602Y-78046263D01*
X116139704Y-78069602D01*
X116144484Y-78069807D01*
X116215861Y-78074226D01*
X118310299Y-78203895D01*
X118315389Y-78204314D01*
X120412772Y-78420420D01*
X120416657Y-78420881D01*
X120823743Y-78475840D01*
X121220312Y-78529379D01*
X121224524Y-78530020D01*
X122167525Y-78689960D01*
X123293084Y-78880864D01*
X123299774Y-78882186D01*
X124092976Y-79061525D01*
X125219223Y-79316163D01*
X125226718Y-79318101D01*
X127027724Y-79843420D01*
X127035653Y-79846021D01*
X128746867Y-80470767D01*
X128754782Y-80473965D01*
X130410278Y-81208920D01*
X130414374Y-81210827D01*
X130525091Y-81264812D01*
X130530092Y-81267390D01*
X131160550Y-81610542D01*
X132221487Y-82188000D01*
X132231202Y-82193870D01*
X133765748Y-83218153D01*
X133775535Y-83225393D01*
X134205456Y-83576780D01*
X135145143Y-84344813D01*
X135161940Y-84358542D01*
X135171415Y-84367124D01*
X136405648Y-85604711D01*
X136412221Y-85611302D01*
X136420986Y-85621058D01*
X137443405Y-86885756D01*
X137518672Y-86978859D01*
X137526381Y-86989482D01*
X137707734Y-87268945D01*
X138483156Y-88463859D01*
X138489572Y-88474941D01*
X139307257Y-90069048D01*
X139312294Y-90080161D01*
X139992262Y-91797124D01*
X139995971Y-91807888D01*
X140342735Y-92984118D01*
X140518666Y-93580879D01*
X140539204Y-93650546D01*
X140541740Y-93660678D01*
X140728381Y-94563881D01*
X140950166Y-95637155D01*
X140951194Y-95642768D01*
X141009072Y-96005036D01*
X141009832Y-96010590D01*
X141053818Y-96396335D01*
X141055303Y-96409355D01*
X141055776Y-96414407D01*
X141092500Y-96915055D01*
X141096554Y-96970329D01*
X141096723Y-96973025D01*
X141131656Y-97650118D01*
X141131738Y-97651699D01*
X141131817Y-97653482D01*
X141141936Y-97926514D01*
X141160104Y-98416754D01*
X141160148Y-98418185D01*
X141180984Y-99229406D01*
X141181011Y-99230692D01*
X141181897Y-99287971D01*
X141193686Y-100049983D01*
X141193756Y-100054534D01*
X141193768Y-100055754D01*
X141197575Y-100813794D01*
X141197788Y-100856201D01*
X141197787Y-100857717D01*
X141196675Y-101013158D01*
X141192484Y-101598993D01*
X141192452Y-101601050D01*
X141191615Y-101636688D01*
X141177415Y-102241392D01*
X141177302Y-102246200D01*
X141177184Y-102249434D01*
X141168523Y-102424500D01*
X141151809Y-102762345D01*
X141151492Y-102767009D01*
X141133282Y-102976922D01*
X141132395Y-102984481D01*
X140831709Y-105015916D01*
X140829764Y-105026127D01*
X140713577Y-105523543D01*
X140390201Y-106907971D01*
X140383062Y-106938533D01*
X140380033Y-106949313D01*
X139790050Y-108738937D01*
X139787807Y-108745742D01*
X139783538Y-108756886D01*
X139658234Y-109042670D01*
X139046581Y-110437689D01*
X139040992Y-110448888D01*
X138749005Y-110967733D01*
X138164988Y-112005501D01*
X138159817Y-112014689D01*
X138152931Y-112025582D01*
X137543425Y-112888513D01*
X137127713Y-113477074D01*
X137119661Y-113487307D01*
X135950242Y-114825101D01*
X135941275Y-114834358D01*
X134627182Y-116058872D01*
X134617629Y-116066927D01*
X133158264Y-117178226D01*
X133148474Y-117184974D01*
X132160958Y-117798814D01*
X131543261Y-118182774D01*
X131533501Y-118188255D01*
X130336923Y-118791988D01*
X129789307Y-119068288D01*
X129782009Y-119071970D01*
X129772561Y-119076259D01*
X128030778Y-119781826D01*
X127874534Y-119845118D01*
X127865570Y-119848360D01*
X126720827Y-120214038D01*
X126649852Y-120215713D01*
X126634906Y-120206599D01*
X126589071Y-120253449D01*
X126565819Y-120263554D01*
X126255599Y-120362651D01*
X126184622Y-120364326D01*
X126124007Y-120327362D01*
X126092998Y-120263495D01*
X126101441Y-120193003D01*
X126128163Y-120153531D01*
X126211178Y-120070516D01*
X126273490Y-120036490D01*
X126302252Y-120033627D01*
X126426318Y-120035576D01*
X126426321Y-120035576D01*
X126433916Y-120035695D01*
X126499348Y-120020709D01*
X126570215Y-120024998D01*
X126577990Y-120030687D01*
X126611885Y-119989652D01*
X126625874Y-119981448D01*
X126723071Y-119932563D01*
X126729855Y-119929151D01*
X126735626Y-119924222D01*
X126735629Y-119924220D01*
X126844536Y-119831204D01*
X126844536Y-119831203D01*
X126850314Y-119826269D01*
X126942755Y-119697624D01*
X127001842Y-119550641D01*
X127024162Y-119393807D01*
X127024307Y-119380000D01*
X127005276Y-119222733D01*
X126949280Y-119074546D01*
X126859553Y-118943992D01*
X126741275Y-118838611D01*
X126601274Y-118764484D01*
X126533845Y-118747547D01*
X126472650Y-118711552D01*
X126440629Y-118648187D01*
X126447949Y-118577569D01*
X126475446Y-118536248D01*
X126485289Y-118526405D01*
X126547601Y-118492379D01*
X126574384Y-118489500D01*
X127670141Y-118489500D01*
X127738262Y-118509502D01*
X127765522Y-118533169D01*
X127766672Y-118534501D01*
X127770908Y-118540805D01*
X127776525Y-118545916D01*
X127862093Y-118623776D01*
X127888076Y-118647419D01*
X128027293Y-118723008D01*
X128180522Y-118763207D01*
X128264477Y-118764526D01*
X128331319Y-118765576D01*
X128331322Y-118765576D01*
X128338916Y-118765695D01*
X128493332Y-118730329D01*
X128564342Y-118694615D01*
X128628072Y-118662563D01*
X128628075Y-118662561D01*
X128634855Y-118659151D01*
X128640626Y-118654222D01*
X128640629Y-118654220D01*
X128749536Y-118561204D01*
X128749536Y-118561203D01*
X128755314Y-118556269D01*
X128847755Y-118427624D01*
X128906842Y-118280641D01*
X128916785Y-118210776D01*
X128928581Y-118127891D01*
X128928581Y-118127888D01*
X128929162Y-118123807D01*
X128929307Y-118110000D01*
X128910276Y-117952733D01*
X128854280Y-117804546D01*
X128776661Y-117691609D01*
X128754561Y-117624141D01*
X128772446Y-117555434D01*
X128824638Y-117507304D01*
X128882480Y-117494259D01*
X128966318Y-117495576D01*
X128966321Y-117495576D01*
X128973916Y-117495695D01*
X129128332Y-117460329D01*
X129198742Y-117424917D01*
X129263072Y-117392563D01*
X129263075Y-117392561D01*
X129269855Y-117389151D01*
X129275626Y-117384222D01*
X129275629Y-117384220D01*
X129384536Y-117291204D01*
X129384536Y-117291203D01*
X129390314Y-117286269D01*
X129482755Y-117157624D01*
X129541842Y-117010641D01*
X129550401Y-116950498D01*
X129563581Y-116857891D01*
X129563581Y-116857888D01*
X129564162Y-116853807D01*
X129564307Y-116840000D01*
X129545276Y-116682733D01*
X129489280Y-116534546D01*
X129465767Y-116500334D01*
X129403855Y-116410251D01*
X129403854Y-116410249D01*
X129399553Y-116403992D01*
X129281275Y-116298611D01*
X129273889Y-116294700D01*
X129149964Y-116229085D01*
X129141274Y-116224484D01*
X128987633Y-116185892D01*
X128980034Y-116185852D01*
X128980033Y-116185852D01*
X128914181Y-116185507D01*
X128829221Y-116185062D01*
X128821841Y-116186834D01*
X128821839Y-116186834D01*
X128682563Y-116220271D01*
X128682560Y-116220272D01*
X128675184Y-116222043D01*
X128534414Y-116294700D01*
X128415039Y-116398838D01*
X128410672Y-116405051D01*
X128410667Y-116405057D01*
X128409336Y-116406951D01*
X128408013Y-116408005D01*
X128405589Y-116410697D01*
X128405140Y-116410293D01*
X128353802Y-116451183D01*
X128306250Y-116460500D01*
X125783920Y-116460500D01*
X125759972Y-116457951D01*
X125758307Y-116457872D01*
X125748124Y-116455680D01*
X125737783Y-116456904D01*
X125714777Y-116459627D01*
X125708846Y-116459977D01*
X125708854Y-116460072D01*
X125703676Y-116460500D01*
X125698476Y-116460500D01*
X125693347Y-116461354D01*
X125693344Y-116461354D01*
X125679435Y-116463669D01*
X125673557Y-116464506D01*
X125632999Y-116469306D01*
X125632998Y-116469306D01*
X125622659Y-116470530D01*
X125614407Y-116474493D01*
X125605374Y-116475996D01*
X125596205Y-116480943D01*
X125596203Y-116480944D01*
X125560268Y-116500334D01*
X125554975Y-116503031D01*
X125515918Y-116521785D01*
X125515914Y-116521788D01*
X125508768Y-116525219D01*
X125504492Y-116528814D01*
X125502569Y-116530737D01*
X125500637Y-116532509D01*
X125500558Y-116532552D01*
X125500445Y-116532428D01*
X125499905Y-116532904D01*
X125494186Y-116535990D01*
X125487119Y-116543635D01*
X125457584Y-116575586D01*
X125454154Y-116579152D01*
X123704711Y-118328595D01*
X123642399Y-118362621D01*
X123615616Y-118365500D01*
X116363239Y-118365500D01*
X116295118Y-118345498D01*
X116248625Y-118291842D01*
X116238521Y-118221568D01*
X116268015Y-118156988D01*
X116327741Y-118118604D01*
X116335109Y-118116680D01*
X116420929Y-118097025D01*
X116420933Y-118097024D01*
X116428332Y-118095329D01*
X116505359Y-118056589D01*
X116563072Y-118027563D01*
X116563075Y-118027561D01*
X116569855Y-118024151D01*
X116575626Y-118019222D01*
X116575629Y-118019220D01*
X116684536Y-117926204D01*
X116684536Y-117926203D01*
X116690314Y-117921269D01*
X116782755Y-117792624D01*
X116841842Y-117645641D01*
X116854680Y-117555434D01*
X116863581Y-117492891D01*
X116863581Y-117492888D01*
X116864162Y-117488807D01*
X116864307Y-117475000D01*
X116845276Y-117317733D01*
X116789280Y-117169546D01*
X116740809Y-117099020D01*
X116703855Y-117045251D01*
X116703854Y-117045249D01*
X116699553Y-117038992D01*
X116581275Y-116933611D01*
X116573889Y-116929700D01*
X116447988Y-116863039D01*
X116447989Y-116863039D01*
X116441274Y-116859484D01*
X116287633Y-116820892D01*
X116280034Y-116820852D01*
X116280033Y-116820852D01*
X116214181Y-116820507D01*
X116129221Y-116820062D01*
X116121841Y-116821834D01*
X116121839Y-116821834D01*
X115982563Y-116855271D01*
X115982560Y-116855272D01*
X115975184Y-116857043D01*
X115968439Y-116860524D01*
X115968440Y-116860524D01*
X115856486Y-116918308D01*
X115834414Y-116929700D01*
X115828692Y-116934692D01*
X115828690Y-116934693D01*
X115823236Y-116939451D01*
X115758753Y-116969157D01*
X115740409Y-116970500D01*
X108211161Y-116970500D01*
X108143040Y-116950498D01*
X108122066Y-116933595D01*
X107997615Y-116809144D01*
X107963589Y-116746832D01*
X107961626Y-116735209D01*
X107955276Y-116682733D01*
X107899280Y-116534546D01*
X107875767Y-116500334D01*
X107813855Y-116410251D01*
X107813854Y-116410249D01*
X107809553Y-116403992D01*
X107691275Y-116298611D01*
X107683889Y-116294700D01*
X107559964Y-116229085D01*
X107551274Y-116224484D01*
X107397633Y-116185892D01*
X107390034Y-116185852D01*
X107390033Y-116185852D01*
X107324181Y-116185507D01*
X107239221Y-116185062D01*
X107231841Y-116186834D01*
X107231839Y-116186834D01*
X107092563Y-116220271D01*
X107092560Y-116220272D01*
X107085184Y-116222043D01*
X106944414Y-116294700D01*
X106938697Y-116299687D01*
X106938690Y-116299692D01*
X106889215Y-116342852D01*
X106824733Y-116372560D01*
X106754426Y-116362690D01*
X106700615Y-116316376D01*
X106680387Y-116248322D01*
X106680568Y-116243332D01*
X106680723Y-116242246D01*
X106680868Y-116228439D01*
X106679532Y-116217394D01*
X106675719Y-116185892D01*
X106661837Y-116071172D01*
X106605841Y-115922985D01*
X106516114Y-115792431D01*
X106397836Y-115687050D01*
X106390450Y-115683139D01*
X106302589Y-115636619D01*
X106257835Y-115612923D01*
X106104194Y-115574331D01*
X106096595Y-115574291D01*
X106096594Y-115574291D01*
X106030742Y-115573946D01*
X105945782Y-115573501D01*
X105938402Y-115575273D01*
X105938400Y-115575273D01*
X105799124Y-115608710D01*
X105799121Y-115608711D01*
X105791745Y-115610482D01*
X105650975Y-115683139D01*
X105531600Y-115787277D01*
X105440511Y-115916883D01*
X105382967Y-116064476D01*
X105381975Y-116072009D01*
X105381975Y-116072010D01*
X105366739Y-116187743D01*
X105362290Y-116221535D01*
X105370368Y-116294700D01*
X105374238Y-116329751D01*
X105379674Y-116378992D01*
X105382284Y-116386123D01*
X105382284Y-116386125D01*
X105416983Y-116480944D01*
X105434114Y-116527758D01*
X105438350Y-116534061D01*
X105438350Y-116534062D01*
X105497001Y-116621343D01*
X105522469Y-116659244D01*
X105528088Y-116664357D01*
X105528089Y-116664358D01*
X105600860Y-116730574D01*
X105637783Y-116791214D01*
X105642061Y-116823768D01*
X105642061Y-118032641D01*
X105639512Y-118056589D01*
X105639433Y-118058254D01*
X105637241Y-118068437D01*
X105638465Y-118078778D01*
X105641188Y-118101784D01*
X105641538Y-118107715D01*
X105641633Y-118107707D01*
X105642061Y-118112885D01*
X105642061Y-118118085D01*
X105642915Y-118123214D01*
X105642915Y-118123217D01*
X105645230Y-118137126D01*
X105646067Y-118143004D01*
X105648857Y-118166574D01*
X105652091Y-118193902D01*
X105656054Y-118202154D01*
X105657557Y-118211187D01*
X105662504Y-118220356D01*
X105662505Y-118220358D01*
X105681895Y-118256293D01*
X105684592Y-118261586D01*
X105703346Y-118300643D01*
X105703349Y-118300647D01*
X105706780Y-118307793D01*
X105710375Y-118312069D01*
X105712298Y-118313992D01*
X105714070Y-118315924D01*
X105714113Y-118316003D01*
X105713989Y-118316116D01*
X105714465Y-118316656D01*
X105717551Y-118322375D01*
X105725196Y-118329442D01*
X105757147Y-118358977D01*
X105760713Y-118362407D01*
X106183711Y-118785405D01*
X106217737Y-118847717D01*
X106212672Y-118918532D01*
X106170125Y-118975368D01*
X106103605Y-119000179D01*
X106094616Y-119000500D01*
X105619384Y-119000500D01*
X105551263Y-118980498D01*
X105530289Y-118963595D01*
X105465143Y-118898449D01*
X105431117Y-118836137D01*
X105429495Y-118791601D01*
X105433581Y-118762892D01*
X105433581Y-118762886D01*
X105434162Y-118758807D01*
X105434307Y-118745000D01*
X105415276Y-118587733D01*
X105359280Y-118439546D01*
X105306411Y-118362621D01*
X105273855Y-118315251D01*
X105273854Y-118315249D01*
X105269553Y-118308992D01*
X105151275Y-118203611D01*
X105143889Y-118199700D01*
X105089708Y-118171013D01*
X105011274Y-118129484D01*
X104857633Y-118090892D01*
X104850034Y-118090852D01*
X104850033Y-118090852D01*
X104784181Y-118090507D01*
X104699221Y-118090062D01*
X104691841Y-118091834D01*
X104691839Y-118091834D01*
X104552563Y-118125271D01*
X104552560Y-118125272D01*
X104545184Y-118127043D01*
X104404414Y-118199700D01*
X104285039Y-118303838D01*
X104193950Y-118433444D01*
X104191190Y-118440524D01*
X104144139Y-118561204D01*
X104136406Y-118581037D01*
X104135414Y-118588570D01*
X104135414Y-118588571D01*
X104116752Y-118730329D01*
X104115729Y-118738096D01*
X104118763Y-118765576D01*
X104128518Y-118853930D01*
X104133113Y-118895553D01*
X104135723Y-118902684D01*
X104135723Y-118902686D01*
X104171518Y-119000500D01*
X104187553Y-119044319D01*
X104191789Y-119050622D01*
X104191789Y-119050623D01*
X104224821Y-119099779D01*
X104275908Y-119175805D01*
X104281527Y-119180918D01*
X104281528Y-119180919D01*
X104335768Y-119230273D01*
X104388374Y-119278141D01*
X104388376Y-119278143D01*
X104393076Y-119282419D01*
X104392364Y-119283202D01*
X104431993Y-119333488D01*
X104438813Y-119404156D01*
X104406345Y-119467294D01*
X104397895Y-119475386D01*
X104285039Y-119573838D01*
X104193950Y-119703444D01*
X104165178Y-119777241D01*
X104144139Y-119831204D01*
X104136406Y-119851037D01*
X104135414Y-119858570D01*
X104135414Y-119858571D01*
X104116752Y-120000329D01*
X104115729Y-120008096D01*
X104124421Y-120086825D01*
X104131786Y-120153531D01*
X104133113Y-120165553D01*
X104135723Y-120172684D01*
X104135723Y-120172686D01*
X104183526Y-120303314D01*
X104187553Y-120314319D01*
X104191789Y-120320622D01*
X104191789Y-120320623D01*
X104234693Y-120384470D01*
X104275908Y-120445805D01*
X104281527Y-120450918D01*
X104281528Y-120450919D01*
X104292903Y-120461269D01*
X104393076Y-120552419D01*
X104532293Y-120628008D01*
X104685522Y-120668207D01*
X104769477Y-120669526D01*
X104836319Y-120670576D01*
X104836322Y-120670576D01*
X104843916Y-120670695D01*
X104998332Y-120635329D01*
X105068742Y-120599917D01*
X105133072Y-120567563D01*
X105133075Y-120567561D01*
X105139855Y-120564151D01*
X105145626Y-120559222D01*
X105145629Y-120559220D01*
X105254542Y-120466199D01*
X105254543Y-120466198D01*
X105260314Y-120461269D01*
X105270586Y-120446974D01*
X105326581Y-120403326D01*
X105372909Y-120394500D01*
X125214814Y-120394500D01*
X125282935Y-120414502D01*
X125329428Y-120468158D01*
X125339532Y-120538432D01*
X125310038Y-120603012D01*
X125244781Y-120642884D01*
X124875307Y-120733354D01*
X123794618Y-120997973D01*
X123618518Y-121041093D01*
X123612915Y-121042331D01*
X122622665Y-121237443D01*
X122617993Y-121238273D01*
X121024274Y-121490375D01*
X121019140Y-121491079D01*
X119287223Y-121692449D01*
X119282920Y-121692874D01*
X118348126Y-121769163D01*
X117455079Y-121842044D01*
X117451254Y-121842298D01*
X115975980Y-121917124D01*
X115572215Y-121937603D01*
X115568498Y-121937737D01*
X115397721Y-121941351D01*
X113682818Y-121977644D01*
X113679060Y-121977667D01*
X112098379Y-121963197D01*
X111831183Y-121960751D01*
X111826984Y-121960642D01*
X110061717Y-121885586D01*
X110056770Y-121885278D01*
X108415020Y-121750630D01*
X108411491Y-121750291D01*
X108113004Y-121717334D01*
X108108773Y-121716794D01*
X106550195Y-121491079D01*
X105637811Y-121358946D01*
X105630216Y-121357608D01*
X103298691Y-120872345D01*
X103290504Y-120870353D01*
X103069022Y-120808557D01*
X101616636Y-120403326D01*
X101094782Y-120257723D01*
X101086072Y-120254948D01*
X100452725Y-120027588D01*
X99026532Y-119515610D01*
X99017412Y-119511928D01*
X98343093Y-119208482D01*
X97094273Y-118646508D01*
X97084865Y-118641793D01*
X95298172Y-117650826D01*
X95288699Y-117645011D01*
X93638403Y-116528903D01*
X93629115Y-116521978D01*
X92110365Y-115277089D01*
X92104391Y-115271869D01*
X91718868Y-114913008D01*
X91632437Y-114832554D01*
X91626669Y-114826827D01*
X91605590Y-114804500D01*
X91122759Y-114293096D01*
X121895729Y-114293096D01*
X121904421Y-114371824D01*
X121910569Y-114427506D01*
X121913113Y-114450553D01*
X121915723Y-114457684D01*
X121915723Y-114457686D01*
X121962161Y-114584584D01*
X121967553Y-114599319D01*
X121971789Y-114605622D01*
X121971789Y-114605623D01*
X122032853Y-114696495D01*
X122055908Y-114730805D01*
X122061527Y-114735918D01*
X122061528Y-114735919D01*
X122161435Y-114826827D01*
X122173076Y-114837419D01*
X122312293Y-114913008D01*
X122465522Y-114953207D01*
X122549477Y-114954526D01*
X122616319Y-114955576D01*
X122616322Y-114955576D01*
X122623916Y-114955695D01*
X122778332Y-114920329D01*
X122853802Y-114882372D01*
X122913072Y-114852563D01*
X122913075Y-114852561D01*
X122919855Y-114849151D01*
X122936789Y-114834688D01*
X123001579Y-114805658D01*
X123018619Y-114804500D01*
X129073153Y-114804500D01*
X129141274Y-114824502D01*
X129146068Y-114828185D01*
X129146266Y-114827907D01*
X129152459Y-114832308D01*
X129158076Y-114837419D01*
X129297293Y-114913008D01*
X129450522Y-114953207D01*
X129534477Y-114954526D01*
X129601319Y-114955576D01*
X129601322Y-114955576D01*
X129608916Y-114955695D01*
X129763332Y-114920329D01*
X129838802Y-114882372D01*
X129898072Y-114852563D01*
X129898075Y-114852561D01*
X129904855Y-114849151D01*
X129910626Y-114844222D01*
X129910629Y-114844220D01*
X130019536Y-114751204D01*
X130019536Y-114751203D01*
X130025314Y-114746269D01*
X130117755Y-114617624D01*
X130176842Y-114470641D01*
X130199162Y-114313807D01*
X130199307Y-114300000D01*
X130180276Y-114142733D01*
X130124280Y-113994546D01*
X130089876Y-113944487D01*
X130038855Y-113870251D01*
X130038854Y-113870249D01*
X130034553Y-113863992D01*
X129916275Y-113758611D01*
X129908889Y-113754700D01*
X129821254Y-113708300D01*
X129776274Y-113684484D01*
X129622633Y-113645892D01*
X129615034Y-113645852D01*
X129615033Y-113645852D01*
X129549181Y-113645507D01*
X129464221Y-113645062D01*
X129456841Y-113646834D01*
X129456839Y-113646834D01*
X129317563Y-113680271D01*
X129317560Y-113680272D01*
X129310184Y-113682043D01*
X129169414Y-113754700D01*
X129163692Y-113759692D01*
X129163690Y-113759693D01*
X129158236Y-113764451D01*
X129093753Y-113794157D01*
X129075409Y-113795500D01*
X123020667Y-113795500D01*
X122952546Y-113775498D01*
X122937143Y-113763802D01*
X122936954Y-113763670D01*
X122931275Y-113758611D01*
X122791274Y-113684484D01*
X122637633Y-113645892D01*
X122630034Y-113645852D01*
X122630033Y-113645852D01*
X122564181Y-113645507D01*
X122479221Y-113645062D01*
X122471841Y-113646834D01*
X122471839Y-113646834D01*
X122332563Y-113680271D01*
X122332560Y-113680272D01*
X122325184Y-113682043D01*
X122184414Y-113754700D01*
X122065039Y-113858838D01*
X121973950Y-113988444D01*
X121971190Y-113995524D01*
X121920321Y-114125996D01*
X121916406Y-114136037D01*
X121915414Y-114143570D01*
X121915414Y-114143571D01*
X121897257Y-114281492D01*
X121895729Y-114293096D01*
X91122759Y-114293096D01*
X91026144Y-114190763D01*
X90368477Y-113494176D01*
X90360724Y-113485146D01*
X89915938Y-112914616D01*
X89232034Y-112037366D01*
X89225333Y-112027900D01*
X88371332Y-110695251D01*
X88233906Y-110480801D01*
X88228112Y-110470774D01*
X87901654Y-109840565D01*
X87385925Y-108844980D01*
X87381004Y-108834283D01*
X87380944Y-108834133D01*
X87063306Y-108048968D01*
X86699853Y-107150552D01*
X86695832Y-107139038D01*
X86366856Y-106026834D01*
X86185568Y-105413935D01*
X86184408Y-105409749D01*
X86181984Y-105400371D01*
X86114856Y-105140731D01*
X86104028Y-105098851D01*
X86102404Y-105091724D01*
X86099688Y-105077968D01*
X86097326Y-105072241D01*
X86096963Y-105071040D01*
X86096535Y-105069872D01*
X86094986Y-105063881D01*
X86092296Y-105058302D01*
X86088894Y-105051247D01*
X86085910Y-105044570D01*
X86022094Y-104889882D01*
X86011192Y-104863457D01*
X86006035Y-104848284D01*
X86003101Y-104837427D01*
X85999154Y-104822826D01*
X85983827Y-104802941D01*
X85976278Y-104793147D01*
X85971211Y-104786082D01*
X85957308Y-104765211D01*
X85957306Y-104765209D01*
X85950426Y-104754881D01*
X85928513Y-104740194D01*
X85915814Y-104730458D01*
X85843507Y-104667327D01*
X85841034Y-104664872D01*
X85836871Y-104657742D01*
X85806886Y-104634965D01*
X85800240Y-104629551D01*
X85791121Y-104621589D01*
X85785749Y-104618503D01*
X85780717Y-104614914D01*
X85780802Y-104614795D01*
X85777111Y-104612349D01*
X85766129Y-104604007D01*
X85756246Y-104596500D01*
X85744240Y-104593346D01*
X85740351Y-104591452D01*
X85736253Y-104590071D01*
X85725490Y-104583888D01*
X85713182Y-104582295D01*
X85713181Y-104582295D01*
X85702664Y-104580934D01*
X85699508Y-104580526D01*
X85695165Y-104579678D01*
X85695142Y-104579821D01*
X85689033Y-104578843D01*
X85683042Y-104577269D01*
X85676861Y-104576894D01*
X85676859Y-104576894D01*
X85670966Y-104576537D01*
X85662419Y-104575726D01*
X85637385Y-104572486D01*
X85637383Y-104572486D01*
X85625081Y-104570894D01*
X85617112Y-104573048D01*
X85613619Y-104573060D01*
X85513293Y-104566978D01*
X85503525Y-104566003D01*
X85497730Y-104565195D01*
X85486011Y-104561118D01*
X85457969Y-104562742D01*
X85452344Y-104562734D01*
X85446753Y-104562944D01*
X85440572Y-104562570D01*
X85434443Y-104563408D01*
X85434431Y-104563408D01*
X85430437Y-104563954D01*
X85420671Y-104564903D01*
X85416632Y-104565137D01*
X85410450Y-104565495D01*
X85404461Y-104567051D01*
X85398939Y-104567920D01*
X85393382Y-104569018D01*
X85381526Y-104570637D01*
X85379649Y-104570894D01*
X85365580Y-104572816D01*
X85354863Y-104579074D01*
X85349333Y-104580981D01*
X85339940Y-104583816D01*
X85310553Y-104591452D01*
X85111610Y-104643145D01*
X85099984Y-104645545D01*
X85099534Y-104645660D01*
X85093412Y-104646603D01*
X85087599Y-104648719D01*
X85087595Y-104648720D01*
X85086821Y-104649002D01*
X85075422Y-104652549D01*
X85074640Y-104652752D01*
X85074638Y-104652753D01*
X85068645Y-104654310D01*
X85063069Y-104657007D01*
X85062616Y-104657174D01*
X85051715Y-104661781D01*
X84665084Y-104802520D01*
X84664805Y-104802609D01*
X84662855Y-104802941D01*
X84658365Y-104804657D01*
X84658364Y-104804657D01*
X84642225Y-104810824D01*
X84640350Y-104811523D01*
X84619677Y-104819049D01*
X84617988Y-104820074D01*
X84617733Y-104820184D01*
X84503148Y-104863970D01*
X84498703Y-104865572D01*
X84495681Y-104866598D01*
X84489659Y-104868002D01*
X84484027Y-104870554D01*
X84484026Y-104870554D01*
X84477292Y-104873605D01*
X84470271Y-104876533D01*
X84463379Y-104879167D01*
X84463376Y-104879168D01*
X84457591Y-104881379D01*
X84452350Y-104884674D01*
X84449513Y-104886091D01*
X84445217Y-104888136D01*
X84387171Y-104914434D01*
X83455122Y-105336701D01*
X83444287Y-105341017D01*
X83437279Y-105343438D01*
X83431941Y-105346558D01*
X83431078Y-105346955D01*
X83422690Y-105351292D01*
X83421859Y-105351772D01*
X83416219Y-105354327D01*
X83411187Y-105357933D01*
X83411183Y-105357935D01*
X83410182Y-105358652D01*
X83400387Y-105365004D01*
X82930085Y-105639934D01*
X82488428Y-105898119D01*
X82356145Y-105975449D01*
X82348623Y-105979299D01*
X82345832Y-105980880D01*
X82340170Y-105983389D01*
X82332834Y-105988555D01*
X82323869Y-105994317D01*
X82316121Y-105998846D01*
X82311486Y-106002956D01*
X82308882Y-106004843D01*
X82302254Y-106010088D01*
X81968575Y-106245052D01*
X81274795Y-106733586D01*
X81206049Y-106781994D01*
X81202262Y-106784313D01*
X81202340Y-106784431D01*
X81197180Y-106787839D01*
X81191702Y-106790729D01*
X81186898Y-106794629D01*
X81186893Y-106794632D01*
X81182342Y-106798327D01*
X81175484Y-106803516D01*
X81165620Y-106810462D01*
X81161350Y-106814946D01*
X81156662Y-106818989D01*
X81156570Y-106818883D01*
X81153309Y-106821896D01*
X80290195Y-107522563D01*
X79994556Y-107762560D01*
X79993512Y-107763351D01*
X79990226Y-107765220D01*
X79985546Y-107769270D01*
X79985544Y-107769272D01*
X79975785Y-107777719D01*
X79972738Y-107780273D01*
X79957958Y-107792270D01*
X79955546Y-107795177D01*
X79954602Y-107796051D01*
X79880091Y-107860538D01*
X79879660Y-107860883D01*
X79877417Y-107862223D01*
X79869876Y-107869037D01*
X79861879Y-107876263D01*
X79859860Y-107878049D01*
X79854888Y-107882352D01*
X79843938Y-107891829D01*
X79842329Y-107893897D01*
X79841921Y-107894295D01*
X79141669Y-108527021D01*
X79138087Y-108530111D01*
X79133151Y-108533421D01*
X79128782Y-108537804D01*
X79128781Y-108537805D01*
X79122463Y-108544143D01*
X79117703Y-108548675D01*
X79111074Y-108554665D01*
X79111071Y-108554668D01*
X79106483Y-108558814D01*
X79102939Y-108563577D01*
X79099672Y-108567009D01*
X78516270Y-109152311D01*
X78513000Y-109155195D01*
X78513111Y-109155313D01*
X78508607Y-109159559D01*
X78503711Y-109163342D01*
X78499648Y-109168006D01*
X78495626Y-109172622D01*
X78489874Y-109178794D01*
X78481189Y-109187507D01*
X78477758Y-109192660D01*
X78473837Y-109197454D01*
X78473710Y-109197350D01*
X78471068Y-109200811D01*
X78470177Y-109201834D01*
X77972954Y-109772563D01*
X77958840Y-109788763D01*
X77955742Y-109791887D01*
X77955854Y-109791991D01*
X77951643Y-109796537D01*
X77947015Y-109800641D01*
X77943276Y-109805570D01*
X77939649Y-109810351D01*
X77934272Y-109816962D01*
X77926271Y-109826146D01*
X77923193Y-109831518D01*
X77919606Y-109836558D01*
X77919482Y-109836470D01*
X77917056Y-109840134D01*
X77427599Y-110485362D01*
X77425325Y-110488208D01*
X77421398Y-110492040D01*
X77417901Y-110497138D01*
X77412353Y-110505225D01*
X77408835Y-110510099D01*
X77402912Y-110517906D01*
X77402909Y-110517911D01*
X77399169Y-110522841D01*
X77396764Y-110527786D01*
X77394782Y-110530838D01*
X77129498Y-110917539D01*
X77027383Y-111066390D01*
X77024833Y-111069924D01*
X77020897Y-111074176D01*
X77017663Y-111079445D01*
X77017662Y-111079446D01*
X77012840Y-111087302D01*
X77009358Y-111092665D01*
X77000641Y-111105372D01*
X76998359Y-111110698D01*
X76996175Y-111114453D01*
X76186601Y-112433411D01*
X76184157Y-112436878D01*
X76184314Y-112436981D01*
X76180908Y-112442143D01*
X76177006Y-112446954D01*
X76174118Y-112452433D01*
X76171129Y-112458103D01*
X76167051Y-112465261D01*
X76163679Y-112470755D01*
X76163675Y-112470763D01*
X76160438Y-112476037D01*
X76158291Y-112481844D01*
X76155587Y-112487410D01*
X76155419Y-112487329D01*
X76153678Y-112491208D01*
X75390294Y-113939378D01*
X75387883Y-113943739D01*
X75386823Y-113945570D01*
X75383216Y-113950593D01*
X75380659Y-113956220D01*
X75380658Y-113956222D01*
X75377457Y-113963267D01*
X75374210Y-113969890D01*
X75367726Y-113982191D01*
X75365963Y-113988125D01*
X75365169Y-113990074D01*
X75363199Y-113994647D01*
X74780508Y-115277089D01*
X74641949Y-115582043D01*
X74639659Y-115587082D01*
X74637684Y-115591174D01*
X74634506Y-115596117D01*
X74629551Y-115608710D01*
X74628926Y-115610298D01*
X74626393Y-115616279D01*
X74620076Y-115630181D01*
X74618735Y-115635905D01*
X74617167Y-115640179D01*
X73929603Y-117387399D01*
X73928407Y-117390214D01*
X73925802Y-117394695D01*
X73923795Y-117400550D01*
X73920427Y-117410375D01*
X73918481Y-117415661D01*
X73914685Y-117425306D01*
X73914683Y-117425312D01*
X73912415Y-117431076D01*
X73911494Y-117436178D01*
X73910586Y-117439078D01*
X73287097Y-119257695D01*
X73254883Y-119351657D01*
X73254280Y-119353250D01*
X73252298Y-119356955D01*
X73250499Y-119362878D01*
X73246969Y-119374497D01*
X73245599Y-119378735D01*
X73239649Y-119396091D01*
X73239088Y-119400252D01*
X73238643Y-119401902D01*
X72710493Y-121140451D01*
X72710453Y-121140566D01*
X72709851Y-121141719D01*
X72703352Y-121163940D01*
X72703025Y-121165034D01*
X72696282Y-121187231D01*
X72696153Y-121188528D01*
X72696118Y-121188672D01*
X72537946Y-121729458D01*
X72537629Y-121730524D01*
X72506279Y-121834299D01*
X72503863Y-121842299D01*
X72503703Y-121842827D01*
X72464856Y-121902253D01*
X72400048Y-121931243D01*
X72329855Y-121920593D01*
X72276562Y-121873684D01*
X72260217Y-121834299D01*
X72157778Y-121383310D01*
X72157587Y-121382457D01*
X72031500Y-120808962D01*
X72031331Y-120808182D01*
X71906705Y-120223705D01*
X71906532Y-120222877D01*
X71789849Y-119657052D01*
X71789642Y-119656030D01*
X71738632Y-119397891D01*
X71687287Y-119138055D01*
X71687017Y-119136644D01*
X71681486Y-119106778D01*
X71605627Y-118697223D01*
X71605173Y-118694615D01*
X71598055Y-118651042D01*
X71577692Y-118526405D01*
X71550921Y-118362540D01*
X71550463Y-118359507D01*
X71544661Y-118317608D01*
X71544036Y-118312253D01*
X71492592Y-117771260D01*
X71492180Y-117765558D01*
X71458408Y-117082969D01*
X71458281Y-117079362D01*
X71442100Y-116301195D01*
X71442073Y-116298391D01*
X71442182Y-116224331D01*
X71443284Y-115475364D01*
X71443315Y-115472761D01*
X71447774Y-115271869D01*
X71461481Y-114654362D01*
X71461577Y-114651512D01*
X71496116Y-113887227D01*
X71496345Y-113883449D01*
X71534396Y-113381946D01*
X71546427Y-113223389D01*
X71546978Y-113217787D01*
X71583659Y-112914616D01*
X71599118Y-112786849D01*
X71600008Y-112780755D01*
X71608886Y-112728845D01*
X71636205Y-112569096D01*
X71712782Y-112121311D01*
X71713432Y-112117807D01*
X71853480Y-111418517D01*
X71854134Y-111415452D01*
X71983370Y-110844302D01*
X72009408Y-110729230D01*
X72010197Y-110725949D01*
X72057958Y-110538509D01*
X72168663Y-110104042D01*
X72169900Y-110099541D01*
X72174723Y-110083178D01*
X72319424Y-109592248D01*
X72321277Y-109586480D01*
X72394640Y-109375792D01*
X72395783Y-109372645D01*
X72404166Y-109350500D01*
X72547961Y-108970605D01*
X72552061Y-108961103D01*
X72559408Y-108951420D01*
X72562556Y-108939414D01*
X72567154Y-108921878D01*
X72570407Y-108911688D01*
X72570768Y-108910350D01*
X72572960Y-108904560D01*
X72574242Y-108896888D01*
X72576637Y-108885704D01*
X72581937Y-108865487D01*
X72585084Y-108853484D01*
X72583614Y-108842763D01*
X72583646Y-108840580D01*
X72585429Y-108829906D01*
X72577921Y-108797430D01*
X72575858Y-108786203D01*
X72571328Y-108753176D01*
X72565865Y-108743830D01*
X72565060Y-108741803D01*
X72562622Y-108731261D01*
X72543261Y-108704134D01*
X72537061Y-108694557D01*
X72520232Y-108665769D01*
X72511608Y-108659226D01*
X72510092Y-108657665D01*
X72503803Y-108648853D01*
X72475546Y-108631208D01*
X72466132Y-108624718D01*
X72439577Y-108604568D01*
X72429109Y-108601823D01*
X72427102Y-108600957D01*
X72417925Y-108595227D01*
X72392393Y-108590962D01*
X72385054Y-108589736D01*
X72373876Y-108587343D01*
X72341640Y-108578892D01*
X72330919Y-108580362D01*
X72328736Y-108580330D01*
X72318062Y-108578547D01*
X72305973Y-108581342D01*
X72305968Y-108581342D01*
X72285603Y-108586051D01*
X72274345Y-108588121D01*
X72241333Y-108592648D01*
X72231986Y-108598112D01*
X72229965Y-108598915D01*
X72219418Y-108601353D01*
X72209314Y-108608564D01*
X72209313Y-108608565D01*
X72192296Y-108620710D01*
X72182694Y-108626926D01*
X72175990Y-108630845D01*
X72171363Y-108634947D01*
X72170234Y-108635765D01*
X72161869Y-108642428D01*
X72137009Y-108660172D01*
X72130570Y-108670484D01*
X72123142Y-108677699D01*
X71533206Y-109200716D01*
X71531495Y-109202146D01*
X71527568Y-109204655D01*
X71523106Y-109208938D01*
X71523105Y-109208939D01*
X71514919Y-109216797D01*
X71511251Y-109220181D01*
X71502764Y-109227705D01*
X71498134Y-109231810D01*
X71495320Y-109235519D01*
X71493741Y-109237125D01*
X70657819Y-110039525D01*
X70557740Y-110135591D01*
X70554371Y-110138431D01*
X70554474Y-110138545D01*
X70549882Y-110142691D01*
X70544900Y-110146372D01*
X70536700Y-110155386D01*
X70530751Y-110161496D01*
X70526436Y-110165638D01*
X70526431Y-110165643D01*
X70521969Y-110169927D01*
X70518426Y-110175001D01*
X70514406Y-110179700D01*
X70514290Y-110179601D01*
X70511549Y-110183034D01*
X70379612Y-110328071D01*
X69583882Y-111202810D01*
X69580752Y-111206128D01*
X69577821Y-111209125D01*
X69573082Y-111213102D01*
X69569209Y-111217929D01*
X69564777Y-111223453D01*
X69559704Y-111229389D01*
X69550769Y-111239211D01*
X69547576Y-111244516D01*
X69545071Y-111247881D01*
X69542288Y-111251482D01*
X68684190Y-112320949D01*
X68671075Y-112337295D01*
X68667775Y-112341240D01*
X68666870Y-112342278D01*
X68662365Y-112346523D01*
X68658775Y-112351564D01*
X68654154Y-112358052D01*
X68649804Y-112363804D01*
X68645089Y-112369682D01*
X68640941Y-112374852D01*
X68638087Y-112380335D01*
X68637329Y-112381498D01*
X68634432Y-112385747D01*
X68295383Y-112861854D01*
X68061721Y-113189973D01*
X68054281Y-113200420D01*
X68051604Y-113203695D01*
X68051766Y-113203819D01*
X68048015Y-113208735D01*
X68043791Y-113213268D01*
X68040535Y-113218536D01*
X68037126Y-113224050D01*
X68032589Y-113230881D01*
X68025236Y-113241206D01*
X68022698Y-113246852D01*
X68019616Y-113252226D01*
X68019438Y-113252124D01*
X68017464Y-113255854D01*
X67703445Y-113763802D01*
X67681207Y-113799774D01*
X67678326Y-113804212D01*
X67674392Y-113808923D01*
X67671430Y-113814354D01*
X67671424Y-113814362D01*
X67667334Y-113821860D01*
X67663909Y-113827754D01*
X67656154Y-113840298D01*
X67654004Y-113846056D01*
X67651561Y-113850776D01*
X67479124Y-114166890D01*
X67267482Y-114554876D01*
X67265095Y-114559251D01*
X67264150Y-114560863D01*
X67261492Y-114564294D01*
X67258728Y-114569835D01*
X67258725Y-114569839D01*
X67253406Y-114580500D01*
X67251275Y-114584584D01*
X67242610Y-114600470D01*
X67241317Y-114604604D01*
X67240538Y-114606294D01*
X66803552Y-115482220D01*
X66803141Y-115482974D01*
X66801280Y-115485510D01*
X66798663Y-115491114D01*
X66798662Y-115491116D01*
X66792751Y-115503774D01*
X66791334Y-115506709D01*
X66785113Y-115519179D01*
X66785111Y-115519185D01*
X66782352Y-115524715D01*
X66781525Y-115527746D01*
X66781197Y-115528520D01*
X66420412Y-116301195D01*
X66312492Y-116532322D01*
X66292350Y-116575458D01*
X66292240Y-116575670D01*
X66291213Y-116577111D01*
X66282013Y-116597569D01*
X66281325Y-116599068D01*
X66271835Y-116619393D01*
X66271413Y-116621113D01*
X66271321Y-116621343D01*
X66182752Y-116818290D01*
X66136570Y-116872214D01*
X66068566Y-116892610D01*
X66000331Y-116873002D01*
X65953528Y-116819617D01*
X65942477Y-116779295D01*
X65933651Y-116692050D01*
X65933541Y-116690910D01*
X65933483Y-116690265D01*
X65884156Y-116149618D01*
X65884072Y-116148652D01*
X65877710Y-116072010D01*
X65845456Y-115683494D01*
X65837034Y-115582043D01*
X65836954Y-115581026D01*
X65808550Y-115201623D01*
X65795117Y-115022178D01*
X65795035Y-115021024D01*
X65790773Y-114955695D01*
X65761213Y-114502662D01*
X65761114Y-114500965D01*
X65751648Y-114317891D01*
X65738198Y-114057773D01*
X65738080Y-114054820D01*
X65736595Y-114001649D01*
X65728684Y-113718562D01*
X65728636Y-113715437D01*
X65728577Y-113695803D01*
X65728774Y-113688356D01*
X65729096Y-113682634D01*
X65796249Y-112487329D01*
X65803670Y-112355235D01*
X65804945Y-112343096D01*
X65898834Y-111734385D01*
X66018447Y-110958897D01*
X66020594Y-110948121D01*
X66361647Y-109556561D01*
X66364687Y-109546131D01*
X66757933Y-108385884D01*
X66820924Y-108200033D01*
X66824849Y-108189910D01*
X67293870Y-107119532D01*
X67296180Y-107114558D01*
X67306975Y-107092578D01*
X67500807Y-106697891D01*
X67725325Y-106240721D01*
X67727528Y-106236445D01*
X67748100Y-106198332D01*
X67750195Y-106177918D01*
X67753776Y-106158374D01*
X67755863Y-106150533D01*
X67759056Y-106138539D01*
X67757415Y-106126233D01*
X67757935Y-106118089D01*
X67757168Y-106109963D01*
X67758436Y-106097614D01*
X67754882Y-106085725D01*
X67754882Y-106085721D01*
X67752559Y-106077950D01*
X67748386Y-106058515D01*
X67747315Y-106050480D01*
X67747315Y-106050479D01*
X67745675Y-106038180D01*
X67739453Y-106027443D01*
X67736815Y-106019714D01*
X67732996Y-106012499D01*
X67729442Y-106000608D01*
X67716485Y-105984687D01*
X67705200Y-105968338D01*
X67701134Y-105961322D01*
X67701131Y-105961319D01*
X67694908Y-105950581D01*
X67685049Y-105943042D01*
X67679657Y-105936914D01*
X67673366Y-105931708D01*
X67665532Y-105922082D01*
X67647473Y-105912334D01*
X67630786Y-105901546D01*
X67627902Y-105899341D01*
X67614483Y-105889079D01*
X67602490Y-105885887D01*
X67595164Y-105882289D01*
X67587356Y-105879885D01*
X67576436Y-105873991D01*
X67564092Y-105872724D01*
X67564091Y-105872724D01*
X67560806Y-105872387D01*
X67556027Y-105871897D01*
X67536478Y-105868315D01*
X67516644Y-105863035D01*
X67504338Y-105864676D01*
X67496194Y-105864156D01*
X67488068Y-105864923D01*
X67475719Y-105863655D01*
X67463830Y-105867209D01*
X67463826Y-105867209D01*
X67456055Y-105869532D01*
X67436621Y-105873705D01*
X67416285Y-105876416D01*
X67378805Y-105898137D01*
X67374610Y-105900462D01*
X67057308Y-106068400D01*
X66421707Y-106404805D01*
X66420022Y-106405632D01*
X66415901Y-106407030D01*
X66400214Y-106416086D01*
X66396196Y-106418307D01*
X66380224Y-106426761D01*
X66376849Y-106429507D01*
X66375258Y-106430492D01*
X66214024Y-106523571D01*
X65266160Y-107070763D01*
X65262420Y-107072838D01*
X65257459Y-107075480D01*
X65251729Y-107077844D01*
X65246575Y-107081277D01*
X65241012Y-107084982D01*
X65234167Y-107089231D01*
X65228370Y-107092578D01*
X65228367Y-107092580D01*
X65223003Y-107095677D01*
X65218345Y-107099762D01*
X65213775Y-107103036D01*
X65210235Y-107105482D01*
X64092417Y-107850039D01*
X64088175Y-107852743D01*
X64086602Y-107853702D01*
X64081035Y-107856388D01*
X64069841Y-107864824D01*
X64063897Y-107869036D01*
X64052231Y-107876807D01*
X64047847Y-107881179D01*
X64046413Y-107882352D01*
X64042448Y-107885466D01*
X62961614Y-108699945D01*
X62957692Y-108702784D01*
X62955432Y-108704355D01*
X62950025Y-108707373D01*
X62945312Y-108711388D01*
X62939600Y-108716253D01*
X62933727Y-108720960D01*
X62927775Y-108725445D01*
X62922785Y-108729205D01*
X62918668Y-108733818D01*
X62916589Y-108735731D01*
X62912969Y-108738936D01*
X61953047Y-109556572D01*
X61918535Y-109585968D01*
X61914920Y-109588671D01*
X61914995Y-109588765D01*
X61910171Y-109592641D01*
X61904985Y-109596029D01*
X61900563Y-109600360D01*
X61900559Y-109600364D01*
X61896540Y-109604302D01*
X61890071Y-109610213D01*
X61881063Y-109617885D01*
X61877223Y-109622743D01*
X61872926Y-109627200D01*
X61872840Y-109627117D01*
X61869826Y-109630471D01*
X61316375Y-110172624D01*
X61007148Y-110475539D01*
X61005113Y-110477426D01*
X61001038Y-110480346D01*
X60989485Y-110492681D01*
X60985718Y-110496532D01*
X60973644Y-110508360D01*
X60973291Y-110508876D01*
X60972570Y-110509357D01*
X60972816Y-110509573D01*
X60972815Y-110509574D01*
X60969115Y-110513802D01*
X60962165Y-110521742D01*
X60959312Y-110524892D01*
X60946558Y-110538509D01*
X60944430Y-110541931D01*
X60943474Y-110543097D01*
X60712297Y-110807228D01*
X60697260Y-110824409D01*
X60696070Y-110825686D01*
X60692804Y-110828388D01*
X60688899Y-110833185D01*
X60688893Y-110833191D01*
X60681249Y-110842582D01*
X60678376Y-110845985D01*
X60666328Y-110859750D01*
X60664211Y-110863425D01*
X60663161Y-110864800D01*
X60584816Y-110961037D01*
X60366593Y-111229097D01*
X60340966Y-111260576D01*
X60340590Y-111261003D01*
X60338594Y-111262728D01*
X60334915Y-111267451D01*
X60334909Y-111267458D01*
X60325701Y-111279280D01*
X60324013Y-111281399D01*
X60314566Y-111293004D01*
X60314562Y-111293010D01*
X60310777Y-111297659D01*
X60309544Y-111299989D01*
X60309213Y-111300449D01*
X60203965Y-111435571D01*
X59965350Y-111741916D01*
X59942406Y-111771372D01*
X59942167Y-111771654D01*
X59940551Y-111773101D01*
X59927440Y-111790556D01*
X59926213Y-111792160D01*
X59912806Y-111809373D01*
X59911833Y-111811312D01*
X59911623Y-111811616D01*
X59530437Y-112319119D01*
X59530184Y-112319429D01*
X59528548Y-112320949D01*
X59515847Y-112338512D01*
X59514572Y-112340243D01*
X59501538Y-112357596D01*
X59500570Y-112359611D01*
X59500357Y-112359931D01*
X59277463Y-112668151D01*
X59138120Y-112860835D01*
X59138037Y-112860940D01*
X59137074Y-112861854D01*
X59123773Y-112880664D01*
X59123050Y-112881676D01*
X59109483Y-112900436D01*
X59108929Y-112901644D01*
X59108848Y-112901770D01*
X58734812Y-113430726D01*
X58734797Y-113430746D01*
X58655927Y-113542236D01*
X58600257Y-113586297D01*
X58529603Y-113593266D01*
X58466398Y-113560930D01*
X58430709Y-113499555D01*
X58427537Y-113458567D01*
X58427965Y-113453639D01*
X58428063Y-113452560D01*
X58449557Y-113227541D01*
X58479417Y-112914939D01*
X58479490Y-112914202D01*
X58480775Y-112901677D01*
X58537677Y-112346660D01*
X58537764Y-112345842D01*
X58538574Y-112338426D01*
X58599513Y-111780474D01*
X58599614Y-111779578D01*
X58599999Y-111776279D01*
X58661667Y-111248247D01*
X58661812Y-111247053D01*
X58662808Y-111239211D01*
X58720813Y-110782221D01*
X58721089Y-110780183D01*
X58773442Y-110415483D01*
X58774056Y-110411629D01*
X58807688Y-110219792D01*
X58809770Y-110210153D01*
X58962161Y-109617885D01*
X59097864Y-109090478D01*
X59100877Y-109080503D01*
X59459682Y-108048968D01*
X59509101Y-107906894D01*
X59512427Y-107898347D01*
X60015290Y-106733586D01*
X60019322Y-106725127D01*
X60075127Y-106618442D01*
X60590535Y-105633108D01*
X60594722Y-105625721D01*
X60627745Y-105571783D01*
X60681845Y-105483417D01*
X60939974Y-105061796D01*
X60944274Y-105055239D01*
X61429686Y-104363084D01*
X61642334Y-104059866D01*
X61648273Y-104052063D01*
X61747930Y-103931195D01*
X62385651Y-103157735D01*
X62392829Y-103149749D01*
X62413637Y-103128495D01*
X63202673Y-102322526D01*
X63210240Y-102315409D01*
X64126708Y-101522035D01*
X64133669Y-101516428D01*
X65192583Y-100723767D01*
X65196946Y-100720644D01*
X65751645Y-100341164D01*
X65755585Y-100338816D01*
X65755531Y-100338733D01*
X65760737Y-100335378D01*
X65766244Y-100332551D01*
X65775346Y-100325330D01*
X65782510Y-100320048D01*
X65783627Y-100319284D01*
X65792098Y-100313489D01*
X65796426Y-100309066D01*
X65801167Y-100305087D01*
X65801231Y-100305163D01*
X65804634Y-100302095D01*
X65903606Y-100223580D01*
X65907319Y-100220745D01*
X65932434Y-100202296D01*
X65932435Y-100202295D01*
X65942435Y-100194949D01*
X65952931Y-100177618D01*
X65964645Y-100161353D01*
X65977758Y-100145904D01*
X65981557Y-100134090D01*
X65985609Y-100126802D01*
X65988454Y-100118962D01*
X65994883Y-100108347D01*
X65997948Y-100088317D01*
X66002545Y-100068812D01*
X66004951Y-100061329D01*
X66008749Y-100049518D01*
X66007738Y-100037151D01*
X66008692Y-100028870D01*
X66008321Y-100020533D01*
X66010198Y-100008265D01*
X66005365Y-99988587D01*
X66002150Y-99968814D01*
X66001509Y-99960979D01*
X66001508Y-99960974D01*
X66000496Y-99948608D01*
X65980591Y-99909836D01*
X65978534Y-99905639D01*
X65951422Y-99847629D01*
X65948125Y-99839917D01*
X65938874Y-99816109D01*
X65938873Y-99816108D01*
X65934378Y-99804539D01*
X65916472Y-99785824D01*
X65905971Y-99773319D01*
X65890635Y-99752442D01*
X65880021Y-99746014D01*
X65880019Y-99746012D01*
X65858163Y-99732776D01*
X65851161Y-99728211D01*
X65774339Y-99674391D01*
X65774133Y-99674246D01*
X64629902Y-98868011D01*
X64623515Y-98863201D01*
X64608586Y-98851195D01*
X63643016Y-98074720D01*
X63635634Y-98068295D01*
X63619873Y-98053463D01*
X62812503Y-97293715D01*
X62778340Y-97261567D01*
X62770844Y-97253886D01*
X62002517Y-96396335D01*
X61995895Y-96388298D01*
X61280936Y-95443718D01*
X61276953Y-95438147D01*
X61183421Y-95299520D01*
X60946823Y-94948851D01*
X60942588Y-94942124D01*
X60344385Y-93921580D01*
X60339607Y-93912619D01*
X60215576Y-93655563D01*
X59794862Y-92783626D01*
X59791202Y-92775281D01*
X59751444Y-92674919D01*
X59325041Y-91598536D01*
X59321877Y-91589575D01*
X59318537Y-91578839D01*
X58960669Y-90428758D01*
X58958350Y-90420272D01*
X58810019Y-89791980D01*
X58808446Y-89784239D01*
X58765119Y-89530521D01*
X58764533Y-89526748D01*
X58710769Y-89141976D01*
X58710527Y-89140141D01*
X58680699Y-88901117D01*
X58650722Y-88660896D01*
X58650588Y-88659780D01*
X58647686Y-88634605D01*
X58630172Y-88482700D01*
X58588332Y-88119801D01*
X58588231Y-88118897D01*
X58561409Y-87870512D01*
X58526876Y-87550710D01*
X58526803Y-87550006D01*
X58526556Y-87547563D01*
X58485420Y-87141550D01*
X58469632Y-86985720D01*
X58469544Y-86984827D01*
X58427936Y-86542784D01*
X58441467Y-86473088D01*
X58490529Y-86421772D01*
X58559547Y-86405127D01*
X58626608Y-86428438D01*
X58656243Y-86458206D01*
X58703439Y-86524920D01*
X58722982Y-86552545D01*
X58726015Y-86556833D01*
X59101224Y-87087452D01*
X59101234Y-87087474D01*
X59101271Y-87087527D01*
X59101274Y-87087531D01*
X59108874Y-87098275D01*
X59108945Y-87098385D01*
X59109492Y-87099578D01*
X59122914Y-87118136D01*
X59123558Y-87119036D01*
X59130153Y-87128363D01*
X59130173Y-87128382D01*
X59137107Y-87138184D01*
X59138061Y-87139088D01*
X59138147Y-87139197D01*
X59503039Y-87643706D01*
X59503252Y-87644026D01*
X59504224Y-87646050D01*
X59517275Y-87663422D01*
X59518549Y-87665151D01*
X59531231Y-87682685D01*
X59532871Y-87684208D01*
X59533119Y-87684511D01*
X59610631Y-87787686D01*
X59914317Y-88191914D01*
X59914530Y-88192222D01*
X59915502Y-88194157D01*
X59928833Y-88211267D01*
X59930146Y-88212983D01*
X59943250Y-88230425D01*
X59944867Y-88231873D01*
X59945111Y-88232161D01*
X60306546Y-88696069D01*
X60311718Y-88702708D01*
X60312050Y-88703170D01*
X60313287Y-88705505D01*
X60317083Y-88710167D01*
X60317093Y-88710180D01*
X60326515Y-88721749D01*
X60328210Y-88723876D01*
X60341101Y-88740422D01*
X60343104Y-88742152D01*
X60343478Y-88742578D01*
X60665277Y-89137727D01*
X60666326Y-89139100D01*
X60668444Y-89142776D01*
X60672525Y-89147437D01*
X60680494Y-89156539D01*
X60683364Y-89159936D01*
X60694927Y-89174135D01*
X60698192Y-89176835D01*
X60699371Y-89178099D01*
X60942686Y-89456008D01*
X60945642Y-89459833D01*
X60945666Y-89459813D01*
X60949639Y-89464572D01*
X60953116Y-89469683D01*
X60960866Y-89477304D01*
X60967316Y-89484140D01*
X60974469Y-89492310D01*
X60979369Y-89496077D01*
X60983891Y-89500319D01*
X60983870Y-89500341D01*
X60987521Y-89503518D01*
X61833696Y-90335673D01*
X61845361Y-90347145D01*
X61848390Y-90350526D01*
X61848471Y-90350448D01*
X61852759Y-90354910D01*
X61856588Y-90359770D01*
X61861292Y-90363789D01*
X61861292Y-90363790D01*
X61865532Y-90367414D01*
X61872005Y-90373348D01*
X61880399Y-90381603D01*
X61885574Y-90384999D01*
X61890392Y-90388886D01*
X61890321Y-90388974D01*
X61893952Y-90391697D01*
X62476077Y-90889122D01*
X62885696Y-91239141D01*
X62889300Y-91242342D01*
X62891412Y-91244291D01*
X62895524Y-91248912D01*
X62900461Y-91252643D01*
X62906433Y-91257157D01*
X62912316Y-91261887D01*
X62922704Y-91270764D01*
X62928104Y-91273790D01*
X62930460Y-91275433D01*
X62934359Y-91278265D01*
X64013599Y-92093984D01*
X64017565Y-92097108D01*
X64018970Y-92098261D01*
X64023347Y-92102639D01*
X64032556Y-92108793D01*
X64035001Y-92110427D01*
X64040953Y-92114660D01*
X64052131Y-92123108D01*
X64057700Y-92125804D01*
X64059248Y-92126751D01*
X64063499Y-92129470D01*
X65181031Y-92876246D01*
X65184560Y-92878692D01*
X65188994Y-92881881D01*
X65193647Y-92885975D01*
X65204835Y-92892460D01*
X65211646Y-92896703D01*
X65222398Y-92903888D01*
X65228117Y-92906257D01*
X65232940Y-92908835D01*
X65236724Y-92910943D01*
X66346697Y-93554294D01*
X66348372Y-93555334D01*
X66351807Y-93558135D01*
X66357275Y-93561036D01*
X66367638Y-93566534D01*
X66371770Y-93568826D01*
X66387291Y-93577822D01*
X66391469Y-93579248D01*
X66392989Y-93579995D01*
X66402133Y-93584835D01*
X66402239Y-93584891D01*
X66424300Y-93596595D01*
X66424422Y-93596631D01*
X67352179Y-94087666D01*
X67374600Y-94099533D01*
X67378805Y-94101863D01*
X67416285Y-94123584D01*
X67436621Y-94126295D01*
X67456055Y-94130468D01*
X67463826Y-94132791D01*
X67463830Y-94132791D01*
X67475719Y-94136345D01*
X67488068Y-94135077D01*
X67496194Y-94135844D01*
X67504338Y-94135324D01*
X67516644Y-94136965D01*
X67536478Y-94131685D01*
X67556027Y-94128103D01*
X67560813Y-94127612D01*
X67564091Y-94127276D01*
X67564092Y-94127276D01*
X67576436Y-94126009D01*
X67587356Y-94120115D01*
X67595164Y-94117711D01*
X67602490Y-94114113D01*
X67614483Y-94110921D01*
X67630786Y-94098454D01*
X67647473Y-94087666D01*
X67650332Y-94086123D01*
X67665532Y-94077918D01*
X67673366Y-94068292D01*
X67679657Y-94063086D01*
X67685049Y-94056958D01*
X67694908Y-94049419D01*
X67701131Y-94038681D01*
X67701134Y-94038678D01*
X67705200Y-94031662D01*
X67716485Y-94015313D01*
X67721609Y-94009016D01*
X67729442Y-93999392D01*
X67732996Y-93987501D01*
X67736815Y-93980286D01*
X67739453Y-93972557D01*
X67745675Y-93961820D01*
X67748386Y-93941484D01*
X67752559Y-93922050D01*
X67754882Y-93914279D01*
X67754882Y-93914275D01*
X67758436Y-93902386D01*
X67757168Y-93890037D01*
X67757935Y-93881911D01*
X67757415Y-93873767D01*
X67759056Y-93861461D01*
X67753776Y-93841624D01*
X67750195Y-93822082D01*
X67749367Y-93814012D01*
X67749367Y-93814011D01*
X67748100Y-93801668D01*
X67727528Y-93763555D01*
X67725325Y-93759279D01*
X67296803Y-92886709D01*
X67294120Y-92880874D01*
X66822072Y-91781381D01*
X66747740Y-91608245D01*
X66743656Y-91597378D01*
X66686075Y-91419674D01*
X66425744Y-90616262D01*
X66304489Y-90242052D01*
X66301594Y-90231607D01*
X66242841Y-89977604D01*
X65979161Y-88837655D01*
X65977140Y-88826743D01*
X65971610Y-88787251D01*
X65783902Y-87446897D01*
X65782830Y-87435488D01*
X65779727Y-87371060D01*
X65762254Y-87008345D01*
X65728904Y-86316025D01*
X65728792Y-86307031D01*
X65734069Y-86080271D01*
X65736026Y-85996200D01*
X65736145Y-85992932D01*
X65736579Y-85984159D01*
X65757427Y-85562210D01*
X65757527Y-85560426D01*
X65772254Y-85329522D01*
X65790085Y-85049938D01*
X65790167Y-85048755D01*
X65790237Y-85047813D01*
X65814942Y-84712718D01*
X65831126Y-84493212D01*
X65831206Y-84492182D01*
X65877727Y-83924723D01*
X65877814Y-83923711D01*
X65909074Y-83576780D01*
X65927050Y-83377271D01*
X65927159Y-83376125D01*
X65929523Y-83352412D01*
X65942956Y-83217661D01*
X65969617Y-83151862D01*
X66027620Y-83110920D01*
X66098550Y-83107837D01*
X66159886Y-83143591D01*
X66182980Y-83177887D01*
X66563468Y-84012364D01*
X66563702Y-84012934D01*
X66564394Y-84015599D01*
X66573432Y-84034292D01*
X66574633Y-84036849D01*
X66583267Y-84055786D01*
X66584874Y-84058018D01*
X66585164Y-84058564D01*
X67044767Y-85009224D01*
X67045288Y-85010399D01*
X67046344Y-85014000D01*
X67049212Y-85019487D01*
X67049214Y-85019492D01*
X67055204Y-85030952D01*
X67056979Y-85034481D01*
X67062497Y-85045894D01*
X67065288Y-85051668D01*
X67067548Y-85054662D01*
X67068180Y-85055778D01*
X67476808Y-85837583D01*
X67478214Y-85840455D01*
X67479919Y-85845424D01*
X67483030Y-85850771D01*
X67483033Y-85850777D01*
X67488192Y-85859642D01*
X67490942Y-85864625D01*
X67498560Y-85879200D01*
X67501861Y-85883299D01*
X67503513Y-85885973D01*
X67849980Y-86481412D01*
X67862896Y-86503609D01*
X67864556Y-86506638D01*
X67866549Y-86511666D01*
X67869912Y-86516870D01*
X67869916Y-86516877D01*
X67875329Y-86525252D01*
X67878406Y-86530265D01*
X67886534Y-86544234D01*
X67890111Y-86548285D01*
X67892050Y-86551121D01*
X68021153Y-86750874D01*
X68023790Y-86755161D01*
X68026322Y-86760669D01*
X68035062Y-86772724D01*
X68038863Y-86778274D01*
X68046947Y-86790782D01*
X68051172Y-86795138D01*
X68054237Y-86799174D01*
X68848937Y-87895351D01*
X68851387Y-87898854D01*
X68854637Y-87903672D01*
X68857574Y-87909111D01*
X68861519Y-87913876D01*
X68861521Y-87913879D01*
X68865766Y-87919007D01*
X68870719Y-87925396D01*
X68878261Y-87935799D01*
X68882802Y-87940005D01*
X68886646Y-87944340D01*
X68889421Y-87947579D01*
X69512180Y-88699806D01*
X69778303Y-89021254D01*
X69781116Y-89024778D01*
X69783851Y-89028334D01*
X69787128Y-89033589D01*
X69796157Y-89043204D01*
X69801350Y-89049092D01*
X69809767Y-89059260D01*
X69814570Y-89063167D01*
X69817787Y-89066357D01*
X69820926Y-89069584D01*
X70755249Y-90064638D01*
X70758377Y-90068095D01*
X70760792Y-90070866D01*
X70764380Y-90075905D01*
X70774156Y-90085117D01*
X70779580Y-90090552D01*
X70784541Y-90095835D01*
X70784544Y-90095838D01*
X70788784Y-90100353D01*
X70793822Y-90103954D01*
X70796615Y-90106397D01*
X70800060Y-90109525D01*
X70883688Y-90188326D01*
X71495075Y-90764422D01*
X71495928Y-90765283D01*
X71498133Y-90768189D01*
X71502770Y-90772300D01*
X71512597Y-90781013D01*
X71515420Y-90783593D01*
X71524927Y-90792552D01*
X71524931Y-90792555D01*
X71529435Y-90796799D01*
X71532523Y-90798732D01*
X71533445Y-90799495D01*
X72121194Y-91320573D01*
X72123137Y-91322296D01*
X72130569Y-91329513D01*
X72137009Y-91339828D01*
X72147112Y-91347039D01*
X72147114Y-91347041D01*
X72161876Y-91357577D01*
X72170213Y-91364217D01*
X72171351Y-91365042D01*
X72175989Y-91369154D01*
X72182702Y-91373079D01*
X72192284Y-91379281D01*
X72219418Y-91398647D01*
X72229967Y-91401085D01*
X72231989Y-91401889D01*
X72241332Y-91407351D01*
X72272116Y-91411573D01*
X72274331Y-91411877D01*
X72285590Y-91413946D01*
X72305970Y-91418658D01*
X72305973Y-91418658D01*
X72318062Y-91421453D01*
X72328742Y-91419669D01*
X72330918Y-91419638D01*
X72341639Y-91421108D01*
X72362992Y-91415510D01*
X72373867Y-91412659D01*
X72385058Y-91410263D01*
X72405684Y-91406818D01*
X72405686Y-91406817D01*
X72417925Y-91404773D01*
X72427109Y-91399038D01*
X72429102Y-91398178D01*
X72439576Y-91395432D01*
X72465237Y-91375961D01*
X72466115Y-91375295D01*
X72475538Y-91368798D01*
X72493275Y-91357722D01*
X72493278Y-91357720D01*
X72503803Y-91351147D01*
X72510089Y-91342339D01*
X72511608Y-91340774D01*
X72520232Y-91334231D01*
X72537045Y-91305469D01*
X72543267Y-91295856D01*
X72555412Y-91278840D01*
X72562622Y-91268739D01*
X72565060Y-91258193D01*
X72565862Y-91256172D01*
X72571327Y-91246824D01*
X72575852Y-91213829D01*
X72577921Y-91202568D01*
X72582634Y-91182184D01*
X72582634Y-91182183D01*
X72585429Y-91170094D01*
X72583646Y-91159420D01*
X72583614Y-91157237D01*
X72585084Y-91146516D01*
X72576636Y-91114294D01*
X72574238Y-91103093D01*
X72573979Y-91101541D01*
X72573979Y-91101539D01*
X72572960Y-91095440D01*
X72570772Y-91089658D01*
X72570410Y-91088318D01*
X72567154Y-91078123D01*
X72562556Y-91060584D01*
X72562555Y-91060582D01*
X72559408Y-91048579D01*
X72552060Y-91038896D01*
X72547956Y-91029384D01*
X72544038Y-91019031D01*
X72455970Y-90786364D01*
X72396926Y-90630374D01*
X72395095Y-90625200D01*
X72331921Y-90433463D01*
X72255517Y-90201572D01*
X72253707Y-90195576D01*
X72098996Y-89632161D01*
X72098022Y-89628381D01*
X71939456Y-88971396D01*
X71938747Y-88968286D01*
X71788808Y-88269979D01*
X71788169Y-88266806D01*
X71658407Y-87576540D01*
X71657889Y-87573594D01*
X71600186Y-87220710D01*
X71599369Y-87214849D01*
X71569296Y-86954752D01*
X71537196Y-86677132D01*
X71536669Y-86671437D01*
X71536534Y-86669487D01*
X71497620Y-86111036D01*
X71489232Y-85990663D01*
X71489032Y-85987052D01*
X71457254Y-85209935D01*
X71457171Y-85207129D01*
X71441879Y-84384483D01*
X71441857Y-84381872D01*
X71443604Y-83562958D01*
X71443644Y-83560067D01*
X71462842Y-82794697D01*
X71462997Y-82790858D01*
X71499822Y-82128931D01*
X71500257Y-82123341D01*
X71505866Y-82067487D01*
X71516200Y-81964566D01*
X71543630Y-81691397D01*
X71544513Y-81684520D01*
X71591490Y-81384103D01*
X71592009Y-81381031D01*
X71607125Y-81297891D01*
X71668241Y-80961731D01*
X71668539Y-80960153D01*
X71670553Y-80949853D01*
X71734040Y-80625062D01*
X71767113Y-80455868D01*
X71767331Y-80454781D01*
X71840292Y-80098212D01*
X71881627Y-79896200D01*
X71881787Y-79895434D01*
X71897638Y-79820615D01*
X72005273Y-79312536D01*
X72005441Y-79311756D01*
X72112002Y-78824003D01*
X72131744Y-78733643D01*
X72131911Y-78732887D01*
X72136159Y-78714054D01*
X72218614Y-78348439D01*
X72254579Y-78188970D01*
X72254816Y-78187941D01*
X72260035Y-78165671D01*
X72295052Y-78103911D01*
X72357901Y-78070887D01*
X72428626Y-78077084D01*
X72484774Y-78120534D01*
X72503567Y-78158785D01*
X72570252Y-78384949D01*
X72639746Y-78620639D01*
X72646141Y-78642329D01*
X72646304Y-78642890D01*
X72664492Y-78705856D01*
X72694928Y-78811227D01*
X72695018Y-78811592D01*
X72695242Y-78813766D01*
X72701642Y-78834535D01*
X72702254Y-78836586D01*
X72708291Y-78857487D01*
X72709295Y-78859428D01*
X72709425Y-78859795D01*
X73376469Y-81024551D01*
X73377187Y-81027136D01*
X73377905Y-81032049D01*
X73383598Y-81048068D01*
X73385268Y-81053105D01*
X73390274Y-81069353D01*
X73392631Y-81073716D01*
X73393606Y-81076235D01*
X74099862Y-83063754D01*
X74101101Y-83067532D01*
X74102189Y-83073059D01*
X74104543Y-83078776D01*
X74104545Y-83078784D01*
X74108168Y-83087583D01*
X74110379Y-83093350D01*
X74115650Y-83108182D01*
X74118538Y-83113025D01*
X74120147Y-83116676D01*
X74281592Y-83508798D01*
X74855052Y-84901627D01*
X74866961Y-84930553D01*
X74868856Y-84935442D01*
X74869171Y-84936307D01*
X74870708Y-84942308D01*
X74873387Y-84947894D01*
X74876889Y-84955198D01*
X74879779Y-84961687D01*
X74885234Y-84974936D01*
X74888660Y-84980088D01*
X74889102Y-84980918D01*
X74891466Y-84985594D01*
X75679996Y-86629894D01*
X75681751Y-86633717D01*
X75684223Y-86639347D01*
X75686145Y-86645232D01*
X75692382Y-86656331D01*
X75696143Y-86663563D01*
X75701658Y-86675064D01*
X75705370Y-86680013D01*
X75708583Y-86685310D01*
X75708407Y-86685417D01*
X75710705Y-86688942D01*
X76241811Y-87634134D01*
X76544264Y-88172399D01*
X76546753Y-88177066D01*
X76548972Y-88182790D01*
X76552292Y-88188013D01*
X76552293Y-88188014D01*
X76556872Y-88195216D01*
X76560382Y-88201085D01*
X76567602Y-88213934D01*
X76571599Y-88218600D01*
X76574540Y-88223010D01*
X76998207Y-88889455D01*
X76999490Y-88891607D01*
X77001423Y-88896038D01*
X77004952Y-88901113D01*
X77004954Y-88901117D01*
X77011243Y-88910162D01*
X77014127Y-88914498D01*
X77020037Y-88923795D01*
X77020041Y-88923800D01*
X77023358Y-88929018D01*
X77026702Y-88932518D01*
X77028180Y-88934519D01*
X77207343Y-89192185D01*
X77529137Y-89654978D01*
X77531936Y-89659181D01*
X77532886Y-89660671D01*
X77535684Y-89666189D01*
X77539508Y-89671059D01*
X77539510Y-89671062D01*
X77544342Y-89677216D01*
X77548684Y-89683088D01*
X77556690Y-89694603D01*
X77561149Y-89698899D01*
X77562302Y-89700252D01*
X77565502Y-89704163D01*
X78056413Y-90329364D01*
X78058956Y-90333065D01*
X78059057Y-90332990D01*
X78062739Y-90337969D01*
X78065913Y-90343282D01*
X78070064Y-90347876D01*
X78070066Y-90347878D01*
X78073896Y-90352116D01*
X78079496Y-90358760D01*
X78086857Y-90368135D01*
X78091557Y-90372165D01*
X78095838Y-90376635D01*
X78095747Y-90376722D01*
X78098961Y-90379853D01*
X78201930Y-90493798D01*
X78624901Y-90961857D01*
X78627706Y-90965068D01*
X78631476Y-90969535D01*
X78634985Y-90974633D01*
X78642622Y-90982063D01*
X78644178Y-90983577D01*
X78649797Y-90989407D01*
X78658403Y-90998930D01*
X78663363Y-91002620D01*
X78667711Y-91006573D01*
X78670815Y-91009492D01*
X78822354Y-91156921D01*
X79279963Y-91602120D01*
X79281811Y-91604021D01*
X79284787Y-91607976D01*
X79289406Y-91612104D01*
X79297480Y-91619320D01*
X79301378Y-91622955D01*
X79309130Y-91630497D01*
X79309133Y-91630499D01*
X79313565Y-91634811D01*
X79317713Y-91637501D01*
X79319739Y-91639212D01*
X79596393Y-91886453D01*
X79843585Y-92107364D01*
X79845489Y-92109164D01*
X79848608Y-92112965D01*
X79853388Y-92116888D01*
X79853389Y-92116889D01*
X79861799Y-92123791D01*
X79865826Y-92127240D01*
X79878544Y-92138606D01*
X79882780Y-92141105D01*
X79884846Y-92142706D01*
X81049429Y-93098488D01*
X81052619Y-93101467D01*
X81052725Y-93101346D01*
X81057386Y-93105420D01*
X81061624Y-93109930D01*
X81066658Y-93113525D01*
X81066663Y-93113529D01*
X81071651Y-93117091D01*
X81078346Y-93122219D01*
X81087847Y-93130017D01*
X81093307Y-93132936D01*
X81098457Y-93136377D01*
X81098365Y-93136514D01*
X81102058Y-93138805D01*
X81689517Y-93558321D01*
X82203182Y-93925140D01*
X82209318Y-93930069D01*
X82212296Y-93932265D01*
X82216891Y-93936406D01*
X82222205Y-93939571D01*
X82222208Y-93939573D01*
X82224854Y-93941149D01*
X82233595Y-93946859D01*
X82236114Y-93948658D01*
X82236122Y-93948662D01*
X82241155Y-93952257D01*
X82246794Y-93954801D01*
X82250014Y-93956653D01*
X82256975Y-93960280D01*
X83305543Y-94584806D01*
X83315452Y-94591362D01*
X83321157Y-94595537D01*
X83326764Y-94598145D01*
X83327250Y-94598432D01*
X83336707Y-94603431D01*
X83337210Y-94603667D01*
X83342522Y-94606831D01*
X83348348Y-94608897D01*
X83348356Y-94608901D01*
X83349189Y-94609196D01*
X83360209Y-94613701D01*
X84010144Y-94915994D01*
X84353282Y-95075592D01*
X84357130Y-95077462D01*
X84362304Y-95080086D01*
X84367522Y-95083412D01*
X84373286Y-95085655D01*
X84373288Y-95085656D01*
X84374342Y-95086066D01*
X84377100Y-95087139D01*
X84379500Y-95088073D01*
X84386943Y-95091249D01*
X84398578Y-95096660D01*
X84404593Y-95098125D01*
X84410002Y-95100021D01*
X84414019Y-95101506D01*
X84456938Y-95118208D01*
X84456985Y-95118229D01*
X84457678Y-95118664D01*
X84480075Y-95127213D01*
X84480511Y-95127381D01*
X84502917Y-95136100D01*
X84503722Y-95136242D01*
X84503779Y-95136261D01*
X84910640Y-95291558D01*
X84914982Y-95293308D01*
X84918264Y-95294703D01*
X84923697Y-95297670D01*
X84936551Y-95301698D01*
X84943799Y-95304214D01*
X84950599Y-95306810D01*
X84950604Y-95306811D01*
X84956380Y-95309016D01*
X84962477Y-95310052D01*
X84965901Y-95310986D01*
X84970402Y-95312305D01*
X85075993Y-95345392D01*
X85224252Y-95391850D01*
X85227262Y-95393013D01*
X85233718Y-95397726D01*
X85270757Y-95406707D01*
X85278732Y-95408921D01*
X85290707Y-95412673D01*
X85296864Y-95413336D01*
X85299045Y-95413791D01*
X85301256Y-95414102D01*
X85307275Y-95415561D01*
X85317886Y-95416002D01*
X85319810Y-95416082D01*
X85328070Y-95416698D01*
X85353617Y-95419450D01*
X85353620Y-95419450D01*
X85365960Y-95420779D01*
X85373630Y-95418529D01*
X85376859Y-95418452D01*
X85504870Y-95423772D01*
X85505893Y-95423896D01*
X85510204Y-95425703D01*
X85521131Y-95425750D01*
X85521134Y-95425750D01*
X85551648Y-95425880D01*
X85553753Y-95425889D01*
X85558446Y-95425997D01*
X85570209Y-95426486D01*
X85570210Y-95426486D01*
X85576395Y-95426743D01*
X85580748Y-95426064D01*
X85582675Y-95426013D01*
X85599042Y-95426083D01*
X85599043Y-95426083D01*
X85611450Y-95426136D01*
X85622933Y-95421437D01*
X85631107Y-95419848D01*
X85638920Y-95416985D01*
X85651178Y-95415072D01*
X85675755Y-95400087D01*
X85677417Y-95399142D01*
X85681500Y-95397471D01*
X85686661Y-95394054D01*
X85686667Y-95394051D01*
X85696509Y-95387535D01*
X85700470Y-95385018D01*
X85728292Y-95368055D01*
X85728297Y-95368051D01*
X85737623Y-95362365D01*
X85740380Y-95358589D01*
X85741183Y-95357960D01*
X85841949Y-95291252D01*
X85850004Y-95286344D01*
X85870901Y-95274661D01*
X85870903Y-95274660D01*
X85881738Y-95268602D01*
X85898782Y-95247013D01*
X85908960Y-95235617D01*
X85913088Y-95231525D01*
X85928495Y-95216249D01*
X85934149Y-95202764D01*
X85942552Y-95182719D01*
X85946528Y-95174151D01*
X86054729Y-94962175D01*
X86055887Y-94959960D01*
X86063267Y-94946183D01*
X86065941Y-94941192D01*
X86066682Y-94938757D01*
X86067843Y-94936483D01*
X86073653Y-94915940D01*
X86074342Y-94913591D01*
X86082219Y-94887714D01*
X86170270Y-94598432D01*
X86180787Y-94563881D01*
X86181319Y-94562313D01*
X86183150Y-94558588D01*
X86187907Y-94540749D01*
X86189114Y-94536520D01*
X86192669Y-94524843D01*
X86192669Y-94524841D01*
X86194472Y-94518919D01*
X86194882Y-94514791D01*
X86195251Y-94513208D01*
X86253626Y-94294304D01*
X86299217Y-94123336D01*
X86300903Y-94117574D01*
X86304523Y-94106206D01*
X86877381Y-92307333D01*
X86881599Y-92296001D01*
X86886520Y-92284502D01*
X87612256Y-90588461D01*
X87617624Y-90577431D01*
X87649035Y-90520181D01*
X87699337Y-90470081D01*
X87768741Y-90455129D01*
X87835212Y-90480074D01*
X87877644Y-90536995D01*
X87885500Y-90580790D01*
X87885500Y-96493492D01*
X87882951Y-96517440D01*
X87882872Y-96519105D01*
X87880680Y-96529288D01*
X87881904Y-96539629D01*
X87884627Y-96562635D01*
X87884977Y-96568566D01*
X87885072Y-96568558D01*
X87885500Y-96573736D01*
X87885500Y-96578936D01*
X87886354Y-96584065D01*
X87886354Y-96584068D01*
X87888669Y-96597977D01*
X87889506Y-96603855D01*
X87895530Y-96654753D01*
X87899493Y-96663005D01*
X87900996Y-96672038D01*
X87905943Y-96681207D01*
X87905944Y-96681209D01*
X87925334Y-96717144D01*
X87928031Y-96722437D01*
X87946785Y-96761494D01*
X87946788Y-96761498D01*
X87950219Y-96768644D01*
X87953814Y-96772920D01*
X87955737Y-96774843D01*
X87957509Y-96776775D01*
X87957552Y-96776854D01*
X87957428Y-96776967D01*
X87957904Y-96777507D01*
X87960990Y-96783226D01*
X87968635Y-96790293D01*
X88000586Y-96819828D01*
X88004152Y-96823258D01*
X88868055Y-97687161D01*
X88902081Y-97749473D01*
X88897016Y-97820288D01*
X88864449Y-97868163D01*
X88864179Y-97868364D01*
X88860265Y-97872598D01*
X88860263Y-97872600D01*
X88733345Y-98009900D01*
X88720150Y-98024174D01*
X88606926Y-98203623D01*
X88528300Y-98400700D01*
X88527175Y-98406357D01*
X88527173Y-98406363D01*
X88492704Y-98579656D01*
X88486906Y-98608805D01*
X88486830Y-98614580D01*
X88486830Y-98614584D01*
X88486029Y-98675800D01*
X88484128Y-98820969D01*
X88485107Y-98826666D01*
X88485107Y-98826667D01*
X88496360Y-98892158D01*
X88520061Y-99030087D01*
X88593501Y-99229154D01*
X88596453Y-99234115D01*
X88596453Y-99234116D01*
X88625616Y-99283134D01*
X88701988Y-99411505D01*
X88705794Y-99415845D01*
X88705797Y-99415849D01*
X88723317Y-99435826D01*
X88841890Y-99571032D01*
X88846425Y-99574607D01*
X88846426Y-99574608D01*
X88972816Y-99674246D01*
X89008520Y-99702393D01*
X89196299Y-99801188D01*
X89398938Y-99864109D01*
X89404673Y-99864788D01*
X89404674Y-99864788D01*
X89485974Y-99874411D01*
X89551271Y-99902282D01*
X89591135Y-99961031D01*
X89592908Y-100032005D01*
X89556028Y-100092672D01*
X89492204Y-100123769D01*
X89482726Y-100125005D01*
X89428708Y-100129969D01*
X89423151Y-100131536D01*
X89423147Y-100131537D01*
X89230051Y-100185996D01*
X89230049Y-100185997D01*
X89224492Y-100187564D01*
X89219316Y-100190116D01*
X89219312Y-100190118D01*
X89039372Y-100278855D01*
X89034191Y-100281410D01*
X89029565Y-100284864D01*
X89029564Y-100284865D01*
X88960652Y-100336324D01*
X88864179Y-100408364D01*
X88860265Y-100412598D01*
X88860263Y-100412600D01*
X88733345Y-100549900D01*
X88720150Y-100564174D01*
X88606926Y-100743623D01*
X88528300Y-100940700D01*
X88527175Y-100946357D01*
X88527173Y-100946363D01*
X88488033Y-101143137D01*
X88486906Y-101148805D01*
X88486830Y-101154580D01*
X88486830Y-101154584D01*
X88486029Y-101215800D01*
X88484128Y-101360969D01*
X88485107Y-101366666D01*
X88485107Y-101366667D01*
X88496360Y-101432158D01*
X88520061Y-101570087D01*
X88593501Y-101769154D01*
X88596453Y-101774115D01*
X88596453Y-101774116D01*
X88690004Y-101931361D01*
X88701988Y-101951505D01*
X88705794Y-101955845D01*
X88705797Y-101955849D01*
X88723317Y-101975826D01*
X88841890Y-102111032D01*
X88846425Y-102114607D01*
X88846426Y-102114608D01*
X88862653Y-102127400D01*
X89008520Y-102242393D01*
X89196299Y-102341188D01*
X89398938Y-102404109D01*
X89404673Y-102404788D01*
X89404674Y-102404788D01*
X89485974Y-102414411D01*
X89551271Y-102442282D01*
X89591135Y-102501031D01*
X89592908Y-102572005D01*
X89556028Y-102632672D01*
X89492204Y-102663769D01*
X89482726Y-102665005D01*
X89428708Y-102669969D01*
X89423151Y-102671536D01*
X89423147Y-102671537D01*
X89230051Y-102725996D01*
X89230049Y-102725997D01*
X89224492Y-102727564D01*
X89219316Y-102730116D01*
X89219312Y-102730118D01*
X89087398Y-102795171D01*
X89034191Y-102821410D01*
X89029565Y-102824864D01*
X89029564Y-102824865D01*
X88960652Y-102876324D01*
X88864179Y-102948364D01*
X88860265Y-102952598D01*
X88860263Y-102952600D01*
X88733345Y-103089900D01*
X88720150Y-103104174D01*
X88606926Y-103283623D01*
X88528300Y-103480700D01*
X88527175Y-103486357D01*
X88527173Y-103486363D01*
X88492704Y-103659656D01*
X88486906Y-103688805D01*
X88486830Y-103694580D01*
X88486830Y-103694584D01*
X88486029Y-103755800D01*
X88484128Y-103900969D01*
X88485107Y-103906666D01*
X88485107Y-103906667D01*
X88496360Y-103972158D01*
X88520061Y-104110087D01*
X88593501Y-104309154D01*
X88701988Y-104491505D01*
X88705794Y-104495845D01*
X88705797Y-104495849D01*
X88825525Y-104632371D01*
X88841890Y-104651032D01*
X88846425Y-104654607D01*
X88846426Y-104654608D01*
X88986725Y-104765211D01*
X89008520Y-104782393D01*
X89196299Y-104881188D01*
X89398938Y-104944109D01*
X89404673Y-104944788D01*
X89404674Y-104944788D01*
X89485974Y-104954411D01*
X89551271Y-104982282D01*
X89591135Y-105041031D01*
X89592908Y-105112005D01*
X89556028Y-105172672D01*
X89492204Y-105203769D01*
X89482726Y-105205005D01*
X89428708Y-105209969D01*
X89423151Y-105211536D01*
X89423147Y-105211537D01*
X89230051Y-105265996D01*
X89230049Y-105265997D01*
X89224492Y-105267564D01*
X89219316Y-105270116D01*
X89219312Y-105270118D01*
X89067149Y-105345157D01*
X89034191Y-105361410D01*
X89029565Y-105364864D01*
X89029564Y-105364865D01*
X88963833Y-105413949D01*
X88864179Y-105488364D01*
X88860265Y-105492598D01*
X88860263Y-105492600D01*
X88733345Y-105629900D01*
X88720150Y-105644174D01*
X88606926Y-105823623D01*
X88528300Y-106020700D01*
X88527175Y-106026357D01*
X88527173Y-106026363D01*
X88488033Y-106223137D01*
X88486906Y-106228805D01*
X88486830Y-106234580D01*
X88486830Y-106234584D01*
X88486029Y-106295800D01*
X88484128Y-106440969D01*
X88485107Y-106446666D01*
X88485107Y-106446667D01*
X88499473Y-106530273D01*
X88520061Y-106650087D01*
X88593501Y-106849154D01*
X88596453Y-106854115D01*
X88596453Y-106854116D01*
X88670941Y-106979319D01*
X88701988Y-107031505D01*
X88705794Y-107035845D01*
X88705797Y-107035849D01*
X88781057Y-107121666D01*
X88841890Y-107191032D01*
X88846425Y-107194607D01*
X88846426Y-107194608D01*
X88981528Y-107301114D01*
X89008520Y-107322393D01*
X89196299Y-107421188D01*
X89398938Y-107484109D01*
X89404673Y-107484788D01*
X89404674Y-107484788D01*
X89485974Y-107494411D01*
X89551271Y-107522282D01*
X89591135Y-107581031D01*
X89592908Y-107652005D01*
X89556028Y-107712672D01*
X89492204Y-107743769D01*
X89482726Y-107745005D01*
X89428708Y-107749969D01*
X89423151Y-107751536D01*
X89423147Y-107751537D01*
X89230051Y-107805996D01*
X89230049Y-107805997D01*
X89224492Y-107807564D01*
X89219316Y-107810116D01*
X89219312Y-107810118D01*
X89072837Y-107882352D01*
X89034191Y-107901410D01*
X89029565Y-107904864D01*
X89029564Y-107904865D01*
X88918506Y-107987796D01*
X88864179Y-108028364D01*
X88860265Y-108032598D01*
X88860263Y-108032600D01*
X88734067Y-108169119D01*
X88720150Y-108184174D01*
X88606926Y-108363623D01*
X88528300Y-108560700D01*
X88527175Y-108566357D01*
X88527173Y-108566363D01*
X88488033Y-108763137D01*
X88486906Y-108768805D01*
X88486830Y-108774580D01*
X88486830Y-108774584D01*
X88485853Y-108849189D01*
X88484128Y-108980969D01*
X88485107Y-108986666D01*
X88485107Y-108986667D01*
X88519059Y-109184258D01*
X88520061Y-109190087D01*
X88593501Y-109389154D01*
X88596453Y-109394115D01*
X88596453Y-109394116D01*
X88698857Y-109566242D01*
X88701988Y-109571505D01*
X88705794Y-109575845D01*
X88705797Y-109575849D01*
X88789422Y-109671204D01*
X88841890Y-109731032D01*
X88846425Y-109734607D01*
X88846426Y-109734608D01*
X89003449Y-109858395D01*
X89008520Y-109862393D01*
X89196299Y-109961188D01*
X89398938Y-110024109D01*
X89413943Y-110025885D01*
X89567530Y-110044064D01*
X89567535Y-110044064D01*
X89571216Y-110044500D01*
X91493827Y-110044500D01*
X91579635Y-110036615D01*
X91645538Y-110030560D01*
X91645541Y-110030559D01*
X91651292Y-110030031D01*
X91656849Y-110028464D01*
X91656853Y-110028463D01*
X91849949Y-109974004D01*
X91849951Y-109974003D01*
X91855508Y-109972436D01*
X91860684Y-109969884D01*
X91860688Y-109969882D01*
X92040628Y-109881145D01*
X92045809Y-109878590D01*
X92052859Y-109873326D01*
X92211197Y-109755089D01*
X92211198Y-109755088D01*
X92215821Y-109751636D01*
X92219737Y-109747400D01*
X92355931Y-109600066D01*
X92355933Y-109600063D01*
X92359850Y-109595826D01*
X92473074Y-109416377D01*
X92551700Y-109219300D01*
X92554432Y-109205565D01*
X92587479Y-109039426D01*
X92620386Y-108976516D01*
X92682081Y-108941384D01*
X92752976Y-108945184D01*
X92810562Y-108986710D01*
X92835238Y-109042670D01*
X92859567Y-109184258D01*
X92862547Y-109195380D01*
X92931956Y-109383522D01*
X92936906Y-109393900D01*
X93039439Y-109566242D01*
X93046205Y-109575554D01*
X93178429Y-109726327D01*
X93186772Y-109734244D01*
X93344257Y-109858395D01*
X93353908Y-109864663D01*
X93531375Y-109958033D01*
X93542009Y-109962438D01*
X93733525Y-110021905D01*
X93744779Y-110024297D01*
X93907558Y-110043564D01*
X93914961Y-110044000D01*
X94734885Y-110044000D01*
X94750124Y-110039525D01*
X94751329Y-110038135D01*
X94753000Y-110030452D01*
X94753000Y-108889000D01*
X94773002Y-108820879D01*
X94826658Y-108774386D01*
X94879000Y-108763000D01*
X94881000Y-108763000D01*
X94949121Y-108783002D01*
X94995614Y-108836658D01*
X95007000Y-108889000D01*
X95007000Y-110025885D01*
X95011475Y-110041124D01*
X95012865Y-110042329D01*
X95020548Y-110044000D01*
X95517528Y-110044000D01*
X95585649Y-110064002D01*
X95632142Y-110117658D01*
X95642246Y-110187932D01*
X95612752Y-110252512D01*
X95606623Y-110259095D01*
X95157123Y-110708595D01*
X95094811Y-110742621D01*
X95068028Y-110745500D01*
X91404682Y-110745500D01*
X91336561Y-110725498D01*
X91310114Y-110699860D01*
X91308878Y-110700949D01*
X91303855Y-110695251D01*
X91299553Y-110688992D01*
X91181275Y-110583611D01*
X91173889Y-110579700D01*
X91070378Y-110524894D01*
X91041274Y-110509484D01*
X90887633Y-110470892D01*
X90880034Y-110470852D01*
X90880033Y-110470852D01*
X90814181Y-110470507D01*
X90729221Y-110470062D01*
X90721841Y-110471834D01*
X90721839Y-110471834D01*
X90582563Y-110505271D01*
X90582560Y-110505272D01*
X90575184Y-110507043D01*
X90434414Y-110579700D01*
X90315039Y-110683838D01*
X90223950Y-110813444D01*
X90217429Y-110830170D01*
X90169359Y-110953464D01*
X90166406Y-110961037D01*
X90165414Y-110968570D01*
X90165414Y-110968571D01*
X90146889Y-111109287D01*
X90145729Y-111118096D01*
X90150492Y-111161233D01*
X90161498Y-111260921D01*
X90163113Y-111275553D01*
X90165723Y-111282684D01*
X90165723Y-111282686D01*
X90214874Y-111416997D01*
X90217553Y-111424319D01*
X90221789Y-111430622D01*
X90221789Y-111430623D01*
X90270859Y-111503646D01*
X90305908Y-111555805D01*
X90311525Y-111560916D01*
X90311528Y-111560919D01*
X90322903Y-111571269D01*
X90423076Y-111662419D01*
X90562293Y-111738008D01*
X90715522Y-111778207D01*
X90799477Y-111779526D01*
X90866319Y-111780576D01*
X90866322Y-111780576D01*
X90873916Y-111780695D01*
X91028332Y-111745329D01*
X91098742Y-111709917D01*
X91163072Y-111677563D01*
X91163075Y-111677561D01*
X91169855Y-111674151D01*
X91175626Y-111669222D01*
X91175629Y-111669220D01*
X91284542Y-111576199D01*
X91284543Y-111576198D01*
X91290314Y-111571269D01*
X91300586Y-111556974D01*
X91356581Y-111513326D01*
X91402909Y-111504500D01*
X95223492Y-111504500D01*
X95247440Y-111507049D01*
X95249105Y-111507128D01*
X95259288Y-111509320D01*
X95269629Y-111508096D01*
X95292635Y-111505373D01*
X95298566Y-111505023D01*
X95298558Y-111504928D01*
X95303736Y-111504500D01*
X95308936Y-111504500D01*
X95314065Y-111503646D01*
X95314068Y-111503646D01*
X95327977Y-111501331D01*
X95333855Y-111500494D01*
X95374413Y-111495694D01*
X95374414Y-111495694D01*
X95384753Y-111494470D01*
X95393005Y-111490507D01*
X95402038Y-111489004D01*
X95411207Y-111484057D01*
X95411209Y-111484056D01*
X95447144Y-111464666D01*
X95452437Y-111461969D01*
X95491494Y-111443215D01*
X95491498Y-111443212D01*
X95498644Y-111439781D01*
X95502920Y-111436186D01*
X95504843Y-111434263D01*
X95506775Y-111432491D01*
X95506854Y-111432448D01*
X95506967Y-111432572D01*
X95507507Y-111432096D01*
X95513226Y-111429010D01*
X95549829Y-111389413D01*
X95553258Y-111385848D01*
X95681048Y-111258058D01*
X95743360Y-111224032D01*
X95814175Y-111229097D01*
X95871011Y-111271644D01*
X95888469Y-111303852D01*
X95929874Y-111416997D01*
X95932553Y-111424319D01*
X95936789Y-111430622D01*
X95936789Y-111430623D01*
X95985859Y-111503646D01*
X96020908Y-111555805D01*
X96026525Y-111560916D01*
X96026528Y-111560919D01*
X96037903Y-111571269D01*
X96138076Y-111662419D01*
X96277293Y-111738008D01*
X96430522Y-111778207D01*
X96514477Y-111779526D01*
X96581319Y-111780576D01*
X96581322Y-111780576D01*
X96588916Y-111780695D01*
X96743332Y-111745329D01*
X96813742Y-111709917D01*
X96878072Y-111677563D01*
X96878075Y-111677561D01*
X96884855Y-111674151D01*
X96890626Y-111669222D01*
X96890629Y-111669220D01*
X96999542Y-111576199D01*
X96999543Y-111576198D01*
X97005314Y-111571269D01*
X97015586Y-111556974D01*
X97071581Y-111513326D01*
X97117909Y-111504500D01*
X98460141Y-111504500D01*
X98528262Y-111524502D01*
X98555522Y-111548169D01*
X98556671Y-111549500D01*
X98560908Y-111555805D01*
X98678076Y-111662419D01*
X98817293Y-111738008D01*
X98970522Y-111778207D01*
X99054477Y-111779526D01*
X99121319Y-111780576D01*
X99121322Y-111780576D01*
X99128916Y-111780695D01*
X99283332Y-111745329D01*
X99353742Y-111709917D01*
X99418072Y-111677563D01*
X99418075Y-111677561D01*
X99424855Y-111674151D01*
X99430626Y-111669222D01*
X99430629Y-111669220D01*
X99539536Y-111576204D01*
X99539536Y-111576203D01*
X99545314Y-111571269D01*
X99637755Y-111442624D01*
X99696842Y-111295641D01*
X99708589Y-111213102D01*
X99718581Y-111142891D01*
X99718581Y-111142888D01*
X99719162Y-111138807D01*
X99719307Y-111125000D01*
X99700276Y-110967733D01*
X99644280Y-110819546D01*
X99588089Y-110737787D01*
X99558855Y-110695251D01*
X99558854Y-110695249D01*
X99554553Y-110688992D01*
X99436275Y-110583611D01*
X99428889Y-110579700D01*
X99325378Y-110524894D01*
X99296274Y-110509484D01*
X99142633Y-110470892D01*
X99135034Y-110470852D01*
X99135033Y-110470852D01*
X99069181Y-110470507D01*
X98984221Y-110470062D01*
X98976841Y-110471834D01*
X98976839Y-110471834D01*
X98837563Y-110505271D01*
X98837560Y-110505272D01*
X98830184Y-110507043D01*
X98689414Y-110579700D01*
X98570039Y-110683838D01*
X98565672Y-110690051D01*
X98565667Y-110690057D01*
X98564336Y-110691951D01*
X98563013Y-110693005D01*
X98560589Y-110695697D01*
X98560140Y-110695293D01*
X98508802Y-110736183D01*
X98461250Y-110745500D01*
X97119682Y-110745500D01*
X97051561Y-110725498D01*
X97025114Y-110699860D01*
X97023878Y-110700949D01*
X97018855Y-110695251D01*
X97014553Y-110688992D01*
X96896275Y-110583611D01*
X96888889Y-110579700D01*
X96785378Y-110524894D01*
X96756274Y-110509484D01*
X96726616Y-110502034D01*
X96710754Y-110498050D01*
X96649559Y-110462055D01*
X96617538Y-110398689D01*
X96624859Y-110328071D01*
X96652355Y-110286751D01*
X97726010Y-109213096D01*
X109195729Y-109213096D01*
X109199035Y-109243039D01*
X109210751Y-109349157D01*
X109213113Y-109370553D01*
X109215723Y-109377684D01*
X109215723Y-109377686D01*
X109235976Y-109433029D01*
X109267553Y-109519319D01*
X109271789Y-109525622D01*
X109271789Y-109525623D01*
X109333787Y-109617885D01*
X109355908Y-109650805D01*
X109361525Y-109655916D01*
X109361528Y-109655919D01*
X109467460Y-109752309D01*
X109473076Y-109757419D01*
X109612293Y-109833008D01*
X109765522Y-109873207D01*
X109849477Y-109874526D01*
X109916319Y-109875576D01*
X109916322Y-109875576D01*
X109923916Y-109875695D01*
X110078332Y-109840329D01*
X110168688Y-109794885D01*
X110213072Y-109772563D01*
X110213075Y-109772561D01*
X110219855Y-109769151D01*
X110225626Y-109764222D01*
X110225629Y-109764220D01*
X110334542Y-109671199D01*
X110334543Y-109671198D01*
X110340314Y-109666269D01*
X110350586Y-109651974D01*
X110406581Y-109608326D01*
X110452909Y-109599500D01*
X114970141Y-109599500D01*
X115038262Y-109619502D01*
X115065522Y-109643169D01*
X115066671Y-109644500D01*
X115070908Y-109650805D01*
X115076525Y-109655916D01*
X115181721Y-109751636D01*
X115188076Y-109757419D01*
X115327293Y-109833008D01*
X115480522Y-109873207D01*
X115564477Y-109874526D01*
X115631319Y-109875576D01*
X115631322Y-109875576D01*
X115638916Y-109875695D01*
X115759420Y-109848096D01*
X131420729Y-109848096D01*
X131423763Y-109875576D01*
X131434457Y-109972436D01*
X131438113Y-110005553D01*
X131440723Y-110012684D01*
X131440723Y-110012686D01*
X131489645Y-110146372D01*
X131492553Y-110154319D01*
X131496789Y-110160622D01*
X131496789Y-110160623D01*
X131562960Y-110259095D01*
X131580908Y-110285805D01*
X131586527Y-110290918D01*
X131586528Y-110290919D01*
X131661898Y-110359500D01*
X131698076Y-110392419D01*
X131837293Y-110468008D01*
X131990522Y-110508207D01*
X132074477Y-110509526D01*
X132141319Y-110510576D01*
X132141322Y-110510576D01*
X132148916Y-110510695D01*
X132303332Y-110475329D01*
X132373742Y-110439917D01*
X132438072Y-110407563D01*
X132438075Y-110407561D01*
X132444855Y-110404151D01*
X132461789Y-110389688D01*
X132526579Y-110360658D01*
X132543619Y-110359500D01*
X134153153Y-110359500D01*
X134221274Y-110379502D01*
X134226068Y-110383185D01*
X134226266Y-110382907D01*
X134232459Y-110387308D01*
X134238076Y-110392419D01*
X134377293Y-110468008D01*
X134530522Y-110508207D01*
X134614477Y-110509526D01*
X134681319Y-110510576D01*
X134681322Y-110510576D01*
X134688916Y-110510695D01*
X134843332Y-110475329D01*
X134913742Y-110439917D01*
X134978072Y-110407563D01*
X134978075Y-110407561D01*
X134984855Y-110404151D01*
X134990626Y-110399222D01*
X134990629Y-110399220D01*
X135099536Y-110306204D01*
X135099536Y-110306203D01*
X135105314Y-110301269D01*
X135197755Y-110172624D01*
X135256842Y-110025641D01*
X135278199Y-109875576D01*
X135278581Y-109872891D01*
X135278581Y-109872888D01*
X135279162Y-109868807D01*
X135279307Y-109855000D01*
X135260276Y-109697733D01*
X135204280Y-109549546D01*
X135178603Y-109512185D01*
X135118855Y-109425251D01*
X135118854Y-109425249D01*
X135114553Y-109418992D01*
X135105598Y-109411013D01*
X135051712Y-109363003D01*
X134996275Y-109313611D01*
X134988889Y-109309700D01*
X134862988Y-109243039D01*
X134862989Y-109243039D01*
X134856274Y-109239484D01*
X134702633Y-109200892D01*
X134695034Y-109200852D01*
X134695033Y-109200852D01*
X134629181Y-109200507D01*
X134544221Y-109200062D01*
X134536841Y-109201834D01*
X134536839Y-109201834D01*
X134397563Y-109235271D01*
X134397560Y-109235272D01*
X134390184Y-109237043D01*
X134249414Y-109309700D01*
X134243692Y-109314692D01*
X134243690Y-109314693D01*
X134238236Y-109319451D01*
X134173753Y-109349157D01*
X134155409Y-109350500D01*
X132545667Y-109350500D01*
X132477546Y-109330498D01*
X132462143Y-109318802D01*
X132461954Y-109318670D01*
X132456275Y-109313611D01*
X132316274Y-109239484D01*
X132162633Y-109200892D01*
X132155034Y-109200852D01*
X132155033Y-109200852D01*
X132089181Y-109200507D01*
X132004221Y-109200062D01*
X131996841Y-109201834D01*
X131996839Y-109201834D01*
X131857563Y-109235271D01*
X131857560Y-109235272D01*
X131850184Y-109237043D01*
X131709414Y-109309700D01*
X131590039Y-109413838D01*
X131498950Y-109543444D01*
X131486431Y-109575554D01*
X131449139Y-109671204D01*
X131441406Y-109691037D01*
X131440414Y-109698570D01*
X131440414Y-109698571D01*
X131421752Y-109840329D01*
X131420729Y-109848096D01*
X115759420Y-109848096D01*
X115793332Y-109840329D01*
X115883688Y-109794885D01*
X115928072Y-109772563D01*
X115928075Y-109772561D01*
X115934855Y-109769151D01*
X115940626Y-109764222D01*
X115940629Y-109764220D01*
X116049536Y-109671204D01*
X116049536Y-109671203D01*
X116055314Y-109666269D01*
X116147755Y-109537624D01*
X116206842Y-109390641D01*
X116215401Y-109330498D01*
X116228581Y-109237891D01*
X116228581Y-109237888D01*
X116229162Y-109233807D01*
X116229307Y-109220000D01*
X116227969Y-109208939D01*
X116216727Y-109116045D01*
X116210276Y-109062733D01*
X116154280Y-108914546D01*
X116120563Y-108865487D01*
X116068855Y-108790251D01*
X116068854Y-108790249D01*
X116064553Y-108783992D01*
X116053772Y-108774386D01*
X116009475Y-108734920D01*
X115946275Y-108678611D01*
X115938889Y-108674700D01*
X115851013Y-108628172D01*
X115806274Y-108604484D01*
X115652633Y-108565892D01*
X115645034Y-108565852D01*
X115645033Y-108565852D01*
X115579181Y-108565507D01*
X115494221Y-108565062D01*
X115486841Y-108566834D01*
X115486839Y-108566834D01*
X115347563Y-108600271D01*
X115347560Y-108600272D01*
X115340184Y-108602043D01*
X115199414Y-108674700D01*
X115080039Y-108778838D01*
X115075672Y-108785051D01*
X115075667Y-108785057D01*
X115074336Y-108786951D01*
X115073013Y-108788005D01*
X115070589Y-108790697D01*
X115070140Y-108790293D01*
X115018802Y-108831183D01*
X114971250Y-108840500D01*
X110454682Y-108840500D01*
X110386561Y-108820498D01*
X110360114Y-108794860D01*
X110358878Y-108795949D01*
X110353855Y-108790251D01*
X110349553Y-108783992D01*
X110338772Y-108774386D01*
X110294475Y-108734920D01*
X110231275Y-108678611D01*
X110223889Y-108674700D01*
X110136013Y-108628172D01*
X110091274Y-108604484D01*
X109937633Y-108565892D01*
X109930034Y-108565852D01*
X109930033Y-108565852D01*
X109864181Y-108565507D01*
X109779221Y-108565062D01*
X109771841Y-108566834D01*
X109771839Y-108566834D01*
X109632563Y-108600271D01*
X109632560Y-108600272D01*
X109625184Y-108602043D01*
X109484414Y-108674700D01*
X109365039Y-108778838D01*
X109273950Y-108908444D01*
X109255177Y-108956595D01*
X109221618Y-109042670D01*
X109216406Y-109056037D01*
X109215414Y-109063570D01*
X109215414Y-109063571D01*
X109196738Y-109205433D01*
X109195729Y-109213096D01*
X97726010Y-109213096D01*
X99290216Y-107648890D01*
X99308964Y-107633748D01*
X99310189Y-107632633D01*
X99318940Y-107626983D01*
X99325387Y-107618805D01*
X99325389Y-107618803D01*
X99339729Y-107600612D01*
X99343678Y-107596168D01*
X99343604Y-107596106D01*
X99346957Y-107592149D01*
X99350638Y-107588468D01*
X99361865Y-107572758D01*
X99365421Y-107568021D01*
X99390708Y-107535944D01*
X99397156Y-107527765D01*
X99400189Y-107519128D01*
X99405513Y-107511678D01*
X99420202Y-107462563D01*
X99422034Y-107456926D01*
X99436390Y-107416045D01*
X99436390Y-107416044D01*
X99439018Y-107408561D01*
X99439500Y-107402996D01*
X99439500Y-107400288D01*
X99439614Y-107397654D01*
X99439643Y-107397556D01*
X99439807Y-107397563D01*
X99439851Y-107396859D01*
X99441713Y-107390634D01*
X99439597Y-107336777D01*
X99439500Y-107331830D01*
X99439500Y-107274730D01*
X99459502Y-107206609D01*
X99483669Y-107178919D01*
X99539536Y-107131204D01*
X99545314Y-107126269D01*
X99637755Y-106997624D01*
X99696842Y-106850641D01*
X99719162Y-106693807D01*
X99719307Y-106680000D01*
X99700276Y-106522733D01*
X99644280Y-106374546D01*
X99590160Y-106295800D01*
X132691801Y-106295800D01*
X132701545Y-106506333D01*
X132722371Y-106592749D01*
X132743399Y-106680000D01*
X132750924Y-106711226D01*
X132753406Y-106716684D01*
X132753407Y-106716688D01*
X132790527Y-106798327D01*
X132838157Y-106903084D01*
X132900216Y-106990571D01*
X132947680Y-107057482D01*
X132960096Y-107074986D01*
X133064552Y-107174981D01*
X133076785Y-107186691D01*
X133112340Y-107220728D01*
X133117375Y-107223979D01*
X133284360Y-107331800D01*
X133284363Y-107331801D01*
X133289397Y-107335052D01*
X133294960Y-107337294D01*
X133387138Y-107374443D01*
X133484878Y-107413834D01*
X133588163Y-107434004D01*
X133687283Y-107453361D01*
X133687286Y-107453361D01*
X133691729Y-107454229D01*
X133697270Y-107454500D01*
X134692659Y-107454500D01*
X134849806Y-107439507D01*
X134882615Y-107429882D01*
X135046278Y-107381868D01*
X135052042Y-107380177D01*
X135139496Y-107335135D01*
X135234079Y-107286422D01*
X135234082Y-107286420D01*
X135239410Y-107283676D01*
X135315408Y-107223979D01*
X135400432Y-107157192D01*
X135400436Y-107157188D01*
X135405149Y-107153486D01*
X135412604Y-107144895D01*
X135539350Y-106998835D01*
X135539354Y-106998830D01*
X135543281Y-106994304D01*
X135648819Y-106811874D01*
X135717957Y-106612778D01*
X135730892Y-106523571D01*
X135747338Y-106410140D01*
X135747338Y-106410137D01*
X135748199Y-106404200D01*
X135743182Y-106295800D01*
X136031801Y-106295800D01*
X136041545Y-106506333D01*
X136062371Y-106592749D01*
X136083399Y-106680000D01*
X136090924Y-106711226D01*
X136093406Y-106716684D01*
X136093407Y-106716688D01*
X136130527Y-106798327D01*
X136178157Y-106903084D01*
X136240216Y-106990571D01*
X136287680Y-107057482D01*
X136300096Y-107074986D01*
X136404552Y-107174981D01*
X136416785Y-107186691D01*
X136452340Y-107220728D01*
X136457375Y-107223979D01*
X136624360Y-107331800D01*
X136624363Y-107331801D01*
X136629397Y-107335052D01*
X136634960Y-107337294D01*
X136727138Y-107374443D01*
X136824878Y-107413834D01*
X136928163Y-107434004D01*
X137027283Y-107453361D01*
X137027286Y-107453361D01*
X137031729Y-107454229D01*
X137037270Y-107454500D01*
X138032659Y-107454500D01*
X138189806Y-107439507D01*
X138222615Y-107429882D01*
X138386278Y-107381868D01*
X138392042Y-107380177D01*
X138479496Y-107335135D01*
X138574079Y-107286422D01*
X138574082Y-107286420D01*
X138579410Y-107283676D01*
X138655408Y-107223979D01*
X138740432Y-107157192D01*
X138740436Y-107157188D01*
X138745149Y-107153486D01*
X138752604Y-107144895D01*
X138879350Y-106998835D01*
X138879354Y-106998830D01*
X138883281Y-106994304D01*
X138988819Y-106811874D01*
X139057957Y-106612778D01*
X139070892Y-106523571D01*
X139087338Y-106410140D01*
X139087338Y-106410137D01*
X139088199Y-106404200D01*
X139078455Y-106193667D01*
X139076605Y-106185988D01*
X139030482Y-105994607D01*
X139030481Y-105994605D01*
X139029076Y-105988774D01*
X139023705Y-105976960D01*
X138966364Y-105850846D01*
X138941843Y-105796916D01*
X138819904Y-105625014D01*
X138710806Y-105520576D01*
X138671990Y-105483417D01*
X138667660Y-105479272D01*
X138570171Y-105416324D01*
X138495640Y-105368200D01*
X138495637Y-105368199D01*
X138490603Y-105364948D01*
X138475485Y-105358855D01*
X138300685Y-105288408D01*
X138295122Y-105286166D01*
X138160739Y-105259923D01*
X138092717Y-105246639D01*
X138092714Y-105246639D01*
X138088271Y-105245771D01*
X138082730Y-105245500D01*
X137087341Y-105245500D01*
X136930194Y-105260493D01*
X136924434Y-105262183D01*
X136924433Y-105262183D01*
X136858585Y-105281501D01*
X136727958Y-105319823D01*
X136666857Y-105351292D01*
X136545921Y-105413578D01*
X136545918Y-105413580D01*
X136540590Y-105416324D01*
X136535875Y-105420028D01*
X136379568Y-105542808D01*
X136379564Y-105542812D01*
X136374851Y-105546514D01*
X136370920Y-105551044D01*
X136370919Y-105551045D01*
X136240650Y-105701165D01*
X136240646Y-105701170D01*
X136236719Y-105705696D01*
X136131181Y-105888126D01*
X136062043Y-106087222D01*
X136061183Y-106093155D01*
X136061182Y-106093158D01*
X136039159Y-106245052D01*
X136031801Y-106295800D01*
X135743182Y-106295800D01*
X135738455Y-106193667D01*
X135736605Y-106185988D01*
X135690482Y-105994607D01*
X135690481Y-105994605D01*
X135689076Y-105988774D01*
X135683705Y-105976960D01*
X135626364Y-105850846D01*
X135601843Y-105796916D01*
X135479904Y-105625014D01*
X135370806Y-105520576D01*
X135331990Y-105483417D01*
X135327660Y-105479272D01*
X135230171Y-105416324D01*
X135155640Y-105368200D01*
X135155637Y-105368199D01*
X135150603Y-105364948D01*
X135135485Y-105358855D01*
X134960685Y-105288408D01*
X134955122Y-105286166D01*
X134820739Y-105259923D01*
X134752717Y-105246639D01*
X134752714Y-105246639D01*
X134748271Y-105245771D01*
X134742730Y-105245500D01*
X133747341Y-105245500D01*
X133590194Y-105260493D01*
X133584434Y-105262183D01*
X133584433Y-105262183D01*
X133518585Y-105281501D01*
X133387958Y-105319823D01*
X133326857Y-105351292D01*
X133205921Y-105413578D01*
X133205918Y-105413580D01*
X133200590Y-105416324D01*
X133195875Y-105420028D01*
X133039568Y-105542808D01*
X133039564Y-105542812D01*
X133034851Y-105546514D01*
X133030920Y-105551044D01*
X133030919Y-105551045D01*
X132900650Y-105701165D01*
X132900646Y-105701170D01*
X132896719Y-105705696D01*
X132791181Y-105888126D01*
X132722043Y-106087222D01*
X132721183Y-106093155D01*
X132721182Y-106093158D01*
X132699159Y-106245052D01*
X132691801Y-106295800D01*
X99590160Y-106295800D01*
X99558855Y-106250251D01*
X99558854Y-106250249D01*
X99554553Y-106243992D01*
X99436275Y-106138611D01*
X99428889Y-106134700D01*
X99358845Y-106097614D01*
X99296274Y-106064484D01*
X99142633Y-106025892D01*
X99135034Y-106025852D01*
X99135033Y-106025852D01*
X99069181Y-106025507D01*
X98984221Y-106025062D01*
X98976841Y-106026834D01*
X98976839Y-106026834D01*
X98837563Y-106060271D01*
X98837560Y-106060272D01*
X98830184Y-106062043D01*
X98689414Y-106134700D01*
X98570039Y-106238838D01*
X98478950Y-106368444D01*
X98460380Y-106416073D01*
X98427349Y-106500795D01*
X98421406Y-106516037D01*
X98400729Y-106673096D01*
X98406933Y-106729287D01*
X98416825Y-106818883D01*
X98418113Y-106830553D01*
X98420723Y-106837684D01*
X98420723Y-106837686D01*
X98457628Y-106938533D01*
X98472553Y-106979319D01*
X98476789Y-106985622D01*
X98476789Y-106985623D01*
X98484853Y-106997624D01*
X98560908Y-107110805D01*
X98566524Y-107115915D01*
X98571488Y-107121666D01*
X98570024Y-107122930D01*
X98601716Y-107174981D01*
X98599993Y-107245957D01*
X98569089Y-107296629D01*
X97126687Y-108739031D01*
X97064375Y-108773057D01*
X96993560Y-108767992D01*
X96936724Y-108725445D01*
X96913412Y-108671274D01*
X96900433Y-108595740D01*
X96897453Y-108584620D01*
X96828044Y-108396478D01*
X96823094Y-108386100D01*
X96720561Y-108213758D01*
X96713795Y-108204446D01*
X96581571Y-108053673D01*
X96573228Y-108045756D01*
X96415743Y-107921605D01*
X96406092Y-107915337D01*
X96228625Y-107821967D01*
X96217991Y-107817562D01*
X96026475Y-107758095D01*
X96015222Y-107755703D01*
X95931632Y-107745809D01*
X95866335Y-107717938D01*
X95826471Y-107659189D01*
X95824698Y-107588215D01*
X95861578Y-107527548D01*
X95925402Y-107496451D01*
X95934881Y-107495214D01*
X95991292Y-107490031D01*
X95996849Y-107488464D01*
X95996853Y-107488463D01*
X96189949Y-107434004D01*
X96189951Y-107434003D01*
X96195508Y-107432436D01*
X96200684Y-107429884D01*
X96200688Y-107429882D01*
X96380628Y-107341145D01*
X96385809Y-107338590D01*
X96403832Y-107325132D01*
X96551197Y-107215089D01*
X96551198Y-107215088D01*
X96555821Y-107211636D01*
X96563589Y-107203233D01*
X96695931Y-107060066D01*
X96695933Y-107060063D01*
X96699850Y-107055826D01*
X96813074Y-106876377D01*
X96891700Y-106679300D01*
X96892825Y-106673643D01*
X96892827Y-106673637D01*
X96931967Y-106476863D01*
X96931967Y-106476859D01*
X96933094Y-106471195D01*
X96933566Y-106435187D01*
X96935312Y-106301797D01*
X96935872Y-106259031D01*
X96934651Y-106251922D01*
X96900918Y-106055610D01*
X96900918Y-106055609D01*
X96899939Y-106049913D01*
X96826499Y-105850846D01*
X96718012Y-105668495D01*
X96714206Y-105664155D01*
X96714203Y-105664151D01*
X96581917Y-105513309D01*
X96578110Y-105508968D01*
X96573574Y-105505392D01*
X96416014Y-105381181D01*
X96416012Y-105381179D01*
X96411480Y-105377607D01*
X96223701Y-105278812D01*
X96021062Y-105215891D01*
X96015327Y-105215212D01*
X96015326Y-105215212D01*
X95934026Y-105205589D01*
X95868729Y-105177718D01*
X95828865Y-105118969D01*
X95827092Y-105047995D01*
X95863972Y-104987328D01*
X95927796Y-104956231D01*
X95937274Y-104954995D01*
X95991292Y-104950031D01*
X95996849Y-104948464D01*
X95996853Y-104948463D01*
X96189949Y-104894004D01*
X96189951Y-104894003D01*
X96195508Y-104892436D01*
X96200684Y-104889884D01*
X96200688Y-104889882D01*
X96380628Y-104801145D01*
X96385809Y-104798590D01*
X96393037Y-104793193D01*
X96551197Y-104675089D01*
X96551198Y-104675088D01*
X96555821Y-104671636D01*
X96559737Y-104667400D01*
X96695931Y-104520066D01*
X96695933Y-104520063D01*
X96699850Y-104515826D01*
X96813074Y-104336377D01*
X96891700Y-104139300D01*
X96892825Y-104133643D01*
X96892827Y-104133637D01*
X96931967Y-103936863D01*
X96931967Y-103936859D01*
X96933094Y-103931195D01*
X96933566Y-103895187D01*
X96935348Y-103759045D01*
X96935390Y-103755800D01*
X132691801Y-103755800D01*
X132701545Y-103966333D01*
X132702949Y-103972158D01*
X132737497Y-104115510D01*
X132750924Y-104171226D01*
X132838157Y-104363084D01*
X132960096Y-104534986D01*
X133046020Y-104617240D01*
X133088329Y-104657742D01*
X133112340Y-104680728D01*
X133117375Y-104683979D01*
X133284360Y-104791800D01*
X133284363Y-104791801D01*
X133289397Y-104795052D01*
X133294960Y-104797294D01*
X133351566Y-104820107D01*
X133484878Y-104873834D01*
X133588163Y-104894004D01*
X133687283Y-104913361D01*
X133687286Y-104913361D01*
X133691729Y-104914229D01*
X133697270Y-104914500D01*
X134692659Y-104914500D01*
X134849806Y-104899507D01*
X134882615Y-104889882D01*
X135046278Y-104841868D01*
X135052042Y-104840177D01*
X135139496Y-104795135D01*
X135234079Y-104746422D01*
X135234082Y-104746420D01*
X135239410Y-104743676D01*
X135315408Y-104683979D01*
X135400432Y-104617192D01*
X135400436Y-104617188D01*
X135405149Y-104613486D01*
X135419889Y-104596500D01*
X135539350Y-104458835D01*
X135539354Y-104458830D01*
X135543281Y-104454304D01*
X135648819Y-104271874D01*
X135717957Y-104072778D01*
X135719829Y-104059872D01*
X135747338Y-103870140D01*
X135747338Y-103870137D01*
X135748199Y-103864200D01*
X135743182Y-103755800D01*
X136031801Y-103755800D01*
X136041545Y-103966333D01*
X136042949Y-103972158D01*
X136077497Y-104115510D01*
X136090924Y-104171226D01*
X136178157Y-104363084D01*
X136300096Y-104534986D01*
X136386020Y-104617240D01*
X136428329Y-104657742D01*
X136452340Y-104680728D01*
X136457375Y-104683979D01*
X136624360Y-104791800D01*
X136624363Y-104791801D01*
X136629397Y-104795052D01*
X136634960Y-104797294D01*
X136691566Y-104820107D01*
X136824878Y-104873834D01*
X136928163Y-104894004D01*
X137027283Y-104913361D01*
X137027286Y-104913361D01*
X137031729Y-104914229D01*
X137037270Y-104914500D01*
X138032659Y-104914500D01*
X138189806Y-104899507D01*
X138222615Y-104889882D01*
X138386278Y-104841868D01*
X138392042Y-104840177D01*
X138479496Y-104795135D01*
X138574079Y-104746422D01*
X138574082Y-104746420D01*
X138579410Y-104743676D01*
X138655408Y-104683979D01*
X138740432Y-104617192D01*
X138740436Y-104617188D01*
X138745149Y-104613486D01*
X138759889Y-104596500D01*
X138879350Y-104458835D01*
X138879354Y-104458830D01*
X138883281Y-104454304D01*
X138988819Y-104271874D01*
X139057957Y-104072778D01*
X139059829Y-104059872D01*
X139087338Y-103870140D01*
X139087338Y-103870137D01*
X139088199Y-103864200D01*
X139078455Y-103653667D01*
X139054233Y-103553158D01*
X139030482Y-103454607D01*
X139030481Y-103454605D01*
X139029076Y-103448774D01*
X138941843Y-103256916D01*
X138819904Y-103085014D01*
X138706990Y-102976922D01*
X138671990Y-102943417D01*
X138667660Y-102939272D01*
X138515744Y-102841181D01*
X138495640Y-102828200D01*
X138495637Y-102828199D01*
X138490603Y-102824948D01*
X138475485Y-102818855D01*
X138300685Y-102748408D01*
X138295122Y-102746166D01*
X138160739Y-102719923D01*
X138092717Y-102706639D01*
X138092714Y-102706639D01*
X138088271Y-102705771D01*
X138082730Y-102705500D01*
X137087341Y-102705500D01*
X136930194Y-102720493D01*
X136924434Y-102722183D01*
X136924433Y-102722183D01*
X136779524Y-102764695D01*
X136727958Y-102779823D01*
X136722619Y-102782573D01*
X136545921Y-102873578D01*
X136545918Y-102873580D01*
X136540590Y-102876324D01*
X136535875Y-102880028D01*
X136379568Y-103002808D01*
X136379564Y-103002812D01*
X136374851Y-103006514D01*
X136370920Y-103011044D01*
X136370919Y-103011045D01*
X136240650Y-103161165D01*
X136240646Y-103161170D01*
X136236719Y-103165696D01*
X136131181Y-103348126D01*
X136062043Y-103547222D01*
X136061183Y-103553155D01*
X136061182Y-103553158D01*
X136040677Y-103694584D01*
X136031801Y-103755800D01*
X135743182Y-103755800D01*
X135738455Y-103653667D01*
X135714233Y-103553158D01*
X135690482Y-103454607D01*
X135690481Y-103454605D01*
X135689076Y-103448774D01*
X135601843Y-103256916D01*
X135479904Y-103085014D01*
X135366990Y-102976922D01*
X135331990Y-102943417D01*
X135327660Y-102939272D01*
X135175744Y-102841181D01*
X135155640Y-102828200D01*
X135155637Y-102828199D01*
X135150603Y-102824948D01*
X135135485Y-102818855D01*
X134960685Y-102748408D01*
X134955122Y-102746166D01*
X134820739Y-102719923D01*
X134752717Y-102706639D01*
X134752714Y-102706639D01*
X134748271Y-102705771D01*
X134742730Y-102705500D01*
X133747341Y-102705500D01*
X133590194Y-102720493D01*
X133584434Y-102722183D01*
X133584433Y-102722183D01*
X133439524Y-102764695D01*
X133387958Y-102779823D01*
X133382619Y-102782573D01*
X133205921Y-102873578D01*
X133205918Y-102873580D01*
X133200590Y-102876324D01*
X133195875Y-102880028D01*
X133039568Y-103002808D01*
X133039564Y-103002812D01*
X133034851Y-103006514D01*
X133030920Y-103011044D01*
X133030919Y-103011045D01*
X132900650Y-103161165D01*
X132900646Y-103161170D01*
X132896719Y-103165696D01*
X132791181Y-103348126D01*
X132722043Y-103547222D01*
X132721183Y-103553155D01*
X132721182Y-103553158D01*
X132700677Y-103694584D01*
X132691801Y-103755800D01*
X96935390Y-103755800D01*
X96935872Y-103719031D01*
X96934651Y-103711922D01*
X96900918Y-103515610D01*
X96900918Y-103515609D01*
X96899939Y-103509913D01*
X96826499Y-103310846D01*
X96735410Y-103157738D01*
X96720968Y-103133463D01*
X96720966Y-103133460D01*
X96718012Y-103128495D01*
X96714206Y-103124155D01*
X96714203Y-103124151D01*
X96581917Y-102973309D01*
X96578110Y-102968968D01*
X96573574Y-102965392D01*
X96416014Y-102841181D01*
X96416012Y-102841179D01*
X96411480Y-102837607D01*
X96223701Y-102738812D01*
X96021062Y-102675891D01*
X96015327Y-102675212D01*
X96015326Y-102675212D01*
X95934026Y-102665589D01*
X95868729Y-102637718D01*
X95828865Y-102578969D01*
X95827092Y-102507995D01*
X95863972Y-102447328D01*
X95927796Y-102416231D01*
X95937274Y-102414995D01*
X95991292Y-102410031D01*
X95996849Y-102408464D01*
X95996853Y-102408463D01*
X96189949Y-102354004D01*
X96189951Y-102354003D01*
X96195508Y-102352436D01*
X96200684Y-102349884D01*
X96200688Y-102349882D01*
X96380628Y-102261145D01*
X96385809Y-102258590D01*
X96400203Y-102247842D01*
X96551197Y-102135089D01*
X96551198Y-102135088D01*
X96555821Y-102131636D01*
X96559737Y-102127400D01*
X96695931Y-101980066D01*
X96695933Y-101980063D01*
X96699850Y-101975826D01*
X96813074Y-101796377D01*
X96891700Y-101599300D01*
X96892825Y-101593643D01*
X96892827Y-101593637D01*
X96931967Y-101396863D01*
X96931967Y-101396859D01*
X96933094Y-101391195D01*
X96933566Y-101355187D01*
X96935312Y-101221797D01*
X96935391Y-101215800D01*
X132691801Y-101215800D01*
X132701545Y-101426333D01*
X132702949Y-101432158D01*
X132745265Y-101607743D01*
X132750924Y-101631226D01*
X132838157Y-101823084D01*
X132960096Y-101994986D01*
X133069194Y-102099424D01*
X133076785Y-102106691D01*
X133112340Y-102140728D01*
X133117375Y-102143979D01*
X133284360Y-102251800D01*
X133284363Y-102251801D01*
X133289397Y-102255052D01*
X133294960Y-102257294D01*
X133317684Y-102266452D01*
X133484878Y-102333834D01*
X133588163Y-102354004D01*
X133687283Y-102373361D01*
X133687286Y-102373361D01*
X133691729Y-102374229D01*
X133697270Y-102374500D01*
X134692659Y-102374500D01*
X134849806Y-102359507D01*
X134882615Y-102349882D01*
X135046278Y-102301868D01*
X135052042Y-102300177D01*
X135139496Y-102255135D01*
X135234079Y-102206422D01*
X135234082Y-102206420D01*
X135239410Y-102203676D01*
X135315408Y-102143979D01*
X135400432Y-102077192D01*
X135400436Y-102077188D01*
X135405149Y-102073486D01*
X135469674Y-101999128D01*
X135539350Y-101918835D01*
X135539354Y-101918830D01*
X135543281Y-101914304D01*
X135648819Y-101731874D01*
X135717957Y-101532778D01*
X135719940Y-101519106D01*
X135747338Y-101330140D01*
X135747338Y-101330137D01*
X135748199Y-101324200D01*
X135743182Y-101215800D01*
X136031801Y-101215800D01*
X136041545Y-101426333D01*
X136042949Y-101432158D01*
X136085265Y-101607743D01*
X136090924Y-101631226D01*
X136178157Y-101823084D01*
X136300096Y-101994986D01*
X136409194Y-102099424D01*
X136416785Y-102106691D01*
X136452340Y-102140728D01*
X136457375Y-102143979D01*
X136624360Y-102251800D01*
X136624363Y-102251801D01*
X136629397Y-102255052D01*
X136634960Y-102257294D01*
X136657684Y-102266452D01*
X136824878Y-102333834D01*
X136928163Y-102354004D01*
X137027283Y-102373361D01*
X137027286Y-102373361D01*
X137031729Y-102374229D01*
X137037270Y-102374500D01*
X138032659Y-102374500D01*
X138189806Y-102359507D01*
X138222615Y-102349882D01*
X138386278Y-102301868D01*
X138392042Y-102300177D01*
X138479496Y-102255135D01*
X138574079Y-102206422D01*
X138574082Y-102206420D01*
X138579410Y-102203676D01*
X138655408Y-102143979D01*
X138740432Y-102077192D01*
X138740436Y-102077188D01*
X138745149Y-102073486D01*
X138809674Y-101999128D01*
X138879350Y-101918835D01*
X138879354Y-101918830D01*
X138883281Y-101914304D01*
X138988819Y-101731874D01*
X139057957Y-101532778D01*
X139059940Y-101519106D01*
X139087338Y-101330140D01*
X139087338Y-101330137D01*
X139088199Y-101324200D01*
X139078455Y-101113667D01*
X139054233Y-101013158D01*
X139030482Y-100914607D01*
X139030481Y-100914605D01*
X139029076Y-100908774D01*
X139016474Y-100881056D01*
X138966364Y-100770846D01*
X138941843Y-100716916D01*
X138819904Y-100545014D01*
X138710806Y-100440576D01*
X138671990Y-100403417D01*
X138667660Y-100399272D01*
X138640971Y-100382039D01*
X138495640Y-100288200D01*
X138495637Y-100288199D01*
X138490603Y-100284948D01*
X138475485Y-100278855D01*
X138300685Y-100208408D01*
X138295122Y-100206166D01*
X138148936Y-100177618D01*
X138092717Y-100166639D01*
X138092714Y-100166639D01*
X138088271Y-100165771D01*
X138082730Y-100165500D01*
X137087341Y-100165500D01*
X136930194Y-100180493D01*
X136924434Y-100182183D01*
X136924433Y-100182183D01*
X136858585Y-100201501D01*
X136727958Y-100239823D01*
X136722619Y-100242573D01*
X136545921Y-100333578D01*
X136545918Y-100333580D01*
X136540590Y-100336324D01*
X136489672Y-100376320D01*
X136379568Y-100462808D01*
X136379564Y-100462812D01*
X136374851Y-100466514D01*
X136370920Y-100471044D01*
X136370919Y-100471045D01*
X136240650Y-100621165D01*
X136240646Y-100621170D01*
X136236719Y-100625696D01*
X136131181Y-100808126D01*
X136062043Y-101007222D01*
X136061183Y-101013155D01*
X136061182Y-101013158D01*
X136040677Y-101154584D01*
X136031801Y-101215800D01*
X135743182Y-101215800D01*
X135738455Y-101113667D01*
X135714233Y-101013158D01*
X135690482Y-100914607D01*
X135690481Y-100914605D01*
X135689076Y-100908774D01*
X135676474Y-100881056D01*
X135626364Y-100770846D01*
X135601843Y-100716916D01*
X135479904Y-100545014D01*
X135370806Y-100440576D01*
X135331990Y-100403417D01*
X135327660Y-100399272D01*
X135300971Y-100382039D01*
X135155640Y-100288200D01*
X135155637Y-100288199D01*
X135150603Y-100284948D01*
X135135485Y-100278855D01*
X134960685Y-100208408D01*
X134955122Y-100206166D01*
X134808936Y-100177618D01*
X134752717Y-100166639D01*
X134752714Y-100166639D01*
X134748271Y-100165771D01*
X134742730Y-100165500D01*
X133747341Y-100165500D01*
X133590194Y-100180493D01*
X133584434Y-100182183D01*
X133584433Y-100182183D01*
X133518585Y-100201501D01*
X133387958Y-100239823D01*
X133382619Y-100242573D01*
X133205921Y-100333578D01*
X133205918Y-100333580D01*
X133200590Y-100336324D01*
X133149672Y-100376320D01*
X133039568Y-100462808D01*
X133039564Y-100462812D01*
X133034851Y-100466514D01*
X133030920Y-100471044D01*
X133030919Y-100471045D01*
X132900650Y-100621165D01*
X132900646Y-100621170D01*
X132896719Y-100625696D01*
X132791181Y-100808126D01*
X132722043Y-101007222D01*
X132721183Y-101013155D01*
X132721182Y-101013158D01*
X132700677Y-101154584D01*
X132691801Y-101215800D01*
X96935391Y-101215800D01*
X96935872Y-101179031D01*
X96934651Y-101171922D01*
X96900918Y-100975610D01*
X96900918Y-100975609D01*
X96899939Y-100969913D01*
X96826499Y-100770846D01*
X96718012Y-100588495D01*
X96714206Y-100584155D01*
X96714203Y-100584151D01*
X96581917Y-100433309D01*
X96578110Y-100428968D01*
X96573574Y-100425392D01*
X96416014Y-100301181D01*
X96416012Y-100301179D01*
X96411480Y-100297607D01*
X96223701Y-100198812D01*
X96021062Y-100135891D01*
X96015327Y-100135212D01*
X96015326Y-100135212D01*
X95934026Y-100125589D01*
X95868729Y-100097718D01*
X95828865Y-100038969D01*
X95827092Y-99967995D01*
X95863972Y-99907328D01*
X95927796Y-99876231D01*
X95937274Y-99874995D01*
X95991292Y-99870031D01*
X95996849Y-99868464D01*
X95996853Y-99868463D01*
X96189949Y-99814004D01*
X96189951Y-99814003D01*
X96195508Y-99812436D01*
X96200684Y-99809884D01*
X96200688Y-99809882D01*
X96380628Y-99721145D01*
X96385809Y-99718590D01*
X96407500Y-99702393D01*
X96551197Y-99595089D01*
X96551198Y-99595088D01*
X96555821Y-99591636D01*
X96559737Y-99587400D01*
X96695931Y-99440066D01*
X96695933Y-99440063D01*
X96699850Y-99435826D01*
X96813074Y-99256377D01*
X96891700Y-99059300D01*
X96892825Y-99053643D01*
X96892827Y-99053637D01*
X96931967Y-98856863D01*
X96931967Y-98856859D01*
X96933094Y-98851195D01*
X96933566Y-98815187D01*
X96935312Y-98681797D01*
X96935391Y-98675800D01*
X132691801Y-98675800D01*
X132701545Y-98886333D01*
X132702949Y-98892158D01*
X132737497Y-99035510D01*
X132750924Y-99091226D01*
X132838157Y-99283084D01*
X132960096Y-99454986D01*
X133069194Y-99559424D01*
X133076785Y-99566691D01*
X133112340Y-99600728D01*
X133117375Y-99603979D01*
X133284360Y-99711800D01*
X133284363Y-99711801D01*
X133289397Y-99715052D01*
X133294960Y-99717294D01*
X133322009Y-99728195D01*
X133484878Y-99793834D01*
X133588163Y-99814004D01*
X133687283Y-99833361D01*
X133687286Y-99833361D01*
X133691729Y-99834229D01*
X133697270Y-99834500D01*
X134692659Y-99834500D01*
X134849806Y-99819507D01*
X134882615Y-99809882D01*
X135046278Y-99761868D01*
X135052042Y-99760177D01*
X135139496Y-99715135D01*
X135234079Y-99666422D01*
X135234082Y-99666420D01*
X135239410Y-99663676D01*
X135315408Y-99603979D01*
X135400432Y-99537192D01*
X135400436Y-99537188D01*
X135405149Y-99533486D01*
X135469674Y-99459128D01*
X135539350Y-99378835D01*
X135539354Y-99378830D01*
X135543281Y-99374304D01*
X135648819Y-99191874D01*
X135717957Y-98992778D01*
X135733724Y-98884038D01*
X135747338Y-98790140D01*
X135747338Y-98790137D01*
X135748199Y-98784200D01*
X135743182Y-98675800D01*
X136031801Y-98675800D01*
X136041545Y-98886333D01*
X136042949Y-98892158D01*
X136077497Y-99035510D01*
X136090924Y-99091226D01*
X136178157Y-99283084D01*
X136300096Y-99454986D01*
X136409194Y-99559424D01*
X136416785Y-99566691D01*
X136452340Y-99600728D01*
X136457375Y-99603979D01*
X136624360Y-99711800D01*
X136624363Y-99711801D01*
X136629397Y-99715052D01*
X136634960Y-99717294D01*
X136662009Y-99728195D01*
X136824878Y-99793834D01*
X136928163Y-99814004D01*
X137027283Y-99833361D01*
X137027286Y-99833361D01*
X137031729Y-99834229D01*
X137037270Y-99834500D01*
X138032659Y-99834500D01*
X138189806Y-99819507D01*
X138222615Y-99809882D01*
X138386278Y-99761868D01*
X138392042Y-99760177D01*
X138479496Y-99715135D01*
X138574079Y-99666422D01*
X138574082Y-99666420D01*
X138579410Y-99663676D01*
X138655408Y-99603979D01*
X138740432Y-99537192D01*
X138740436Y-99537188D01*
X138745149Y-99533486D01*
X138809674Y-99459128D01*
X138879350Y-99378835D01*
X138879354Y-99378830D01*
X138883281Y-99374304D01*
X138988819Y-99191874D01*
X139057957Y-98992778D01*
X139073724Y-98884038D01*
X139087338Y-98790140D01*
X139087338Y-98790137D01*
X139088199Y-98784200D01*
X139078455Y-98573667D01*
X139054233Y-98473158D01*
X139030482Y-98374607D01*
X139030481Y-98374605D01*
X139029076Y-98368774D01*
X138941843Y-98176916D01*
X138819904Y-98005014D01*
X138710806Y-97900576D01*
X138671990Y-97863417D01*
X138667660Y-97859272D01*
X138565918Y-97793578D01*
X138495640Y-97748200D01*
X138495637Y-97748199D01*
X138490603Y-97744948D01*
X138475485Y-97738855D01*
X138300685Y-97668408D01*
X138295122Y-97666166D01*
X138160739Y-97639923D01*
X138092717Y-97626639D01*
X138092714Y-97626639D01*
X138088271Y-97625771D01*
X138082730Y-97625500D01*
X137087341Y-97625500D01*
X136930194Y-97640493D01*
X136924434Y-97642183D01*
X136924433Y-97642183D01*
X136858585Y-97661501D01*
X136727958Y-97699823D01*
X136722619Y-97702573D01*
X136545921Y-97793578D01*
X136545918Y-97793580D01*
X136540590Y-97796324D01*
X136535875Y-97800028D01*
X136379568Y-97922808D01*
X136379564Y-97922812D01*
X136374851Y-97926514D01*
X136370920Y-97931044D01*
X136370919Y-97931045D01*
X136240650Y-98081165D01*
X136240646Y-98081170D01*
X136236719Y-98085696D01*
X136131181Y-98268126D01*
X136062043Y-98467222D01*
X136061183Y-98473155D01*
X136061182Y-98473158D01*
X136040677Y-98614584D01*
X136031801Y-98675800D01*
X135743182Y-98675800D01*
X135738455Y-98573667D01*
X135714233Y-98473158D01*
X135690482Y-98374607D01*
X135690481Y-98374605D01*
X135689076Y-98368774D01*
X135601843Y-98176916D01*
X135479904Y-98005014D01*
X135370806Y-97900576D01*
X135331990Y-97863417D01*
X135327660Y-97859272D01*
X135225918Y-97793578D01*
X135155640Y-97748200D01*
X135155637Y-97748199D01*
X135150603Y-97744948D01*
X135135485Y-97738855D01*
X134960685Y-97668408D01*
X134955122Y-97666166D01*
X134820739Y-97639923D01*
X134752717Y-97626639D01*
X134752714Y-97626639D01*
X134748271Y-97625771D01*
X134742730Y-97625500D01*
X133747341Y-97625500D01*
X133590194Y-97640493D01*
X133584434Y-97642183D01*
X133584433Y-97642183D01*
X133518585Y-97661501D01*
X133387958Y-97699823D01*
X133382619Y-97702573D01*
X133205921Y-97793578D01*
X133205918Y-97793580D01*
X133200590Y-97796324D01*
X133195875Y-97800028D01*
X133039568Y-97922808D01*
X133039564Y-97922812D01*
X133034851Y-97926514D01*
X133030920Y-97931044D01*
X133030919Y-97931045D01*
X132900650Y-98081165D01*
X132900646Y-98081170D01*
X132896719Y-98085696D01*
X132791181Y-98268126D01*
X132722043Y-98467222D01*
X132721183Y-98473155D01*
X132721182Y-98473158D01*
X132700677Y-98614584D01*
X132691801Y-98675800D01*
X96935391Y-98675800D01*
X96935872Y-98639031D01*
X96934651Y-98631922D01*
X96900918Y-98435610D01*
X96900918Y-98435609D01*
X96899939Y-98429913D01*
X96826499Y-98230846D01*
X96718012Y-98048495D01*
X96714206Y-98044155D01*
X96714203Y-98044151D01*
X96581917Y-97893309D01*
X96578110Y-97888968D01*
X96573574Y-97885392D01*
X96416014Y-97761181D01*
X96416012Y-97761179D01*
X96411480Y-97757607D01*
X96223701Y-97658812D01*
X96050726Y-97605102D01*
X96026579Y-97597604D01*
X96026578Y-97597604D01*
X96021062Y-97595891D01*
X96015327Y-97595212D01*
X96015326Y-97595212D01*
X95934026Y-97585589D01*
X95868729Y-97557718D01*
X95828865Y-97498969D01*
X95827092Y-97427995D01*
X95863972Y-97367328D01*
X95927796Y-97336231D01*
X95937274Y-97334995D01*
X95991292Y-97330031D01*
X95996849Y-97328464D01*
X95996853Y-97328463D01*
X96189949Y-97274004D01*
X96189951Y-97274003D01*
X96195508Y-97272436D01*
X96200684Y-97269884D01*
X96200688Y-97269882D01*
X96380628Y-97181145D01*
X96385809Y-97178590D01*
X96407500Y-97162393D01*
X96551197Y-97055089D01*
X96551198Y-97055088D01*
X96555821Y-97051636D01*
X96559737Y-97047400D01*
X96695931Y-96900066D01*
X96695933Y-96900063D01*
X96699850Y-96895826D01*
X96813074Y-96716377D01*
X96891700Y-96519300D01*
X96892825Y-96513643D01*
X96892827Y-96513637D01*
X96928955Y-96332007D01*
X132701382Y-96332007D01*
X132701765Y-96340273D01*
X132703446Y-96352087D01*
X132749993Y-96545229D01*
X132753882Y-96556524D01*
X132836112Y-96737379D01*
X132842059Y-96747721D01*
X132957010Y-96909772D01*
X132964803Y-96918800D01*
X133108321Y-97056189D01*
X133117686Y-97063585D01*
X133284590Y-97171354D01*
X133295194Y-97176850D01*
X133479452Y-97251108D01*
X133490911Y-97254502D01*
X133687332Y-97292861D01*
X133696168Y-97293934D01*
X133698871Y-97294000D01*
X134074885Y-97294000D01*
X134090124Y-97289525D01*
X134091329Y-97288135D01*
X134093000Y-97280452D01*
X134093000Y-97275885D01*
X134347000Y-97275885D01*
X134351475Y-97291124D01*
X134352865Y-97292329D01*
X134360548Y-97294000D01*
X134689644Y-97294000D01*
X134695621Y-97293715D01*
X134843734Y-97279584D01*
X134855472Y-97277324D01*
X135046091Y-97221402D01*
X135057194Y-97216961D01*
X135233807Y-97126000D01*
X135243853Y-97119550D01*
X135400086Y-96996829D01*
X135408735Y-96988592D01*
X135538940Y-96838543D01*
X135545877Y-96828817D01*
X135645357Y-96656861D01*
X135650331Y-96645997D01*
X135715502Y-96458324D01*
X135718330Y-96446722D01*
X135734539Y-96334929D01*
X135734123Y-96332007D01*
X136041382Y-96332007D01*
X136041765Y-96340273D01*
X136043446Y-96352087D01*
X136089993Y-96545229D01*
X136093882Y-96556524D01*
X136176112Y-96737379D01*
X136182059Y-96747721D01*
X136297010Y-96909772D01*
X136304803Y-96918800D01*
X136448321Y-97056189D01*
X136457686Y-97063585D01*
X136624590Y-97171354D01*
X136635194Y-97176850D01*
X136819452Y-97251108D01*
X136830911Y-97254502D01*
X137027332Y-97292861D01*
X137036168Y-97293934D01*
X137038871Y-97294000D01*
X137414885Y-97294000D01*
X137430124Y-97289525D01*
X137431329Y-97288135D01*
X137433000Y-97280452D01*
X137433000Y-97275885D01*
X137687000Y-97275885D01*
X137691475Y-97291124D01*
X137692865Y-97292329D01*
X137700548Y-97294000D01*
X138029644Y-97294000D01*
X138035621Y-97293715D01*
X138183734Y-97279584D01*
X138195472Y-97277324D01*
X138386091Y-97221402D01*
X138397194Y-97216961D01*
X138573807Y-97126000D01*
X138583853Y-97119550D01*
X138740086Y-96996829D01*
X138748735Y-96988592D01*
X138878940Y-96838543D01*
X138885877Y-96828817D01*
X138985357Y-96656861D01*
X138990331Y-96645997D01*
X139055502Y-96458324D01*
X139058330Y-96446722D01*
X139074539Y-96334929D01*
X139072553Y-96320993D01*
X139058985Y-96317000D01*
X137705115Y-96317000D01*
X137689876Y-96321475D01*
X137688671Y-96322865D01*
X137687000Y-96330548D01*
X137687000Y-97275885D01*
X137433000Y-97275885D01*
X137433000Y-96335115D01*
X137428525Y-96319876D01*
X137427135Y-96318671D01*
X137419452Y-96317000D01*
X136058803Y-96317000D01*
X136043564Y-96321475D01*
X136043378Y-96321689D01*
X136041382Y-96332007D01*
X135734123Y-96332007D01*
X135732553Y-96320993D01*
X135718985Y-96317000D01*
X134365115Y-96317000D01*
X134349876Y-96321475D01*
X134348671Y-96322865D01*
X134347000Y-96330548D01*
X134347000Y-97275885D01*
X134093000Y-97275885D01*
X134093000Y-96335115D01*
X134088525Y-96319876D01*
X134087135Y-96318671D01*
X134079452Y-96317000D01*
X132718803Y-96317000D01*
X132703564Y-96321475D01*
X132703378Y-96321689D01*
X132701382Y-96332007D01*
X96928955Y-96332007D01*
X96931967Y-96316863D01*
X96931967Y-96316859D01*
X96933094Y-96311195D01*
X96933941Y-96246553D01*
X96934566Y-96198804D01*
X96935872Y-96099031D01*
X96934651Y-96091922D01*
X96926600Y-96045071D01*
X132705461Y-96045071D01*
X132707447Y-96059007D01*
X132721015Y-96063000D01*
X134074885Y-96063000D01*
X134090124Y-96058525D01*
X134091329Y-96057135D01*
X134093000Y-96049452D01*
X134093000Y-96044885D01*
X134347000Y-96044885D01*
X134351475Y-96060124D01*
X134352865Y-96061329D01*
X134360548Y-96063000D01*
X135721197Y-96063000D01*
X135736436Y-96058525D01*
X135736622Y-96058311D01*
X135738618Y-96047993D01*
X135738483Y-96045071D01*
X136045461Y-96045071D01*
X136047447Y-96059007D01*
X136061015Y-96063000D01*
X137414885Y-96063000D01*
X137430124Y-96058525D01*
X137431329Y-96057135D01*
X137433000Y-96049452D01*
X137433000Y-96044885D01*
X137687000Y-96044885D01*
X137691475Y-96060124D01*
X137692865Y-96061329D01*
X137700548Y-96063000D01*
X139061197Y-96063000D01*
X139076436Y-96058525D01*
X139076622Y-96058311D01*
X139078618Y-96047993D01*
X139078235Y-96039727D01*
X139076554Y-96027910D01*
X139030007Y-95834771D01*
X139026118Y-95823476D01*
X138943888Y-95642621D01*
X138937941Y-95632279D01*
X138822990Y-95470228D01*
X138815197Y-95461200D01*
X138671679Y-95323811D01*
X138662314Y-95316415D01*
X138495410Y-95208646D01*
X138484806Y-95203150D01*
X138300548Y-95128892D01*
X138289089Y-95125498D01*
X138092668Y-95087139D01*
X138083832Y-95086066D01*
X138081129Y-95086000D01*
X137705115Y-95086000D01*
X137689876Y-95090475D01*
X137688671Y-95091865D01*
X137687000Y-95099548D01*
X137687000Y-96044885D01*
X137433000Y-96044885D01*
X137433000Y-95104115D01*
X137428525Y-95088876D01*
X137427135Y-95087671D01*
X137419452Y-95086000D01*
X137090356Y-95086000D01*
X137084379Y-95086285D01*
X136936266Y-95100416D01*
X136924528Y-95102676D01*
X136733909Y-95158598D01*
X136722806Y-95163039D01*
X136546193Y-95254000D01*
X136536147Y-95260450D01*
X136379914Y-95383171D01*
X136371265Y-95391408D01*
X136241060Y-95541457D01*
X136234123Y-95551183D01*
X136134643Y-95723139D01*
X136129669Y-95734003D01*
X136064498Y-95921676D01*
X136061670Y-95933278D01*
X136045461Y-96045071D01*
X135738483Y-96045071D01*
X135738235Y-96039727D01*
X135736554Y-96027910D01*
X135690007Y-95834771D01*
X135686118Y-95823476D01*
X135603888Y-95642621D01*
X135597941Y-95632279D01*
X135482990Y-95470228D01*
X135475197Y-95461200D01*
X135331679Y-95323811D01*
X135322314Y-95316415D01*
X135155410Y-95208646D01*
X135144806Y-95203150D01*
X134960548Y-95128892D01*
X134949089Y-95125498D01*
X134752668Y-95087139D01*
X134743832Y-95086066D01*
X134741129Y-95086000D01*
X134365115Y-95086000D01*
X134349876Y-95090475D01*
X134348671Y-95091865D01*
X134347000Y-95099548D01*
X134347000Y-96044885D01*
X134093000Y-96044885D01*
X134093000Y-95104115D01*
X134088525Y-95088876D01*
X134087135Y-95087671D01*
X134079452Y-95086000D01*
X133750356Y-95086000D01*
X133744379Y-95086285D01*
X133596266Y-95100416D01*
X133584528Y-95102676D01*
X133393909Y-95158598D01*
X133382806Y-95163039D01*
X133206193Y-95254000D01*
X133196147Y-95260450D01*
X133039914Y-95383171D01*
X133031265Y-95391408D01*
X132901060Y-95541457D01*
X132894123Y-95551183D01*
X132794643Y-95723139D01*
X132789669Y-95734003D01*
X132724498Y-95921676D01*
X132721670Y-95933278D01*
X132705461Y-96045071D01*
X96926600Y-96045071D01*
X96900918Y-95895610D01*
X96900918Y-95895609D01*
X96899939Y-95889913D01*
X96826499Y-95690846D01*
X96797808Y-95642621D01*
X96720968Y-95513463D01*
X96720966Y-95513460D01*
X96718012Y-95508495D01*
X96714206Y-95504155D01*
X96714203Y-95504151D01*
X96581917Y-95353309D01*
X96578110Y-95348968D01*
X96560089Y-95334761D01*
X96416014Y-95221181D01*
X96416012Y-95221179D01*
X96411480Y-95217607D01*
X96223701Y-95118812D01*
X96021062Y-95055891D01*
X95931637Y-95045307D01*
X95866341Y-95017437D01*
X95826477Y-94958688D01*
X95824703Y-94887714D01*
X95861582Y-94827047D01*
X95925406Y-94795950D01*
X95934918Y-94794709D01*
X95985447Y-94790066D01*
X95996762Y-94787969D01*
X96189769Y-94733535D01*
X96200508Y-94729413D01*
X96380366Y-94640717D01*
X96390174Y-94634707D01*
X96550861Y-94514716D01*
X96559401Y-94507027D01*
X96695537Y-94359755D01*
X96702532Y-94350639D01*
X96809544Y-94181036D01*
X96814767Y-94170785D01*
X96889076Y-93984527D01*
X96892345Y-93973490D01*
X96927895Y-93794770D01*
X96926743Y-93781894D01*
X96911587Y-93777000D01*
X94879000Y-93777000D01*
X94810879Y-93756998D01*
X94764386Y-93703342D01*
X94753000Y-93651000D01*
X94753000Y-93649000D01*
X94773002Y-93580879D01*
X94826658Y-93534386D01*
X94879000Y-93523000D01*
X96911058Y-93523000D01*
X96924020Y-93519194D01*
X96925956Y-93504278D01*
X96900433Y-93355740D01*
X96897453Y-93344620D01*
X96828044Y-93156478D01*
X96823094Y-93146100D01*
X96720561Y-92973758D01*
X96713795Y-92964446D01*
X96581571Y-92813673D01*
X96573228Y-92805756D01*
X96415743Y-92681605D01*
X96406092Y-92675337D01*
X96228625Y-92581967D01*
X96217991Y-92577562D01*
X96026475Y-92518095D01*
X96015222Y-92515703D01*
X95931632Y-92505809D01*
X95866335Y-92477938D01*
X95826471Y-92419189D01*
X95824698Y-92348215D01*
X95861578Y-92287548D01*
X95925402Y-92256451D01*
X95934881Y-92255214D01*
X95991292Y-92250031D01*
X95996849Y-92248464D01*
X95996853Y-92248463D01*
X96189949Y-92194004D01*
X96189951Y-92194003D01*
X96195508Y-92192436D01*
X96200684Y-92189884D01*
X96200688Y-92189882D01*
X96380628Y-92101145D01*
X96385809Y-92098590D01*
X96397996Y-92089490D01*
X96551197Y-91975089D01*
X96551198Y-91975088D01*
X96555821Y-91971636D01*
X96559737Y-91967400D01*
X96695931Y-91820066D01*
X96695933Y-91820063D01*
X96699850Y-91815826D01*
X96813074Y-91636377D01*
X96891700Y-91439300D01*
X96892825Y-91433643D01*
X96892827Y-91433637D01*
X96931967Y-91236863D01*
X96931967Y-91236859D01*
X96933094Y-91231195D01*
X96933278Y-91217193D01*
X96934792Y-91101541D01*
X96935872Y-91019031D01*
X96933264Y-91003850D01*
X96900918Y-90815610D01*
X96900918Y-90815609D01*
X96899939Y-90809913D01*
X96826499Y-90610846D01*
X96786347Y-90543356D01*
X96720968Y-90433463D01*
X96720966Y-90433460D01*
X96718012Y-90428495D01*
X96714206Y-90424155D01*
X96714203Y-90424151D01*
X96581917Y-90273309D01*
X96578110Y-90268968D01*
X96573574Y-90265392D01*
X96416014Y-90141181D01*
X96416012Y-90141179D01*
X96411480Y-90137607D01*
X96223701Y-90038812D01*
X96021062Y-89975891D01*
X95971029Y-89969969D01*
X95852470Y-89955936D01*
X95852465Y-89955936D01*
X95848784Y-89955500D01*
X93926173Y-89955500D01*
X93840365Y-89963385D01*
X93774462Y-89969440D01*
X93774459Y-89969441D01*
X93768708Y-89969969D01*
X93763151Y-89971536D01*
X93763147Y-89971537D01*
X93570051Y-90025996D01*
X93570049Y-90025997D01*
X93564492Y-90027564D01*
X93559316Y-90030116D01*
X93559312Y-90030118D01*
X93404634Y-90106397D01*
X93374191Y-90121410D01*
X93369565Y-90124864D01*
X93369564Y-90124865D01*
X93281407Y-90190695D01*
X93204179Y-90248364D01*
X93200265Y-90252598D01*
X93200263Y-90252600D01*
X93067025Y-90396737D01*
X93060150Y-90404174D01*
X92946926Y-90583623D01*
X92868300Y-90780700D01*
X92867174Y-90786360D01*
X92867173Y-90786364D01*
X92844078Y-90902472D01*
X92811170Y-90965382D01*
X92749475Y-91000514D01*
X92678581Y-90996714D01*
X92620995Y-90955188D01*
X92595000Y-90889122D01*
X92594499Y-90877891D01*
X92594499Y-90184934D01*
X92585797Y-90141181D01*
X92582156Y-90122874D01*
X92582155Y-90122872D01*
X92579734Y-90110699D01*
X92562629Y-90085099D01*
X92530377Y-90036832D01*
X92523484Y-90026516D01*
X92439301Y-89970266D01*
X92365067Y-89955500D01*
X92296357Y-89955500D01*
X89311555Y-89955501D01*
X89243434Y-89935499D01*
X89196941Y-89881843D01*
X89186837Y-89811569D01*
X89212604Y-89751497D01*
X89237156Y-89720353D01*
X89240188Y-89711719D01*
X89245514Y-89704266D01*
X89260203Y-89655150D01*
X89262036Y-89649508D01*
X89276390Y-89608633D01*
X89276390Y-89608632D01*
X89279018Y-89601149D01*
X89279500Y-89595584D01*
X89279500Y-89592876D01*
X89279614Y-89590242D01*
X89279643Y-89590144D01*
X89279807Y-89590151D01*
X89279851Y-89589447D01*
X89281713Y-89583222D01*
X89279597Y-89529365D01*
X89279500Y-89524418D01*
X89279500Y-89109384D01*
X89299502Y-89041263D01*
X89316405Y-89020289D01*
X89323704Y-89012990D01*
X89386016Y-88978964D01*
X89456831Y-88984029D01*
X89513667Y-89026576D01*
X89531125Y-89058784D01*
X89577259Y-89184851D01*
X89582553Y-89199319D01*
X89586789Y-89205622D01*
X89586789Y-89205623D01*
X89598660Y-89223288D01*
X89670908Y-89330805D01*
X89676525Y-89335916D01*
X89676528Y-89335919D01*
X89722562Y-89377806D01*
X89788076Y-89437419D01*
X89927293Y-89513008D01*
X90080522Y-89553207D01*
X90164477Y-89554526D01*
X90231319Y-89555576D01*
X90231322Y-89555576D01*
X90238916Y-89555695D01*
X90393332Y-89520329D01*
X90463742Y-89484917D01*
X90528072Y-89452563D01*
X90528075Y-89452561D01*
X90534855Y-89449151D01*
X90540626Y-89444222D01*
X90540629Y-89444220D01*
X90649536Y-89351204D01*
X90649536Y-89351203D01*
X90655314Y-89346269D01*
X90747755Y-89217624D01*
X90806842Y-89070641D01*
X90820966Y-88971396D01*
X90828581Y-88917891D01*
X90828581Y-88917888D01*
X90829162Y-88913807D01*
X90829307Y-88900000D01*
X90823437Y-88851496D01*
X90835109Y-88781468D01*
X90859429Y-88747265D01*
X91560289Y-88046405D01*
X91622601Y-88012379D01*
X91649384Y-88009500D01*
X92550837Y-88009500D01*
X92618958Y-88029502D01*
X92665451Y-88083158D01*
X92675555Y-88153432D01*
X92646061Y-88218012D01*
X92580251Y-88258019D01*
X92487564Y-88280271D01*
X92487562Y-88280272D01*
X92480184Y-88282043D01*
X92339414Y-88354700D01*
X92220039Y-88458838D01*
X92128950Y-88588444D01*
X92113690Y-88627584D01*
X92076977Y-88721749D01*
X92071406Y-88736037D01*
X92070414Y-88743570D01*
X92070414Y-88743571D01*
X92051823Y-88884787D01*
X92050729Y-88893096D01*
X92059030Y-88968286D01*
X92066411Y-89035136D01*
X92068113Y-89050553D01*
X92070723Y-89057684D01*
X92070723Y-89057686D01*
X92117259Y-89184851D01*
X92122553Y-89199319D01*
X92126789Y-89205622D01*
X92126789Y-89205623D01*
X92138660Y-89223288D01*
X92210908Y-89330805D01*
X92216525Y-89335916D01*
X92216528Y-89335919D01*
X92262562Y-89377806D01*
X92328076Y-89437419D01*
X92467293Y-89513008D01*
X92620522Y-89553207D01*
X92704477Y-89554526D01*
X92771319Y-89555576D01*
X92771322Y-89555576D01*
X92778916Y-89555695D01*
X92933332Y-89520329D01*
X93003742Y-89484917D01*
X93068072Y-89452563D01*
X93068075Y-89452561D01*
X93074855Y-89449151D01*
X93080626Y-89444222D01*
X93080629Y-89444220D01*
X93189542Y-89351199D01*
X93189543Y-89351198D01*
X93195314Y-89346269D01*
X93205586Y-89331974D01*
X93261581Y-89288326D01*
X93307909Y-89279500D01*
X94650141Y-89279500D01*
X94718262Y-89299502D01*
X94745522Y-89323169D01*
X94746671Y-89324500D01*
X94750908Y-89330805D01*
X94756525Y-89335916D01*
X94802482Y-89377733D01*
X94868076Y-89437419D01*
X95007293Y-89513008D01*
X95160522Y-89553207D01*
X95244477Y-89554526D01*
X95311319Y-89555576D01*
X95311322Y-89555576D01*
X95318916Y-89555695D01*
X95473332Y-89520329D01*
X95543742Y-89484917D01*
X95608072Y-89452563D01*
X95608075Y-89452561D01*
X95614855Y-89449151D01*
X95620626Y-89444222D01*
X95620629Y-89444220D01*
X95729536Y-89351204D01*
X95729536Y-89351203D01*
X95735314Y-89346269D01*
X95827755Y-89217624D01*
X95886842Y-89070641D01*
X95900966Y-88971396D01*
X95908581Y-88917891D01*
X95908581Y-88917888D01*
X95909162Y-88913807D01*
X95909307Y-88900000D01*
X95890276Y-88742733D01*
X95834280Y-88594546D01*
X95803924Y-88550377D01*
X95748855Y-88470251D01*
X95748854Y-88470249D01*
X95744553Y-88463992D01*
X95626275Y-88358611D01*
X95618889Y-88354700D01*
X95492988Y-88288039D01*
X95492989Y-88288039D01*
X95486274Y-88284484D01*
X95478911Y-88282635D01*
X95478907Y-88282633D01*
X95379659Y-88257704D01*
X95318463Y-88221709D01*
X95286442Y-88158344D01*
X95293762Y-88087726D01*
X95338100Y-88032275D01*
X95410354Y-88009500D01*
X95675616Y-88009500D01*
X95743737Y-88029502D01*
X95764711Y-88046405D01*
X96650862Y-88932556D01*
X96684888Y-88994868D01*
X96679823Y-89065683D01*
X96664856Y-89094099D01*
X96573950Y-89223444D01*
X96568802Y-89236649D01*
X96524139Y-89351204D01*
X96516406Y-89371037D01*
X96515414Y-89378570D01*
X96515414Y-89378571D01*
X96496752Y-89520329D01*
X96495729Y-89528096D01*
X96501374Y-89579229D01*
X96512193Y-89677216D01*
X96513113Y-89685553D01*
X96515723Y-89692684D01*
X96515723Y-89692686D01*
X96559966Y-89813585D01*
X96567553Y-89834319D01*
X96571789Y-89840622D01*
X96571789Y-89840623D01*
X96621021Y-89913887D01*
X96655908Y-89965805D01*
X96661527Y-89970918D01*
X96661528Y-89970919D01*
X96733966Y-90036832D01*
X96773076Y-90072419D01*
X96912293Y-90148008D01*
X97065522Y-90188207D01*
X97149477Y-90189526D01*
X97216319Y-90190576D01*
X97216322Y-90190576D01*
X97223916Y-90190695D01*
X97378332Y-90155329D01*
X97469621Y-90109416D01*
X97513072Y-90087563D01*
X97513075Y-90087561D01*
X97519855Y-90084151D01*
X97525626Y-90079222D01*
X97525629Y-90079220D01*
X97634536Y-89986204D01*
X97634536Y-89986203D01*
X97640314Y-89981269D01*
X97732755Y-89852624D01*
X97791842Y-89705641D01*
X97809449Y-89581924D01*
X97813581Y-89552891D01*
X97813581Y-89552888D01*
X97814162Y-89548807D01*
X97814307Y-89535000D01*
X97813309Y-89526748D01*
X97808578Y-89487657D01*
X97795276Y-89377733D01*
X97739280Y-89229546D01*
X97697900Y-89169337D01*
X97653855Y-89105251D01*
X97653854Y-89105249D01*
X97649553Y-89098992D01*
X97578808Y-89035961D01*
X97541253Y-88975711D01*
X97536767Y-88935948D01*
X97537127Y-88928309D01*
X97539320Y-88918124D01*
X97535374Y-88884787D01*
X97535023Y-88878846D01*
X97534928Y-88878854D01*
X97534500Y-88873674D01*
X97534500Y-88868476D01*
X97531329Y-88849424D01*
X97530492Y-88843547D01*
X97525693Y-88802997D01*
X97525692Y-88802995D01*
X97524469Y-88792659D01*
X97520508Y-88784410D01*
X97519004Y-88775374D01*
X97512827Y-88763926D01*
X97494652Y-88730240D01*
X97491957Y-88724951D01*
X97473212Y-88685915D01*
X97469780Y-88678768D01*
X97466186Y-88674492D01*
X97464246Y-88672552D01*
X97462493Y-88670641D01*
X97462444Y-88670551D01*
X97462567Y-88670439D01*
X97462095Y-88669904D01*
X97459010Y-88664186D01*
X97419413Y-88627583D01*
X97415848Y-88624154D01*
X96191478Y-87399784D01*
X96176336Y-87381036D01*
X96175221Y-87379811D01*
X96169571Y-87371060D01*
X96161393Y-87364613D01*
X96161391Y-87364611D01*
X96143200Y-87350271D01*
X96138759Y-87346325D01*
X96138697Y-87346398D01*
X96134733Y-87343039D01*
X96131056Y-87339362D01*
X96115308Y-87328108D01*
X96110638Y-87324602D01*
X96070353Y-87292844D01*
X96061719Y-87289812D01*
X96054266Y-87284486D01*
X96005150Y-87269797D01*
X95999508Y-87267964D01*
X95958633Y-87253610D01*
X95958632Y-87253610D01*
X95951149Y-87250982D01*
X95945584Y-87250500D01*
X95942876Y-87250500D01*
X95940242Y-87250386D01*
X95940144Y-87250357D01*
X95940151Y-87250193D01*
X95939447Y-87250149D01*
X95933222Y-87248287D01*
X95879365Y-87250403D01*
X95874418Y-87250500D01*
X91493920Y-87250500D01*
X91469973Y-87247951D01*
X91468307Y-87247872D01*
X91458124Y-87245680D01*
X91447782Y-87246904D01*
X91447779Y-87246904D01*
X91424787Y-87249626D01*
X91418847Y-87249977D01*
X91418855Y-87250072D01*
X91413677Y-87250500D01*
X91408476Y-87250500D01*
X91403347Y-87251354D01*
X91399134Y-87251702D01*
X91329597Y-87237379D01*
X91278842Y-87187735D01*
X91262984Y-87118533D01*
X91287057Y-87051742D01*
X91299660Y-87037035D01*
X91560290Y-86776405D01*
X91622602Y-86742379D01*
X91649385Y-86739500D01*
X96945616Y-86739500D01*
X97013737Y-86759502D01*
X97034711Y-86776405D01*
X98643595Y-88385289D01*
X98677621Y-88447601D01*
X98680500Y-88474384D01*
X98680500Y-88940187D01*
X98660498Y-89008308D01*
X98637330Y-89035135D01*
X98570039Y-89093838D01*
X98478950Y-89223444D01*
X98473802Y-89236649D01*
X98429139Y-89351204D01*
X98421406Y-89371037D01*
X98420414Y-89378570D01*
X98420414Y-89378571D01*
X98401752Y-89520329D01*
X98400729Y-89528096D01*
X98406374Y-89579229D01*
X98417193Y-89677216D01*
X98418113Y-89685553D01*
X98420723Y-89692684D01*
X98420723Y-89692686D01*
X98464966Y-89813585D01*
X98472553Y-89834319D01*
X98476789Y-89840622D01*
X98476789Y-89840623D01*
X98526021Y-89913887D01*
X98560908Y-89965805D01*
X98566527Y-89970918D01*
X98566528Y-89970919D01*
X98638966Y-90036832D01*
X98678076Y-90072419D01*
X98817293Y-90148008D01*
X98970522Y-90188207D01*
X99054477Y-90189526D01*
X99121319Y-90190576D01*
X99121322Y-90190576D01*
X99128916Y-90190695D01*
X99283332Y-90155329D01*
X99374621Y-90109416D01*
X99418072Y-90087563D01*
X99418075Y-90087561D01*
X99424855Y-90084151D01*
X99430626Y-90079222D01*
X99430629Y-90079220D01*
X99539536Y-89986204D01*
X99539536Y-89986203D01*
X99545314Y-89981269D01*
X99637755Y-89852624D01*
X99696842Y-89705641D01*
X99714449Y-89581924D01*
X99718581Y-89552891D01*
X99718581Y-89552888D01*
X99719162Y-89548807D01*
X99719307Y-89535000D01*
X99718309Y-89526748D01*
X99713578Y-89487657D01*
X99700276Y-89377733D01*
X99644280Y-89229546D01*
X99602900Y-89169337D01*
X99558855Y-89105251D01*
X99558854Y-89105249D01*
X99554553Y-89098992D01*
X99481681Y-89034065D01*
X99444126Y-88973816D01*
X99439500Y-88939989D01*
X99439500Y-88318920D01*
X99442049Y-88294972D01*
X99442128Y-88293307D01*
X99444320Y-88283124D01*
X99440373Y-88249777D01*
X99440023Y-88243846D01*
X99439928Y-88243854D01*
X99439500Y-88238676D01*
X99439500Y-88233476D01*
X99437758Y-88223010D01*
X99436331Y-88214435D01*
X99435494Y-88208557D01*
X99430694Y-88167999D01*
X99430694Y-88167998D01*
X99429470Y-88157659D01*
X99425507Y-88149407D01*
X99424004Y-88140374D01*
X99412904Y-88119801D01*
X99399666Y-88095268D01*
X99396969Y-88089975D01*
X99378215Y-88050918D01*
X99378212Y-88050914D01*
X99374781Y-88043768D01*
X99371186Y-88039492D01*
X99369263Y-88037569D01*
X99367491Y-88035637D01*
X99367448Y-88035558D01*
X99367572Y-88035445D01*
X99367096Y-88034905D01*
X99364010Y-88029186D01*
X99324413Y-87992583D01*
X99320848Y-87989154D01*
X97461478Y-86129784D01*
X97446336Y-86111036D01*
X97445221Y-86109811D01*
X97439571Y-86101060D01*
X97431393Y-86094613D01*
X97431391Y-86094611D01*
X97413200Y-86080271D01*
X97408759Y-86076325D01*
X97408697Y-86076398D01*
X97404733Y-86073039D01*
X97401056Y-86069362D01*
X97385308Y-86058108D01*
X97380638Y-86054602D01*
X97340353Y-86022844D01*
X97331719Y-86019812D01*
X97324266Y-86014486D01*
X97275150Y-85999797D01*
X97269508Y-85997964D01*
X97228633Y-85983610D01*
X97228632Y-85983610D01*
X97221149Y-85980982D01*
X97215584Y-85980500D01*
X97212876Y-85980500D01*
X97210242Y-85980386D01*
X97210144Y-85980357D01*
X97210151Y-85980193D01*
X97209447Y-85980149D01*
X97203222Y-85978287D01*
X97149365Y-85980403D01*
X97144418Y-85980500D01*
X91493920Y-85980500D01*
X91469973Y-85977951D01*
X91468307Y-85977872D01*
X91458124Y-85975680D01*
X91447782Y-85976904D01*
X91447779Y-85976904D01*
X91424787Y-85979626D01*
X91418846Y-85979977D01*
X91418854Y-85980072D01*
X91413674Y-85980500D01*
X91408476Y-85980500D01*
X91403354Y-85981353D01*
X91403349Y-85981353D01*
X91389427Y-85983671D01*
X91383550Y-85984508D01*
X91377049Y-85985277D01*
X91342997Y-85989307D01*
X91342995Y-85989308D01*
X91332659Y-85990531D01*
X91324410Y-85994492D01*
X91315374Y-85995996D01*
X91306205Y-86000943D01*
X91306203Y-86000944D01*
X91270240Y-86020348D01*
X91264951Y-86023043D01*
X91238862Y-86035571D01*
X91218768Y-86045220D01*
X91214492Y-86048814D01*
X91212552Y-86050754D01*
X91210641Y-86052507D01*
X91210551Y-86052556D01*
X91210439Y-86052433D01*
X91209904Y-86052905D01*
X91204186Y-86055990D01*
X91197119Y-86063635D01*
X91167584Y-86095586D01*
X91164154Y-86099152D01*
X90121756Y-87141550D01*
X90059444Y-87175576D01*
X89988629Y-87170511D01*
X89931793Y-87127964D01*
X89906982Y-87061444D01*
X89922073Y-86992070D01*
X89936020Y-86971606D01*
X90091647Y-86785580D01*
X90728246Y-86024635D01*
X90736344Y-86015840D01*
X92058998Y-84710087D01*
X92067639Y-84702311D01*
X93530070Y-83503754D01*
X93539042Y-83497045D01*
X95138039Y-82408703D01*
X95147137Y-82403061D01*
X96879376Y-81428136D01*
X96888435Y-81423509D01*
X97214789Y-81273096D01*
X102845729Y-81273096D01*
X102849035Y-81303039D01*
X102857985Y-81384103D01*
X102863113Y-81430553D01*
X102865723Y-81437684D01*
X102865723Y-81437686D01*
X102878991Y-81473941D01*
X102917553Y-81579319D01*
X102921789Y-81585622D01*
X102921789Y-81585623D01*
X102942866Y-81616988D01*
X103005908Y-81710805D01*
X103011527Y-81715918D01*
X103011528Y-81715919D01*
X103084299Y-81782135D01*
X103121222Y-81842775D01*
X103125500Y-81875329D01*
X103125500Y-89569368D01*
X103105498Y-89637489D01*
X103082330Y-89664316D01*
X103067543Y-89677216D01*
X103052665Y-89690195D01*
X102961576Y-89819801D01*
X102955916Y-89834319D01*
X102907110Y-89959500D01*
X102904032Y-89967394D01*
X102903040Y-89974927D01*
X102903040Y-89974928D01*
X102885166Y-90110699D01*
X102883355Y-90124453D01*
X102900739Y-90281910D01*
X102903349Y-90289041D01*
X102903349Y-90289043D01*
X102951372Y-90420272D01*
X102955179Y-90430676D01*
X102959415Y-90436979D01*
X102959415Y-90436980D01*
X103024918Y-90534458D01*
X103043534Y-90562162D01*
X103049153Y-90567275D01*
X103049154Y-90567276D01*
X103118498Y-90630374D01*
X103160702Y-90668776D01*
X103299919Y-90744365D01*
X103453148Y-90784564D01*
X103537103Y-90785883D01*
X103603945Y-90786933D01*
X103603948Y-90786933D01*
X103611542Y-90787052D01*
X103765958Y-90751686D01*
X103840452Y-90714220D01*
X103900698Y-90683920D01*
X103900701Y-90683918D01*
X103907481Y-90680508D01*
X103913252Y-90675579D01*
X103913255Y-90675577D01*
X104022162Y-90582561D01*
X104022162Y-90582560D01*
X104027940Y-90577626D01*
X104120381Y-90448981D01*
X104179468Y-90301998D01*
X104187999Y-90242052D01*
X104201207Y-90149248D01*
X104201207Y-90149245D01*
X104201788Y-90145164D01*
X104201933Y-90131357D01*
X104201148Y-90124865D01*
X104194278Y-90068095D01*
X104182902Y-89974090D01*
X104126906Y-89825903D01*
X104117055Y-89811569D01*
X104041481Y-89701608D01*
X104041480Y-89701606D01*
X104037179Y-89695349D01*
X104031508Y-89690297D01*
X104031506Y-89690294D01*
X103926682Y-89596900D01*
X103889126Y-89536650D01*
X103884500Y-89502823D01*
X103884500Y-87805576D01*
X103904502Y-87737455D01*
X103958158Y-87690962D01*
X104028432Y-87680858D01*
X104093012Y-87710352D01*
X104132594Y-87775849D01*
X104133113Y-87780553D01*
X104135723Y-87787684D01*
X104135723Y-87787686D01*
X104182424Y-87915302D01*
X104187553Y-87929319D01*
X104191789Y-87935622D01*
X104191789Y-87935623D01*
X104266232Y-88046405D01*
X104275908Y-88060805D01*
X104281527Y-88065918D01*
X104281528Y-88065919D01*
X104387460Y-88162309D01*
X104393076Y-88167419D01*
X104532293Y-88243008D01*
X104685522Y-88283207D01*
X104769477Y-88284526D01*
X104836319Y-88285576D01*
X104836322Y-88285576D01*
X104843916Y-88285695D01*
X104998332Y-88250329D01*
X105070788Y-88213888D01*
X105133072Y-88182563D01*
X105133075Y-88182561D01*
X105139855Y-88179151D01*
X105145626Y-88174222D01*
X105145629Y-88174220D01*
X105254536Y-88081204D01*
X105254536Y-88081203D01*
X105260314Y-88076269D01*
X105352755Y-87947624D01*
X105411842Y-87800641D01*
X105434162Y-87643807D01*
X105434307Y-87630000D01*
X105432561Y-87615567D01*
X105428174Y-87579322D01*
X105415276Y-87472733D01*
X105359280Y-87324546D01*
X105337071Y-87292231D01*
X105273855Y-87200251D01*
X105273854Y-87200249D01*
X105269553Y-87193992D01*
X105196681Y-87129065D01*
X105159126Y-87068816D01*
X105154500Y-87034989D01*
X105154500Y-85706876D01*
X106930680Y-85706876D01*
X106933812Y-85733338D01*
X106934627Y-85740223D01*
X106934977Y-85746154D01*
X106935072Y-85746146D01*
X106935500Y-85751324D01*
X106935500Y-85756524D01*
X106936354Y-85761653D01*
X106936354Y-85761656D01*
X106938669Y-85775565D01*
X106939506Y-85781443D01*
X106945530Y-85832341D01*
X106949493Y-85840593D01*
X106950996Y-85849626D01*
X106955943Y-85858795D01*
X106955944Y-85858797D01*
X106975334Y-85894732D01*
X106978031Y-85900025D01*
X106996785Y-85939082D01*
X106996788Y-85939086D01*
X107000219Y-85946232D01*
X107003814Y-85950508D01*
X107005737Y-85952431D01*
X107007509Y-85954363D01*
X107007552Y-85954442D01*
X107007428Y-85954555D01*
X107007904Y-85955095D01*
X107010990Y-85960814D01*
X107018635Y-85967881D01*
X107050586Y-85997416D01*
X107054152Y-86000846D01*
X108278522Y-87225216D01*
X108293664Y-87243964D01*
X108294779Y-87245189D01*
X108300429Y-87253940D01*
X108308607Y-87260387D01*
X108308609Y-87260389D01*
X108326800Y-87274729D01*
X108331244Y-87278678D01*
X108331306Y-87278604D01*
X108335263Y-87281957D01*
X108338944Y-87285638D01*
X108354654Y-87296865D01*
X108359380Y-87300413D01*
X108399647Y-87332156D01*
X108408284Y-87335189D01*
X108415734Y-87340513D01*
X108425710Y-87343497D01*
X108425711Y-87343497D01*
X108441046Y-87348083D01*
X108464849Y-87355202D01*
X108470486Y-87357034D01*
X108511367Y-87371390D01*
X108518851Y-87374018D01*
X108524416Y-87374500D01*
X108527124Y-87374500D01*
X108529758Y-87374614D01*
X108529856Y-87374643D01*
X108529849Y-87374807D01*
X108530553Y-87374851D01*
X108536778Y-87376713D01*
X108590635Y-87374597D01*
X108595582Y-87374500D01*
X108620141Y-87374500D01*
X108688262Y-87394502D01*
X108715522Y-87418169D01*
X108716672Y-87419501D01*
X108720908Y-87425805D01*
X108737903Y-87441269D01*
X108817422Y-87513625D01*
X108838076Y-87532419D01*
X108977293Y-87608008D01*
X109130522Y-87648207D01*
X109214477Y-87649526D01*
X109281319Y-87650576D01*
X109281322Y-87650576D01*
X109288916Y-87650695D01*
X109443332Y-87615329D01*
X109526314Y-87573594D01*
X109578072Y-87547563D01*
X109578075Y-87547561D01*
X109584855Y-87544151D01*
X109590626Y-87539222D01*
X109590629Y-87539220D01*
X109699536Y-87446204D01*
X109699536Y-87446203D01*
X109705314Y-87441269D01*
X109797755Y-87312624D01*
X109856842Y-87165641D01*
X109866429Y-87098275D01*
X109878581Y-87012891D01*
X109878581Y-87012888D01*
X109879162Y-87008807D01*
X109879307Y-86995000D01*
X109860276Y-86837733D01*
X109804280Y-86689546D01*
X109779456Y-86653427D01*
X109718855Y-86565251D01*
X109718854Y-86565249D01*
X109714553Y-86558992D01*
X109697179Y-86543512D01*
X109652392Y-86503609D01*
X109596275Y-86453611D01*
X109588889Y-86449700D01*
X109462988Y-86383039D01*
X109462989Y-86383039D01*
X109456274Y-86379484D01*
X109348086Y-86352309D01*
X109309043Y-86342502D01*
X109247848Y-86306507D01*
X109215827Y-86243142D01*
X109223147Y-86172523D01*
X109237417Y-86146772D01*
X109285203Y-86080271D01*
X109312255Y-86042624D01*
X109371342Y-85895641D01*
X109392411Y-85747599D01*
X109393081Y-85742891D01*
X109393081Y-85742888D01*
X109393662Y-85738807D01*
X109393807Y-85725000D01*
X109377083Y-85586797D01*
X118979028Y-85586797D01*
X118987653Y-85664921D01*
X118995207Y-85733338D01*
X118996412Y-85744254D01*
X118999022Y-85751385D01*
X118999022Y-85751387D01*
X119046207Y-85880326D01*
X119050852Y-85893020D01*
X119055088Y-85899323D01*
X119055088Y-85899324D01*
X119134130Y-86016950D01*
X119139207Y-86024506D01*
X119144826Y-86029619D01*
X119144827Y-86029620D01*
X119217598Y-86095836D01*
X119254521Y-86156476D01*
X119258799Y-86189030D01*
X119258799Y-86373999D01*
X119256250Y-86397947D01*
X119256171Y-86399612D01*
X119253979Y-86409795D01*
X119255203Y-86420136D01*
X119257926Y-86443142D01*
X119258276Y-86449073D01*
X119258371Y-86449065D01*
X119258799Y-86454243D01*
X119258799Y-86459443D01*
X119259653Y-86464572D01*
X119259653Y-86464575D01*
X119261968Y-86478484D01*
X119262805Y-86484362D01*
X119267573Y-86524644D01*
X119268829Y-86535260D01*
X119272792Y-86543512D01*
X119274295Y-86552545D01*
X119279242Y-86561714D01*
X119279243Y-86561716D01*
X119298633Y-86597651D01*
X119301330Y-86602944D01*
X119320084Y-86642001D01*
X119320087Y-86642005D01*
X119323518Y-86649151D01*
X119327113Y-86653427D01*
X119329036Y-86655350D01*
X119330808Y-86657282D01*
X119330851Y-86657361D01*
X119330727Y-86657474D01*
X119331203Y-86658014D01*
X119334289Y-86663733D01*
X119341934Y-86670800D01*
X119373885Y-86700335D01*
X119377451Y-86703765D01*
X120933609Y-88259923D01*
X120967635Y-88322235D01*
X120970514Y-88349018D01*
X120970514Y-88860000D01*
X120990266Y-88959301D01*
X121046516Y-89043484D01*
X121130699Y-89099734D01*
X121230000Y-89119486D01*
X122730000Y-89119486D01*
X122829301Y-89099734D01*
X122913484Y-89043484D01*
X122969734Y-88959301D01*
X122989486Y-88860000D01*
X122989486Y-88319124D01*
X130301954Y-88319124D01*
X130302510Y-88328084D01*
X130305258Y-88372382D01*
X130305500Y-88380184D01*
X130305500Y-88396226D01*
X130306135Y-88400657D01*
X130306135Y-88400662D01*
X130306965Y-88406453D01*
X130307996Y-88416514D01*
X130310902Y-88463359D01*
X130313949Y-88471799D01*
X130314630Y-88475089D01*
X130318582Y-88490938D01*
X130319527Y-88494168D01*
X130320799Y-88503052D01*
X130324514Y-88511223D01*
X130340218Y-88545763D01*
X130344030Y-88555128D01*
X130356922Y-88590837D01*
X130356924Y-88590840D01*
X130359972Y-88599284D01*
X130365268Y-88606533D01*
X130366840Y-88609490D01*
X130375093Y-88623614D01*
X130376898Y-88626437D01*
X130380612Y-88634605D01*
X130402760Y-88660308D01*
X130411243Y-88670153D01*
X130417525Y-88678064D01*
X130425473Y-88688944D01*
X130436335Y-88699806D01*
X130442693Y-88706652D01*
X130474944Y-88744082D01*
X130482479Y-88748966D01*
X130489051Y-88754699D01*
X130500455Y-88763926D01*
X130553609Y-88817080D01*
X130587635Y-88879392D01*
X130590514Y-88906175D01*
X130590514Y-89650000D01*
X130610266Y-89749301D01*
X130666516Y-89833484D01*
X130750699Y-89889734D01*
X130850000Y-89909486D01*
X131850000Y-89909486D01*
X131900889Y-89904447D01*
X131948309Y-89884747D01*
X132018890Y-89877085D01*
X132041830Y-89883808D01*
X132050699Y-89889734D01*
X132062868Y-89892154D01*
X132062869Y-89892155D01*
X132134415Y-89906386D01*
X132150000Y-89909486D01*
X132580442Y-89909486D01*
X132648563Y-89929488D01*
X132695056Y-89983144D01*
X132705364Y-90051932D01*
X132703236Y-90068095D01*
X132691752Y-90155329D01*
X132690729Y-90163096D01*
X132694979Y-90201589D01*
X132705234Y-90294472D01*
X132708113Y-90320553D01*
X132710723Y-90327684D01*
X132710723Y-90327686D01*
X132757370Y-90455155D01*
X132762553Y-90469319D01*
X132766789Y-90475622D01*
X132766789Y-90475623D01*
X132842967Y-90588987D01*
X132850908Y-90600805D01*
X132856527Y-90605918D01*
X132856528Y-90605919D01*
X132929589Y-90672399D01*
X132968076Y-90707419D01*
X133107293Y-90783008D01*
X133260522Y-90823207D01*
X133344477Y-90824526D01*
X133411319Y-90825576D01*
X133411322Y-90825576D01*
X133418916Y-90825695D01*
X133573332Y-90790329D01*
X133671926Y-90740742D01*
X133708072Y-90722563D01*
X133708075Y-90722561D01*
X133714855Y-90719151D01*
X133720626Y-90714222D01*
X133720629Y-90714220D01*
X133829536Y-90621204D01*
X133829536Y-90621203D01*
X133835314Y-90616269D01*
X133927755Y-90487624D01*
X133986842Y-90340641D01*
X134002359Y-90231607D01*
X134008581Y-90187891D01*
X134008581Y-90187888D01*
X134009162Y-90183807D01*
X134009307Y-90170000D01*
X133994861Y-90050623D01*
X134006534Y-89980593D01*
X134054216Y-89927991D01*
X134119948Y-89909486D01*
X134550000Y-89909486D01*
X134569782Y-89907548D01*
X134591123Y-89905458D01*
X134591126Y-89905457D01*
X134600357Y-89904553D01*
X134648554Y-89884648D01*
X134719150Y-89877132D01*
X134741822Y-89883802D01*
X134750699Y-89889734D01*
X134762868Y-89892155D01*
X134767719Y-89894164D01*
X134823000Y-89938712D01*
X134845500Y-90010572D01*
X134845500Y-91769376D01*
X134844159Y-91781381D01*
X134844655Y-91781421D01*
X134843935Y-91790368D01*
X134841954Y-91799124D01*
X134842510Y-91808084D01*
X134845258Y-91852382D01*
X134845500Y-91860184D01*
X134845500Y-91876226D01*
X134846135Y-91880657D01*
X134846135Y-91880662D01*
X134846965Y-91886453D01*
X134847996Y-91896514D01*
X134850902Y-91943359D01*
X134853949Y-91951799D01*
X134854630Y-91955089D01*
X134858582Y-91970938D01*
X134859527Y-91974168D01*
X134860799Y-91983052D01*
X134864514Y-91991223D01*
X134880218Y-92025763D01*
X134884030Y-92035128D01*
X134896922Y-92070837D01*
X134896924Y-92070840D01*
X134899972Y-92079284D01*
X134905268Y-92086533D01*
X134906840Y-92089490D01*
X134915093Y-92103614D01*
X134916898Y-92106437D01*
X134920612Y-92114605D01*
X134926469Y-92121402D01*
X134926470Y-92121404D01*
X134951243Y-92150153D01*
X134957525Y-92158064D01*
X134965473Y-92168944D01*
X134976335Y-92179806D01*
X134982693Y-92186652D01*
X135014944Y-92224082D01*
X135022479Y-92228966D01*
X135029051Y-92234699D01*
X135040455Y-92243926D01*
X135234399Y-92437870D01*
X135268425Y-92500182D01*
X135263360Y-92570997D01*
X135220813Y-92627833D01*
X135154293Y-92652644D01*
X135098206Y-92643831D01*
X134955122Y-92586166D01*
X134820739Y-92559923D01*
X134752717Y-92546639D01*
X134752714Y-92546639D01*
X134748271Y-92545771D01*
X134742730Y-92545500D01*
X133747341Y-92545500D01*
X133590194Y-92560493D01*
X133584434Y-92562183D01*
X133584433Y-92562183D01*
X133518585Y-92581501D01*
X133387958Y-92619823D01*
X133382619Y-92622573D01*
X133205921Y-92713578D01*
X133205918Y-92713580D01*
X133200590Y-92716324D01*
X133195875Y-92720028D01*
X133039568Y-92842808D01*
X133039564Y-92842812D01*
X133034851Y-92846514D01*
X133030920Y-92851044D01*
X133030919Y-92851045D01*
X132900650Y-93001165D01*
X132900646Y-93001170D01*
X132896719Y-93005696D01*
X132791181Y-93188126D01*
X132722043Y-93387222D01*
X132721183Y-93393155D01*
X132721182Y-93393158D01*
X132692662Y-93589860D01*
X132691801Y-93595800D01*
X132701545Y-93806333D01*
X132707729Y-93831993D01*
X132744490Y-93984527D01*
X132750924Y-94011226D01*
X132753406Y-94016684D01*
X132753407Y-94016688D01*
X132792825Y-94103382D01*
X132838157Y-94203084D01*
X132960096Y-94374986D01*
X133059850Y-94470480D01*
X133104485Y-94513208D01*
X133112340Y-94520728D01*
X133117375Y-94523979D01*
X133284360Y-94631800D01*
X133284363Y-94631801D01*
X133289397Y-94635052D01*
X133294960Y-94637294D01*
X133332321Y-94652351D01*
X133484878Y-94713834D01*
X133588163Y-94734004D01*
X133687283Y-94753361D01*
X133687286Y-94753361D01*
X133691729Y-94754229D01*
X133697270Y-94754500D01*
X134692659Y-94754500D01*
X134849806Y-94739507D01*
X134882615Y-94729882D01*
X135046278Y-94681868D01*
X135052042Y-94680177D01*
X135139496Y-94635135D01*
X135234079Y-94586422D01*
X135234082Y-94586420D01*
X135239410Y-94583676D01*
X135319228Y-94520978D01*
X135400432Y-94457192D01*
X135400436Y-94457188D01*
X135405149Y-94453486D01*
X135469674Y-94379128D01*
X135539350Y-94298835D01*
X135539354Y-94298830D01*
X135543281Y-94294304D01*
X135648819Y-94111874D01*
X135717957Y-93912778D01*
X135722433Y-93881911D01*
X135747338Y-93710140D01*
X135747338Y-93710137D01*
X135748199Y-93704200D01*
X135738455Y-93493667D01*
X135714233Y-93393158D01*
X135690482Y-93294607D01*
X135690481Y-93294605D01*
X135689076Y-93288774D01*
X135646399Y-93194911D01*
X135636413Y-93124621D01*
X135666013Y-93060089D01*
X135725803Y-93021805D01*
X135796800Y-93021923D01*
X135850193Y-93053663D01*
X136037579Y-93241049D01*
X136071604Y-93303361D01*
X136067511Y-93371476D01*
X136062043Y-93387222D01*
X136061182Y-93393158D01*
X136061182Y-93393160D01*
X136033383Y-93584891D01*
X136031801Y-93595800D01*
X136041545Y-93806333D01*
X136047729Y-93831993D01*
X136084490Y-93984527D01*
X136090924Y-94011226D01*
X136093406Y-94016684D01*
X136093407Y-94016688D01*
X136132825Y-94103382D01*
X136178157Y-94203084D01*
X136300096Y-94374986D01*
X136399850Y-94470480D01*
X136444485Y-94513208D01*
X136452340Y-94520728D01*
X136457375Y-94523979D01*
X136624360Y-94631800D01*
X136624363Y-94631801D01*
X136629397Y-94635052D01*
X136634960Y-94637294D01*
X136672321Y-94652351D01*
X136824878Y-94713834D01*
X136928163Y-94734004D01*
X137027283Y-94753361D01*
X137027286Y-94753361D01*
X137031729Y-94754229D01*
X137037270Y-94754500D01*
X138032659Y-94754500D01*
X138189806Y-94739507D01*
X138222615Y-94729882D01*
X138386278Y-94681868D01*
X138392042Y-94680177D01*
X138479496Y-94635135D01*
X138574079Y-94586422D01*
X138574082Y-94586420D01*
X138579410Y-94583676D01*
X138659228Y-94520978D01*
X138740432Y-94457192D01*
X138740436Y-94457188D01*
X138745149Y-94453486D01*
X138809674Y-94379128D01*
X138879350Y-94298835D01*
X138879354Y-94298830D01*
X138883281Y-94294304D01*
X138988819Y-94111874D01*
X139057957Y-93912778D01*
X139062433Y-93881911D01*
X139087338Y-93710140D01*
X139087338Y-93710137D01*
X139088199Y-93704200D01*
X139078455Y-93493667D01*
X139054233Y-93393158D01*
X139030482Y-93294607D01*
X139030481Y-93294605D01*
X139029076Y-93288774D01*
X138941843Y-93096916D01*
X138819904Y-92925014D01*
X138703596Y-92813673D01*
X138671990Y-92783417D01*
X138667660Y-92779272D01*
X138551213Y-92704083D01*
X138495640Y-92668200D01*
X138495637Y-92668199D01*
X138490603Y-92664948D01*
X138476547Y-92659283D01*
X138300685Y-92588408D01*
X138295122Y-92586166D01*
X138160739Y-92559923D01*
X138092717Y-92546639D01*
X138092714Y-92546639D01*
X138088271Y-92545771D01*
X138082730Y-92545500D01*
X137087341Y-92545500D01*
X136930194Y-92560493D01*
X136888847Y-92572623D01*
X136817851Y-92572605D01*
X136764284Y-92540813D01*
X135891405Y-91667934D01*
X135857379Y-91605622D01*
X135854500Y-91578839D01*
X135854500Y-90010572D01*
X135874502Y-89942451D01*
X135932281Y-89894163D01*
X135937127Y-89892155D01*
X135949301Y-89889734D01*
X136033484Y-89833484D01*
X136089734Y-89749301D01*
X136109486Y-89650000D01*
X136109486Y-88150000D01*
X136089734Y-88050699D01*
X136033484Y-87966516D01*
X135949301Y-87910266D01*
X135850000Y-87890514D01*
X134850000Y-87890514D01*
X134799111Y-87895553D01*
X134751691Y-87915253D01*
X134681110Y-87922915D01*
X134658170Y-87916192D01*
X134649301Y-87910266D01*
X134637132Y-87907846D01*
X134637131Y-87907845D01*
X134556068Y-87891721D01*
X134550000Y-87890514D01*
X134119253Y-87890514D01*
X134051132Y-87870512D01*
X134004639Y-87816856D01*
X133994510Y-87746761D01*
X134008581Y-87647891D01*
X134008581Y-87647888D01*
X134009162Y-87643807D01*
X134009307Y-87630000D01*
X134007561Y-87615567D01*
X134003174Y-87579322D01*
X133990276Y-87472733D01*
X133934280Y-87324546D01*
X133912071Y-87292231D01*
X133848855Y-87200251D01*
X133848854Y-87200249D01*
X133844553Y-87193992D01*
X133726275Y-87088611D01*
X133718889Y-87084700D01*
X133625001Y-87034989D01*
X133586274Y-87014484D01*
X133432633Y-86975892D01*
X133425034Y-86975852D01*
X133425033Y-86975852D01*
X133359181Y-86975507D01*
X133274221Y-86975062D01*
X133266841Y-86976834D01*
X133266839Y-86976834D01*
X133127563Y-87010271D01*
X133127560Y-87010272D01*
X133120184Y-87012043D01*
X132979414Y-87084700D01*
X132860039Y-87188838D01*
X132768950Y-87318444D01*
X132740935Y-87390300D01*
X132719139Y-87446204D01*
X132711406Y-87466037D01*
X132710414Y-87473570D01*
X132710414Y-87473571D01*
X132691752Y-87615329D01*
X132690729Y-87623096D01*
X132704816Y-87750687D01*
X132692410Y-87820591D01*
X132644181Y-87872691D01*
X132579577Y-87890514D01*
X132150000Y-87890514D01*
X132130218Y-87892452D01*
X132108877Y-87894542D01*
X132108874Y-87894543D01*
X132099643Y-87895447D01*
X132051446Y-87915352D01*
X131980850Y-87922868D01*
X131958180Y-87916199D01*
X131949301Y-87910266D01*
X131850000Y-87890514D01*
X131440500Y-87890514D01*
X131372379Y-87870512D01*
X131325886Y-87816856D01*
X131314500Y-87764514D01*
X131314500Y-85053774D01*
X131304184Y-84981740D01*
X131300474Y-84955835D01*
X131300473Y-84955833D01*
X131299201Y-84946948D01*
X131239388Y-84815395D01*
X131233530Y-84808596D01*
X131233527Y-84808592D01*
X131150916Y-84712718D01*
X131150913Y-84712716D01*
X131145056Y-84705918D01*
X131023790Y-84627317D01*
X131006921Y-84622272D01*
X130893938Y-84588482D01*
X130893936Y-84588482D01*
X130885337Y-84585910D01*
X130876363Y-84585855D01*
X130876361Y-84585855D01*
X130813082Y-84585469D01*
X130740827Y-84585028D01*
X130732196Y-84587495D01*
X130732194Y-84587495D01*
X130610509Y-84622272D01*
X130610505Y-84622274D01*
X130601879Y-84624739D01*
X130479661Y-84701853D01*
X130383999Y-84810170D01*
X130322583Y-84940982D01*
X130321203Y-84949846D01*
X130321202Y-84949849D01*
X130314840Y-84990708D01*
X130305500Y-85050697D01*
X130305500Y-88289376D01*
X130304159Y-88301381D01*
X130304655Y-88301421D01*
X130303935Y-88310368D01*
X130301954Y-88319124D01*
X122989486Y-88319124D01*
X122989486Y-87860000D01*
X122984447Y-87809111D01*
X122964747Y-87761691D01*
X122957085Y-87691110D01*
X122963808Y-87668170D01*
X122969734Y-87659301D01*
X122973276Y-87641497D01*
X122988279Y-87566068D01*
X122989486Y-87560000D01*
X122989486Y-87000370D01*
X123009488Y-86932249D01*
X123063144Y-86885756D01*
X123133418Y-86875652D01*
X123197998Y-86905146D01*
X123204581Y-86911275D01*
X123770249Y-87476943D01*
X123804275Y-87539255D01*
X123806076Y-87582485D01*
X123801752Y-87615329D01*
X123800729Y-87623096D01*
X123807106Y-87680858D01*
X123816031Y-87761692D01*
X123818113Y-87780553D01*
X123820723Y-87787684D01*
X123820723Y-87787686D01*
X123867424Y-87915302D01*
X123872553Y-87929319D01*
X123876789Y-87935622D01*
X123876789Y-87935623D01*
X123951232Y-88046405D01*
X123960908Y-88060805D01*
X123966527Y-88065918D01*
X123966528Y-88065919D01*
X124072460Y-88162309D01*
X124078076Y-88167419D01*
X124217293Y-88243008D01*
X124370522Y-88283207D01*
X124454477Y-88284526D01*
X124521319Y-88285576D01*
X124521322Y-88285576D01*
X124528916Y-88285695D01*
X124683332Y-88250329D01*
X124755788Y-88213888D01*
X124818072Y-88182563D01*
X124818075Y-88182561D01*
X124824855Y-88179151D01*
X124830626Y-88174222D01*
X124830629Y-88174220D01*
X124939536Y-88081204D01*
X124939536Y-88081203D01*
X124945314Y-88076269D01*
X125037755Y-87947624D01*
X125096842Y-87800641D01*
X125119162Y-87643807D01*
X125119307Y-87630000D01*
X125117561Y-87615567D01*
X125113174Y-87579322D01*
X125100276Y-87472733D01*
X125044280Y-87324546D01*
X125022071Y-87292231D01*
X124958855Y-87200251D01*
X124958854Y-87200249D01*
X124954553Y-87193992D01*
X124836275Y-87088611D01*
X124828889Y-87084700D01*
X124735001Y-87034989D01*
X124696274Y-87014484D01*
X124542633Y-86975892D01*
X124535034Y-86975852D01*
X124535033Y-86975852D01*
X124474626Y-86975536D01*
X124393335Y-86975110D01*
X124325321Y-86954752D01*
X124304901Y-86938207D01*
X123496478Y-86129784D01*
X123481336Y-86111036D01*
X123480221Y-86109811D01*
X123474571Y-86101060D01*
X123466393Y-86094613D01*
X123466391Y-86094611D01*
X123448200Y-86080271D01*
X123443759Y-86076325D01*
X123443697Y-86076398D01*
X123439733Y-86073039D01*
X123436056Y-86069362D01*
X123420308Y-86058108D01*
X123415638Y-86054602D01*
X123375353Y-86022844D01*
X123366719Y-86019812D01*
X123359266Y-86014486D01*
X123310150Y-85999797D01*
X123304508Y-85997964D01*
X123263633Y-85983610D01*
X123263632Y-85983610D01*
X123256149Y-85980982D01*
X123250584Y-85980500D01*
X123247876Y-85980500D01*
X123245242Y-85980386D01*
X123245144Y-85980357D01*
X123245151Y-85980193D01*
X123244447Y-85980149D01*
X123238222Y-85978287D01*
X123184365Y-85980403D01*
X123179418Y-85980500D01*
X123115486Y-85980500D01*
X123047365Y-85960498D01*
X123000872Y-85906842D01*
X122989486Y-85854500D01*
X122989486Y-85160000D01*
X122986825Y-85132836D01*
X122985458Y-85118877D01*
X122985457Y-85118874D01*
X122984553Y-85109643D01*
X122964648Y-85061446D01*
X122957132Y-84990850D01*
X122963801Y-84968180D01*
X122969734Y-84959301D01*
X122989486Y-84860000D01*
X122989486Y-84325500D01*
X123009488Y-84257379D01*
X123063144Y-84210886D01*
X123115486Y-84199500D01*
X123860141Y-84199500D01*
X123928262Y-84219502D01*
X123955522Y-84243169D01*
X123956672Y-84244501D01*
X123960908Y-84250805D01*
X124078076Y-84357419D01*
X124217293Y-84433008D01*
X124370522Y-84473207D01*
X124454477Y-84474526D01*
X124521319Y-84475576D01*
X124521322Y-84475576D01*
X124528916Y-84475695D01*
X124683332Y-84440329D01*
X124788718Y-84387326D01*
X124818072Y-84372563D01*
X124818075Y-84372561D01*
X124824855Y-84369151D01*
X124830626Y-84364222D01*
X124830629Y-84364220D01*
X124939536Y-84271204D01*
X124939536Y-84271203D01*
X124945314Y-84266269D01*
X125037755Y-84137624D01*
X125096842Y-83990641D01*
X125106223Y-83924723D01*
X125118581Y-83837891D01*
X125118581Y-83837888D01*
X125119162Y-83833807D01*
X125119307Y-83820000D01*
X125100276Y-83662733D01*
X125044280Y-83514546D01*
X125022629Y-83483043D01*
X124958855Y-83390251D01*
X124958854Y-83390249D01*
X124954553Y-83383992D01*
X124836275Y-83278611D01*
X124828889Y-83274700D01*
X124735764Y-83225393D01*
X124696274Y-83204484D01*
X124542633Y-83165892D01*
X124535034Y-83165852D01*
X124535033Y-83165852D01*
X124469181Y-83165507D01*
X124384221Y-83165062D01*
X124376841Y-83166834D01*
X124376839Y-83166834D01*
X124237563Y-83200271D01*
X124237560Y-83200272D01*
X124230184Y-83202043D01*
X124089414Y-83274700D01*
X123970039Y-83378838D01*
X123965672Y-83385051D01*
X123965667Y-83385057D01*
X123964336Y-83386951D01*
X123963013Y-83388005D01*
X123960589Y-83390697D01*
X123960140Y-83390293D01*
X123908802Y-83431183D01*
X123861250Y-83440500D01*
X122573920Y-83440500D01*
X122549973Y-83437951D01*
X122548307Y-83437872D01*
X122538124Y-83435680D01*
X122527782Y-83436904D01*
X122527779Y-83436904D01*
X122504787Y-83439626D01*
X122498846Y-83439977D01*
X122498854Y-83440072D01*
X122493674Y-83440500D01*
X122488476Y-83440500D01*
X122483354Y-83441353D01*
X122483349Y-83441353D01*
X122469427Y-83443671D01*
X122463550Y-83444508D01*
X122457049Y-83445277D01*
X122422997Y-83449307D01*
X122422995Y-83449308D01*
X122412659Y-83450531D01*
X122404410Y-83454492D01*
X122395374Y-83455996D01*
X122386205Y-83460943D01*
X122386203Y-83460944D01*
X122350240Y-83480348D01*
X122344951Y-83483043D01*
X122342294Y-83484319D01*
X122298768Y-83505220D01*
X122294492Y-83508814D01*
X122292552Y-83510754D01*
X122290641Y-83512507D01*
X122290551Y-83512556D01*
X122290439Y-83512433D01*
X122289904Y-83512905D01*
X122284186Y-83515990D01*
X122277119Y-83523635D01*
X122247584Y-83555586D01*
X122244154Y-83559152D01*
X122239697Y-83563609D01*
X122177385Y-83597635D01*
X122150602Y-83600514D01*
X121230000Y-83600514D01*
X121130699Y-83620266D01*
X121046516Y-83676516D01*
X120990266Y-83760699D01*
X120970514Y-83860000D01*
X120970514Y-84860000D01*
X120975553Y-84910889D01*
X120994226Y-84955835D01*
X120995253Y-84958308D01*
X121002915Y-85028890D01*
X120996192Y-85051830D01*
X120990266Y-85060699D01*
X120987846Y-85072868D01*
X120987845Y-85072869D01*
X120980372Y-85110441D01*
X120970514Y-85160000D01*
X120970514Y-86919250D01*
X120950512Y-86987371D01*
X120896856Y-87033864D01*
X120826582Y-87043968D01*
X120762002Y-87014474D01*
X120755419Y-87008345D01*
X120054704Y-86307630D01*
X120020678Y-86245318D01*
X120017799Y-86218535D01*
X120017799Y-86188431D01*
X120037801Y-86120310D01*
X120061968Y-86092620D01*
X120117835Y-86044905D01*
X120123613Y-86039970D01*
X120216054Y-85911325D01*
X120275141Y-85764342D01*
X120283319Y-85706876D01*
X120296880Y-85611592D01*
X120296880Y-85611589D01*
X120297461Y-85607508D01*
X120297606Y-85593701D01*
X120278575Y-85436434D01*
X120222579Y-85288247D01*
X120168087Y-85208960D01*
X120137154Y-85163952D01*
X120137153Y-85163950D01*
X120132852Y-85157693D01*
X120014574Y-85052312D01*
X119874573Y-84978185D01*
X119720932Y-84939593D01*
X119713333Y-84939553D01*
X119713332Y-84939553D01*
X119647480Y-84939208D01*
X119562520Y-84938763D01*
X119555140Y-84940535D01*
X119555138Y-84940535D01*
X119415862Y-84973972D01*
X119415859Y-84973973D01*
X119408483Y-84975744D01*
X119267713Y-85048401D01*
X119148338Y-85152539D01*
X119057249Y-85282145D01*
X119052101Y-85295350D01*
X119003679Y-85419546D01*
X118999705Y-85429738D01*
X118998713Y-85437271D01*
X118998713Y-85437272D01*
X118981538Y-85567733D01*
X118979028Y-85586797D01*
X109377083Y-85586797D01*
X109374776Y-85567733D01*
X109318780Y-85419546D01*
X109288193Y-85375041D01*
X109233355Y-85295251D01*
X109233354Y-85295249D01*
X109229053Y-85288992D01*
X109110775Y-85183611D01*
X109031538Y-85141657D01*
X108980698Y-85092107D01*
X108964500Y-85030305D01*
X108964500Y-83779730D01*
X108984502Y-83711609D01*
X109008669Y-83683919D01*
X109064536Y-83636204D01*
X109070314Y-83631269D01*
X109162755Y-83502624D01*
X109221842Y-83355641D01*
X109230047Y-83297990D01*
X109243581Y-83202891D01*
X109243581Y-83202888D01*
X109244162Y-83198807D01*
X109244307Y-83185000D01*
X109225276Y-83027733D01*
X109169280Y-82879546D01*
X109150891Y-82852790D01*
X109083855Y-82755251D01*
X109083854Y-82755249D01*
X109079553Y-82748992D01*
X108961275Y-82643611D01*
X108963413Y-82641211D01*
X108928021Y-82597286D01*
X108920436Y-82526696D01*
X108952220Y-82463211D01*
X108962602Y-82453264D01*
X109064536Y-82366204D01*
X109064536Y-82366203D01*
X109070314Y-82361269D01*
X109162755Y-82232624D01*
X109221842Y-82085641D01*
X109244162Y-81928807D01*
X109244307Y-81915000D01*
X109225276Y-81757733D01*
X109169280Y-81609546D01*
X109079553Y-81478992D01*
X108961275Y-81373611D01*
X108953889Y-81369700D01*
X108827988Y-81303039D01*
X108827989Y-81303039D01*
X108821274Y-81299484D01*
X108667633Y-81260892D01*
X108660034Y-81260852D01*
X108660033Y-81260852D01*
X108594181Y-81260507D01*
X108509221Y-81260062D01*
X108501841Y-81261834D01*
X108501839Y-81261834D01*
X108362563Y-81295271D01*
X108362560Y-81295272D01*
X108355184Y-81297043D01*
X108214414Y-81369700D01*
X108095039Y-81473838D01*
X108003950Y-81603444D01*
X107981652Y-81660636D01*
X107949670Y-81742666D01*
X107946406Y-81751037D01*
X107945414Y-81758570D01*
X107945414Y-81758571D01*
X107926764Y-81900236D01*
X107925729Y-81908096D01*
X107928544Y-81933591D01*
X107931963Y-81964566D01*
X107919557Y-82034470D01*
X107895819Y-82067487D01*
X107084784Y-82878522D01*
X107066036Y-82893664D01*
X107064811Y-82894779D01*
X107056060Y-82900429D01*
X107049613Y-82908607D01*
X107049611Y-82908609D01*
X107035271Y-82926800D01*
X107031325Y-82931241D01*
X107031398Y-82931303D01*
X107028039Y-82935267D01*
X107024362Y-82938944D01*
X107013108Y-82954692D01*
X107009602Y-82959362D01*
X106977844Y-82999647D01*
X106974812Y-83008281D01*
X106969486Y-83015734D01*
X106966501Y-83025715D01*
X106954799Y-83064844D01*
X106952964Y-83070492D01*
X106938767Y-83110920D01*
X106935982Y-83118851D01*
X106935500Y-83124416D01*
X106935500Y-83127124D01*
X106935386Y-83129758D01*
X106935357Y-83129856D01*
X106935193Y-83129849D01*
X106935149Y-83130553D01*
X106933287Y-83136778D01*
X106933696Y-83147183D01*
X106935403Y-83190635D01*
X106935500Y-83195582D01*
X106935500Y-85671080D01*
X106932951Y-85695028D01*
X106932872Y-85696693D01*
X106930680Y-85706876D01*
X105154500Y-85706876D01*
X105154500Y-81874730D01*
X105174502Y-81806609D01*
X105198669Y-81778919D01*
X105254536Y-81731204D01*
X105260314Y-81726269D01*
X105352755Y-81597624D01*
X105411842Y-81450641D01*
X105421749Y-81381031D01*
X105433581Y-81297891D01*
X105433581Y-81297888D01*
X105434162Y-81293807D01*
X105434307Y-81280000D01*
X105433468Y-81273062D01*
X105425817Y-81209842D01*
X105415276Y-81122733D01*
X105359280Y-80974546D01*
X105306226Y-80897352D01*
X105273855Y-80850251D01*
X105273854Y-80850249D01*
X105269553Y-80843992D01*
X105151275Y-80738611D01*
X105143889Y-80734700D01*
X105017988Y-80668039D01*
X105017989Y-80668039D01*
X105011274Y-80664484D01*
X104857633Y-80625892D01*
X104850034Y-80625852D01*
X104850033Y-80625852D01*
X104784181Y-80625507D01*
X104699221Y-80625062D01*
X104691841Y-80626834D01*
X104691839Y-80626834D01*
X104552563Y-80660271D01*
X104552560Y-80660272D01*
X104545184Y-80662043D01*
X104404414Y-80734700D01*
X104285039Y-80838838D01*
X104280672Y-80845052D01*
X104280669Y-80845055D01*
X104243153Y-80898435D01*
X104187619Y-80942667D01*
X104116987Y-80949853D01*
X104053682Y-80917712D01*
X104036226Y-80897352D01*
X104003855Y-80850251D01*
X104003854Y-80850249D01*
X103999553Y-80843992D01*
X103881275Y-80738611D01*
X103873889Y-80734700D01*
X103747988Y-80668039D01*
X103747989Y-80668039D01*
X103741274Y-80664484D01*
X103587633Y-80625892D01*
X103580034Y-80625852D01*
X103580033Y-80625852D01*
X103514181Y-80625507D01*
X103429221Y-80625062D01*
X103421841Y-80626834D01*
X103421839Y-80626834D01*
X103282563Y-80660271D01*
X103282560Y-80660272D01*
X103275184Y-80662043D01*
X103134414Y-80734700D01*
X103015039Y-80838838D01*
X102923950Y-80968444D01*
X102896878Y-81037881D01*
X102869626Y-81107779D01*
X102866406Y-81116037D01*
X102865414Y-81123570D01*
X102865414Y-81123571D01*
X102846820Y-81264812D01*
X102845729Y-81273096D01*
X97214789Y-81273096D01*
X97841503Y-80984250D01*
X98750494Y-80565306D01*
X98759381Y-80561614D01*
X100747805Y-79823467D01*
X100756431Y-79820615D01*
X102867521Y-79205947D01*
X102875820Y-79203833D01*
X104349707Y-78881434D01*
X105110466Y-78715025D01*
X105115360Y-78714057D01*
X105638255Y-78621325D01*
X105642551Y-78620639D01*
X105799018Y-78598435D01*
X107557724Y-78348860D01*
X107563660Y-78348161D01*
X109607310Y-78157094D01*
X109612505Y-78156717D01*
X111747765Y-78046420D01*
X111752587Y-78046263D01*
X113938726Y-78017170D01*
X113943403Y-78017195D01*
G37*
G04 #@! TD.AperFunction*
G04 #@! TD*
M02*
